<?xml version="1.0" standalone="no"?>
<!DOCTYPE svg PUBLIC "-//W3C//DTD SVG 1.1//EN" "http://www.w3.org/Graphics/SVG/1.1/DTD/svg11.dtd" >
<svg>
<metadata>
Created by FontForge 20090914 at Fri Nov 23 20:37:50 2012
 By www-data
Copyright (c) 2012 by Brian J. Bonislawsky DBA Astigmatic (AOETI) (astigma@astigmatic.com), with ReservedFont Name "Galindo"
</metadata>
<defs>
<font id="Galindo-Regular" horiz-adv-x="1329" >
  <font-face 
    font-family="Galindo"
    font-weight="400"
    font-stretch="normal"
    units-per-em="2048"
    panose-1="2 0 5 3 0 0 0 2 0 0"
    ascent="1638"
    descent="-410"
    x-height="1038"
    cap-height="1505"
    bbox="-580 -883.001 2284 2014"
    underline-thickness="41"
    underline-position="-232"
    unicode-range="U+0020-U+FB02"
  />
<missing-glyph horiz-adv-x="614" 
 />
    <glyph glyph-name="fi" unicode="fi" horiz-adv-x="1452" 
d="M528 1008c14 0 38.1729 0.328125 72.5059 0.995117s75.166 1.33398 122.499 2.00098s99.166 1.33398 155.499 2.00098s113.166 1.5 170.499 2.5s113.666 2.16699 168.999 3.5s105.333 3 150 5c-7.33301 -74 -13.333 -146.667 -18 -218s-8.5 -142.166 -11.5 -212.499
s-5 -140.5 -6 -210.5s-1.5 -141 -1.5 -213v-76.5c0 -25.667 0.666992 -51.5 2 -77.5h-309c0 41.333 0.333008 82.333 1 123s1 81 1 121c0 91.333 -1.5 178.666 -4.5 261.999s-8.16699 167.333 -15.5 252c-39.333 0.666992 -82.5 1.16699 -129.5 1.5s-93 0.833008 -138 1.5
s-86 1.16699 -123 1.5s-64.833 0.833008 -83.5 1.5c5.33301 -128.667 14.166 -256.167 26.499 -382.5s28.833 -253.5 49.5 -381.5l-372 -36c-6.66699 80 -12.334 157.667 -17.001 233s-8.66699 147 -12 215s-6 131.5 -8 190.5s-3.33301 112.167 -4 159.5l-162 -6v250
c26.667 -2 53.167 -3.83301 79.5 -5.5s53.166 -3.16699 80.499 -4.5c0 4.66699 0.666992 15.334 2 32.001s4.33301 37.334 9 62.001s12 52 22 82s23.667 60.333 41 91s38.833 60.5 64.5 89.5s56.834 54.667 93.501 77s79.5 40.333 128.5 54s105.5 20.5 169.5 20.5
c23.333 0 47.833 -1.16699 73.5 -3.5s52.5 -6.16602 80.5 -11.499v-272c-32 5.33301 -63.833 9 -95.5 11s-64.167 3 -97.5 3c-24.667 0 -50 -0.666992 -76 -2s-52 -4 -78 -8c-1.33301 -34 -2 -67.833 -2 -101.5v-101.5v-26zM1368.01 1368
c0 -23.333 -5.66699 -45.166 -17 -65.499s-27 -38 -47 -53s-43.333 -27 -70 -36s-55 -13.5 -85 -13.5s-58 4.5 -84 13.5s-48.667 21 -68 36s-34.666 32.667 -45.999 53s-17 42.166 -17 65.499c0 22.667 5.66699 44.167 17 64.5s26.666 38 45.999 53s42 26.833 68 35.5
s54 13 84 13s58.333 -4.33301 85 -13s50 -20.5 70 -35.5s35.667 -32.667 47 -53s17 -41.833 17 -64.5z" />
    <glyph glyph-name="fl" unicode="fl" horiz-adv-x="1391" 
d="M829 772c-50 2 -99.4971 3.5 -148.497 4.5s-98.5 2.16699 -148.5 3.5c5.33301 -128.667 14.166 -256.167 26.499 -382.5s28.833 -253.5 49.5 -381.5l-372 -36c-6.66699 80 -12.334 157.667 -17.001 233s-8.66699 147 -12 215s-6 131.5 -8 190.5
s-3.33301 112.167 -4 159.5l-162 -6v250c26.667 -2 53.167 -3.83301 79.5 -5.5s53.166 -3.16699 80.499 -4.5c0 4.66699 0.666992 15.334 2 32.001s4.33301 37.167 9 61.5s12 51.333 22 81s23.667 59.667 41 90s38.833 60 64.5 89s56.834 54.833 93.501 77.5
s79.5 41 128.5 55s105.5 21.333 169.5 22h96c37.333 0 76.333 -0.166992 117 -0.5s81.667 -0.833008 123 -1.5s79.333 -1.5 114 -2.5s64.667 -2.16699 90 -3.5s42.666 -3 51.999 -5h2c-17.333 -250.667 -28.833 -500.167 -34.5 -748.5s-8.5 -495.833 -8.5 -742.5h-311
c3.33301 122.667 5.5 244.334 6.5 365.001s1.5 242 1.5 364c0 83.333 -0.333008 166.333 -1 249s-1.66699 165.667 -3 249c-26 0.666992 -53.5 1.16699 -82.5 1.5s-56.667 0.666016 -83 0.999023s-50 0.666016 -71 0.999023s-36.5 0.5 -46.5 0.5
c-24.667 0 -50 -0.666992 -76 -2s-52 -4 -78 -8c-1.33301 -34 -2 -67.833 -2 -101.5v-101.5v-26c50 1.33301 99.833 3 149.5 5s100.167 5 151.5 9v-250z" />
    <glyph glyph-name=".notdef" horiz-adv-x="614" 
 />
    <glyph glyph-name="space" unicode=" " horiz-adv-x="614" 
 />
    <glyph glyph-name="exclam" unicode="!" horiz-adv-x="631" 
d="M489 66c0 -20 -4.66699 -38.667 -14 -56s-22.333 -32.333 -39 -45s-36 -22.667 -58 -30s-45.667 -11 -71 -11c-26 0 -50.167 3.66699 -72.5 11s-41.833 17.333 -58.5 30s-29.667 27.667 -39 45s-14 36 -14 56c0 19.333 4.66699 37.5 14 54.5s22.333 32 39 45
s36.167 23.167 58.5 30.5s46.5 11 72.5 11c25.333 0 49 -3.66699 71 -11s41.333 -17.5 58 -30.5s29.667 -28 39 -45s14 -35.167 14 -54.5zM565 1479c-38 -189.333 -66.5 -377.833 -85.5 -565.5s-30.833 -376.167 -35.5 -565.5h-278
c-1.33301 190.667 -8.83301 379.667 -22.5 567s-35.5 375.333 -65.5 564h487z" />
    <glyph glyph-name="quotedbl" unicode="&#x22;" horiz-adv-x="920" 
d="M418 1548l-60 -614h-204l-82 614h346zM846 1548l-80 -614h-205l-61 614h346z" />
    <glyph glyph-name="numbersign" unicode="#" horiz-adv-x="1624" 
d="M1518 748l-304 4.00391c-2 -23.333 -3.83301 -46.5 -5.5 -69.5s-3.16699 -45.833 -4.5 -68.5c36 2 72.333 4.5 109 7.5s73.334 6.16699 110.001 9.5l-37 -213l-192 -4c-4 -86 -6 -173.333 -6 -262h-373l43 256l-168 -7c-3.33301 -36.667 -6.33301 -73.334 -9 -110.001
s-5 -73.667 -7 -111h-352l38 211c-45.333 -1.33301 -90.333 -2.83301 -135 -4.5s-89.667 -3.5 -135 -5.5l33 194c45.333 0 90 0.166992 134 0.5s88.667 1.16602 134 2.49902l25 165l-326 -10l27 180l321 7c7.33301 61.333 13.666 122.166 18.999 182.499l16 183.5h342
c-12 -60 -23.167 -119.333 -33.5 -178s-19.5 -117.334 -27.5 -176.001c28 1.33301 55.667 2.5 83 3.5s55 2.5 83 4.5c5.33301 64.667 9.5 129.167 12.5 193.5s5.5 128.833 7.5 193.5h356c-12 -62 -23 -123.667 -33 -185s-18.667 -123.333 -26 -186
c53.333 3.33301 107 7 161 11l163 12zM709 588.004c30 1.33301 59.333 2.50098 88 3.50098s58 2.5 88 4.5c3.33301 25.333 6.33301 50.833 9 76.5s5 51.5 7 77.5h-172c-4 -28 -7.5 -55.333 -10.5 -82s-6.16699 -53.334 -9.5 -80.001z" />
    <glyph glyph-name="dollar" unicode="$" horiz-adv-x="1120" 
d="M664 1710l-47.9951 -477.006c47.333 -3.33301 96.166 -11 146.499 -23s96.666 -30.833 138.999 -56.5s77.666 -59.5 105.999 -101.5s44.166 -94.333 47.499 -157l-355 -14v176h-303v-240c39.333 -8 82.833 -14.333 130.5 -19s96 -10.5 145 -17.5s96.333 -16.667 142 -29
s86.334 -30.166 122.001 -53.499s64.334 -53.666 86.001 -90.999s32.5 -84.666 32.5 -141.999c0 -50.667 -12.333 -93.334 -37 -128.001s-57.334 -62.667 -98.001 -84s-87.334 -36.833 -140.001 -46.5s-106.667 -15.167 -162 -16.5l48 -469h-224l45 476
c-44.667 4.66699 -90.167 13.834 -136.5 27.501s-89.333 33.5 -129 59.5s-73.834 58.833 -102.501 98.5s-47.334 88.167 -56.001 145.5l365 4l14 -157h281l20 180c-37.333 8.66699 -80 16 -128 22s-97.167 13.333 -147.5 22s-99.666 20 -147.999 34s-91.5 33 -129.5 57
s-68.667 54.333 -92 91s-35 82.334 -35 137.001c0 52.667 11.833 97.834 35.5 135.501s55.167 68.834 94.5 93.501s84.5 43.667 135.5 57s103.833 22.333 158.5 27l-47 479h224z" />
    <glyph glyph-name="percent" unicode="%" horiz-adv-x="1581" 
d="M553 829c5.33301 42 8.99609 84 10.9961 126s3 84 3 126s-1 84 -3 126s-5.66699 84.667 -11 128c-22.667 4 -45.167 7.16699 -67.5 9.5s-44.833 3.5 -67.5 3.5s-45.5 -1.16699 -68.5 -3.5s-45.833 -5.5 -68.5 -9.5c-5.33301 -36 -9.16602 -72.167 -11.499 -108.5
s-3.5 -72.5 -3.5 -108.5c0 -50 2.5 -99.667 7.5 -149s12.167 -99.333 21.5 -150c32.667 -4 65.334 -6 98.001 -6c26.667 0 53.334 1.33301 80.001 4s53.334 6.66699 80.001 12zM769.996 1061c-2 -49.333 -10 -92.6689 -24 -130.002s-31.833 -69.666 -53.5 -96.999
s-45.667 -50 -72 -68s-53 -32.5 -80 -43.5s-53 -18.833 -78 -23.5s-46.833 -7 -65.5 -7c-18 0 -38.667 2 -62 6s-47.333 11.167 -72 21.5s-48.667 24.5 -72 42.5s-44.333 41.333 -63 70s-33.667 63 -45 103s-17 87.333 -17 142c0 52 5.66699 97.5 17 136.5
s26.5 72.5 45.5 100.5s40.667 51.333 65 70s49.333 33.5 75 44.5s51.167 18.833 76.5 23.5s48.333 7.33398 69 8.00098c39.333 0 80 -6.83301 122 -20.5s80.333 -36 115 -67s63.167 -72 85.5 -123s33.5 -113.833 33.5 -188.5zM1300 110.997
c5.33301 42 9.16602 83.833 11.499 125.5s3.5 83.5 3.5 125.5s-1.16699 84 -3.5 126s-6.16602 84.667 -11.499 128c-43.333 8.66699 -88.333 13 -135 13c-22.667 0 -45.5 -1 -68.5 -3s-45.833 -5.33301 -68.5 -10c-5.33301 -36 -9 -72.167 -11 -108.5s-3 -72.5 -3 -108.5
c0 -50 2.33301 -99.667 7 -149s11.667 -99.333 21 -150c16.667 -2 33.5 -3.5 50.5 -4.5s33.167 -1.5 48.5 -1.5c51.333 0 104.333 5.66699 159 17zM1518 341.997c-2 -49.333 -10.166 -92.6689 -24.499 -130.002s-32.166 -69.666 -53.499 -96.999s-45.333 -50 -72 -68
s-53.5 -32.5 -80.5 -43.5s-53 -18.833 -78 -23.5s-46.5 -7 -64.5 -7s-38.833 2 -62.5 6s-47.667 11.167 -72 21.5s-48.333 24.5 -72 42.5s-44.834 41.333 -63.501 70s-33.667 63 -45 103s-17 87.333 -17 142c0 52 5.66699 97.5 17 136.5s26.5 72.5 45.5 100.5
s40.667 51.333 65 70s49.333 33.5 75 44.5s51.167 18.833 76.5 23.5s48.333 7.33398 69 8.00098c39.333 0 80.166 -6.83301 122.499 -20.5s80.833 -36 115.5 -67s63.167 -72 85.5 -123s33.5 -113.833 33.5 -188.5zM1296 1431.99l-433 -723l-408 -744l-172 51l430 716
c138 238 270.333 477.333 397 718z" />
    <glyph glyph-name="ampersand" unicode="&#x26;" horiz-adv-x="1362" 
d="M973 -76l-55.002 64.002c-58.667 -27.333 -120.5 -47.5 -185.5 -60.5s-131.833 -20.167 -200.5 -21.5c-87.333 0 -163.166 7.5 -227.499 22.5s-117.5 36.5 -159.5 64.5s-73.333 62 -94 102s-31 84.667 -31 134c0 39.333 9.66699 78.666 29 117.999s46 79 80 119
s74.667 80.833 122 122.5s99 84.5 155 128.5c-38 76 -68.333 151.167 -91 225.5s-34 146.5 -34 216.5c0 44.667 8 86.5 24 125.5s40.833 73 74.5 102s76.5 51.667 128.5 68s114 24.5 186 24.5c70 0 129.333 -8.33301 178 -25s88.167 -38.5 118.5 -65.5s52.333 -58 66 -93
s20.5 -70.833 20.5 -107.5c0 -39.333 -5.5 -76.333 -16.5 -111s-29.333 -70.834 -55 -108.501s-59.334 -78.167 -101.001 -121.5s-93.167 -93 -154.5 -149c24.667 -48 50.834 -94.667 78.501 -140s58.167 -90 91.5 -134c5.33301 21.333 9.5 42.5 12.5 63.5l9.5 63.5h365
c-6.66699 -82.667 -23.667 -156.667 -51 -222s-63 -123 -107 -173c30.667 -32 61.834 -62.833 93.501 -92.5l98.5 -88.5zM585.998 162.002c30 0 60.1689 0.666992 90.502 2s60.833 4 91.5 8l-116 151.5c-38 51.667 -74.333 104.167 -109 157.5
c-37.333 -42 -73.833 -88 -109.5 -138s-69.5 -104.333 -101.5 -163c43.333 -6 85.666 -10.5 126.999 -13.5s83.666 -4.5 126.999 -4.5zM580 1243c7.33301 -53.333 16.5 -105.167 27.5 -155.5s24.167 -99.5 39.5 -147.5c22.667 24 44.667 48.833 66 74.5
s40.666 51.5 57.999 77.5s32.166 51.833 44.499 77.5s20.5 50.167 24.5 73.5c-20.667 5.33301 -41.667 9.5 -63 12.5s-43.333 4.5 -66 4.5c-21.333 0 -43.166 -1.5 -65.499 -4.5s-44.166 -7.16699 -65.499 -12.5z" />
    <glyph glyph-name="quotesingle" unicode="'" horiz-adv-x="512" 
d="M438 1548l-80 -614h-204l-82 614h366z" />
    <glyph glyph-name="parenleft" unicode="(" horiz-adv-x="836" 
d="M836 1495c-61.333 -52 -115.17 -104.335 -161.503 -157.002s-86.666 -104.167 -120.999 -154.5s-63.166 -99 -86.499 -146s-42.666 -90.833 -57.999 -131.5c-36 -96 -56.333 -187.667 -61 -275c4.66699 -87.333 23.667 -176.666 57 -267.999
c14 -39.333 32 -80.833 54 -124.5s48.833 -88.167 80.5 -133.5s69 -91.166 112 -137.499s92.833 -91.5 149.5 -135.5l-334 -205c-51.333 36.667 -96.5 79.334 -135.5 128.001s-73 100 -102 154s-53.333 109.333 -73 166s-35.834 111.667 -48.501 165
c-30 125.333 -47 255.666 -51 390.999c4 135.333 21 267.666 51 396.999c12.667 54.667 28.834 111.667 48.501 171s44 117.833 73 175.5s63 113.334 102 167.001s84.167 102.5 135.5 146.5z" />
    <glyph glyph-name="parenright" unicode=")" horiz-adv-x="836" 
d="M369 1688c50.667 -44 95.4951 -92.8311 134.495 -146.498s73 -109.334 102 -167.001s53.333 -116.167 73 -175.5s35.834 -116.333 48.501 -171c30 -129.333 47 -261.666 51 -396.999c-4 -135.333 -21 -265.666 -51 -390.999
c-12.667 -53.333 -28.834 -108.333 -48.501 -165s-44 -112 -73 -166s-63 -105.333 -102 -154s-83.833 -91.334 -134.5 -128.001l-334 205c56.667 44 106.334 89.167 149.001 135.5s79.834 92.166 111.501 137.499s58.5 89.833 80.5 133.5s40 85.167 54 124.5
c32.667 91.333 51.667 180.666 57 267.999c-4.66699 87.333 -25 179 -61 275c-15.333 40.667 -34.666 84.5 -57.999 131.5s-52.166 95.667 -86.499 146s-74.666 101.833 -120.999 154.5s-99.833 105 -160.5 157z" />
    <glyph glyph-name="asterisk" unicode="*" horiz-adv-x="1194" 
d="M1116 1063h-272l248 -229l-265 -170l-194 323l-215 -387l-293 158l305 305h-358l53 303l354 -92l-18 274l340 25l-37 -293l328 86z" />
    <glyph glyph-name="plus" unicode="+" horiz-adv-x="1079" 
d="M1012 643c-124 0 -248.335 -1.99707 -373.002 -5.99707c1.33301 -47.333 3.33301 -94.333 6 -141s6 -93.334 10 -140.001l-319 -43c5.33301 52 9.83301 103.667 13.5 155s6.5 103 8.5 155c-49.333 -3.33301 -98 -7 -146 -11l-144 -12v291
c48 1.33301 96 2.16602 144 2.49902s96 1.5 144 3.5c-2 43.333 -4.5 86.333 -7.5 129s-7.16699 85 -12.5 127h319c-3.33301 -41.333 -6.16602 -82.333 -8.49902 -123s-4.16602 -81.667 -5.49902 -123c62 3.33301 123.833 7.16602 185.5 11.499s123.5 9.5 185.5 15.5v-291z
" />
    <glyph glyph-name="comma" unicode="," horiz-adv-x="596" 
d="M510 61c-1.33301 -45.333 -8.16699 -89.168 -20.5 -131.501s-25.833 -80.166 -40.5 -113.499c-17.333 -38.667 -36.666 -75 -57.999 -109l-215 33c21.333 28.667 38.5 57.334 51.5 86.001s23.167 54.667 30.5 78c-24.667 3.33301 -47.5 9.66602 -68.5 18.999
s-39.167 21 -54.5 35s-27.333 29.667 -36 47s-13 36 -13 56c0 22.667 5.66699 44 17 64s26.666 37.333 45.999 52s41.833 26.334 67.5 35.001s53.167 13 82.5 13s56.833 -4.33301 82.5 -13s48 -20.334 67 -35.001s34 -32 45 -52s16.5 -41.333 16.5 -64z" />
    <glyph glyph-name="hyphen" unicode="-" horiz-adv-x="1167" 
d="M1057 643c-158 0 -315.167 -3.5 -471.5 -10.5s-313.833 -17.833 -472.5 -32.5v291c157.333 3.33301 314.5 7.5 471.5 12.5s314.5 15.167 472.5 30.5v-291z" />
    <glyph glyph-name="period" unicode="." horiz-adv-x="547" 
d="M459 61c0 -19.333 -4.83301 -37.5 -14.5 -54.5s-23 -32 -40 -45s-36.667 -23.167 -59 -30.5s-46.166 -11 -71.499 -11c-26 0 -50.333 3.66699 -73 11s-42.334 17.5 -59.001 30.5s-29.834 28 -39.501 45s-14.5 35.167 -14.5 54.5c0 20 4.83301 38.667 14.5 56
s22.834 32.5 39.501 45.5s36.334 23.333 59.001 31s47 11.5 73 11.5c25.333 0 49.166 -3.83301 71.499 -11.5s42 -18 59 -31s30.333 -28.167 40 -45.5s14.5 -36 14.5 -56z" />
    <glyph glyph-name="slash" unicode="/" horiz-adv-x="1247" 
d="M1202 1432c-151.333 -237.333 -291.331 -478.5 -419.998 -723.5s-247.334 -492.833 -356.001 -743.5l-379 51c148.667 239.333 287.167 478 415.5 716s245.166 477.333 350.499 718z" />
    <glyph glyph-name="zero" unicode="0" horiz-adv-x="1556" 
d="M1053 252c9.33301 83.333 16.3271 166.834 20.9941 250.501s7 168.167 7 253.5c0 84.667 -2.33301 168.834 -7 252.501s-11.667 168.167 -21 253.5c-45.333 9.33301 -90.833 16 -136.5 20s-91.167 6 -136.5 6s-90.666 -2 -135.999 -6s-90.666 -10.667 -135.999 -20
c-10.667 -72.667 -18.5 -144.834 -23.5 -216.501s-7.5 -143.834 -7.5 -216.501c0 -100.667 5 -200.5 15 -299.5s24.333 -198.5 43 -298.5c32.667 -5.33301 65.834 -9 99.501 -11s65.834 -3 96.501 -3c54.667 0 108.334 3 161.001 9s106.334 14.667 161.001 26z
M1484.99 715.001c-4 -98.667 -20.0049 -185.331 -48.0049 -259.998s-63.5 -139.334 -106.5 -194.001s-91 -100.167 -144 -136.5s-106.5 -65.5 -160.5 -87.5s-106.167 -37.5 -156.5 -46.5s-93.833 -13.5 -130.5 -13.5c-36 0 -77.5 3.83301 -124.5 11.5s-95 21.667 -144 42
s-97.167 48.5 -144.5 84.5s-89.5 82.5 -126.5 139.5s-66.833 125.667 -89.5 206s-34 175.166 -34 284.499c0 104 11.333 195 34 273s52.834 145.333 90.501 202s80.834 103.5 129.501 140.5s98.834 66.5 150.501 88.5s102.667 37.5 153 46.5s96.5 14.167 138.5 15.5
c52.667 0 106.834 -5.83301 162.501 -17.5s109.834 -30.334 162.501 -56.001s102.5 -59 149.5 -100s88.167 -91 123.5 -150s63.333 -127.667 84 -206s31 -167.166 31 -266.499z" />
    <glyph glyph-name="one" unicode="1" horiz-adv-x="864" 
d="M279 18c12 138.667 21.665 276.333 28.998 413s11 274.334 11 413.001c0 66.667 -1.16699 132.667 -3.5 198s-5.16602 131 -8.49902 197l-287 6v225c118 1.33301 234.833 5.5 350.5 12.5s232.5 16.5 350.5 28.5c-4 -85.333 -6.66699 -170.333 -8 -255
s-2 -169.667 -2 -255c0 -164.667 3.33301 -328.334 10 -491.001s16.334 -326.667 29.001 -492h-471z" />
    <glyph glyph-name="two" unicode="2" horiz-adv-x="1382" 
d="M1303 18l-1192 0.000976562c-2.66699 11.333 -4.16699 23 -4.5 35s-0.5 23.667 -0.5 35c0 38 3.16699 74.667 9.5 110s14.666 68.833 24.999 100.5s22.166 61.334 35.499 89.001s27 53.167 41 76.5c32 54.667 69 104 111 148c28 24.667 67.333 51 118 79
c43.333 24 100.5 51.5 171.5 82.5s160.167 63.833 267.5 98.5c12 60 18 119.667 18 179c0 38 -2.33301 75 -7 111s-11 72 -19 108c-27.333 3.33301 -54.833 5.83301 -82.5 7.5s-55.5 2.5 -83.5 2.5c-81.333 0 -163.333 -8.33301 -246 -25c-4 -32 -7.33301 -63.333 -10 -94
s-4 -62 -4 -94c0 -51.333 4 -102 12 -152h-395c-1.33301 13.333 -2 26.333 -2 39v37c0 67.333 9.33301 126.666 28 177.999s43.167 96 73.5 134s65 70 104 96s78.833 47.333 119.5 64c95.333 39.333 204 61.666 326 66.999c101.333 0 188.5 -11.5 261.5 -34.5
s133 -54.5 180 -94.5s81.667 -87 104 -141s33.5 -112.333 33.5 -175c0 -67.333 -13.167 -127.5 -39.5 -180.5s-61 -100.333 -104 -142s-91.667 -78.167 -146 -109.5s-109.333 -59 -165 -83s-109.667 -45 -162 -63l-136.5 -48l-13 -142h748z" />
    <glyph glyph-name="three" unicode="3" horiz-adv-x="1411" 
d="M1331 406c0 -45.333 -9.33496 -87.166 -28.002 -125.499s-44.167 -72.833 -76.5 -103.5s-70 -57.667 -113 -81s-88.833 -43.333 -137.5 -60s-98.834 -29.667 -150.501 -39s-102.167 -15 -151.5 -17c-48.667 0 -97.5 4.33301 -146.5 13s-96 21.334 -141 38.001
s-87.167 37.167 -126.5 61.5s-73.833 52.166 -103.5 83.499s-53.667 66.333 -72 105s-28.833 80.334 -31.5 125.001l377 26c3.33301 -41.333 9.83301 -81.333 19.5 -120s23.834 -77 42.501 -115c60.667 0 122.334 1 185.001 3s127 7.66699 193 17
c6.66699 28 11.5 55.667 14.5 83s4.5 55 4.5 83c0 65.333 -8.33301 130.333 -25 195c-51.333 9.33301 -102.666 16.333 -153.999 21s-103 7 -155 7c-20.667 0 -41.334 -0.333008 -62.001 -1s-41.667 -1.66699 -63 -3l6 172c77.333 3.33301 153.333 10.166 228 20.499
s148.334 24.833 221.001 43.5c10 34 17.167 67.667 21.5 101s6.5 67 6.5 101c0 36 -2.33301 71.5 -7 106.5s-11.667 70.5 -21 106.5c-25.333 3.33301 -51.333 5.66602 -78 6.99902s-53.334 2 -80.001 2c-32.667 0 -65.334 -1.16699 -98.001 -3.5s-65.667 -5.5 -99 -9.5
c-12 -57.333 -18 -114.666 -18 -171.999c0 -24.667 1.33301 -49.334 4 -74.001s6.66699 -49.667 12 -75l-419 -17c-3.33301 17.333 -5.66602 33.833 -6.99902 49.5s-2 30.834 -2 45.501c0 65.333 8.83301 122.833 26.5 172.5s40.834 92.834 69.501 129.501
s61.334 67.667 98.001 93s74 46.333 112 63c90 38.667 192.333 60.667 307 66c77.333 0 146.166 -6.66699 206.499 -20s113.5 -31.666 159.5 -54.999s85 -50.5 117 -81.5s58 -64.333 78 -100s34.5 -72.5 43.5 -110.5s13.5 -75.333 13.5 -112c0 -39.333 -6.5 -76 -19.5 -110
s-31 -65.333 -54 -94s-50 -54.834 -81 -78.501s-64.167 -44.834 -99.5 -63.501c30.667 -13.333 57.667 -27.666 81 -42.999s43.833 -31.333 61.5 -48s32.667 -33.334 45 -50.001s22.5 -32.667 30.5 -48c19.333 -36.667 31.333 -73.334 36 -110.001z" />
    <glyph glyph-name="four" unicode="4" horiz-adv-x="1368" 
d="M1294 553c-23.333 0 -46.832 0.330078 -70.499 0.99707s-47.167 1 -70.5 1v-90c0 -70.667 0.333008 -141.667 1 -213s1.66699 -142.333 3 -213l-440 -21c7.33301 90 13.833 179.667 19.5 269s10.834 178.666 15.501 267.999c-122 -1.33301 -243 -4.16602 -363 -8.49902
s-240 -9.16602 -360 -14.499c47.333 160.667 86.666 320.334 117.999 479.001s51.333 317.334 60 476.001h307c-26.667 -120.667 -49.834 -240.5 -69.501 -359.5s-34.167 -239.5 -43.5 -361.5c29.333 -1.33301 57.833 -2 85.5 -2h86.5h187c4 112.667 6 226 6 340
c0 58.667 -0.5 117 -1.5 175s-3.16699 116.333 -6.5 175h436c-11.333 -113.333 -19.833 -225.833 -25.5 -337.5s-10.167 -224.5 -13.5 -338.5c30 1.33301 59.333 2.83301 88 4.5s58 3.5 88 5.5z" />
    <glyph glyph-name="five" unicode="5" horiz-adv-x="1350" 
d="M1305 434c0 -57.333 -9.49902 -109.838 -28.499 -157.505s-44.833 -90.834 -77.5 -129.501s-71 -72.667 -115 -102s-91.167 -53.833 -141.5 -73.5s-102.666 -34.5 -156.999 -44.5s-107.833 -15 -160.5 -15c-35.333 0.666992 -73 3.83398 -113 9.50098
s-79.833 14.5 -119.5 26.5s-78.334 28 -116.001 48s-72 45.333 -103 76s-57.5 67 -79.5 109s-37.667 91 -47 147l440 28c-12 -41.333 -18 -83.666 -18 -126.999c0 -15.333 0.833008 -30.666 2.5 -45.999s4.16699 -30.666 7.5 -45.999
c24.667 -1.33301 48.834 -2.33301 72.501 -3s47.5 -1 71.5 -1c40 0 80.667 1.33301 122 4s85.333 8.33398 132 17.001c13.333 49.333 23.5 98.833 30.5 148.5s10.5 100.5 10.5 152.5c0 36.667 -2 73.834 -6 111.501s-9.66699 75.5 -17 113.5
c-62.667 3.33301 -125 5.5 -187 6.5s-125.333 1.5 -190 1.5c-64 0 -129 -0.5 -195 -1.5s-133.333 -3.16699 -202 -6.5l74 768h960v-324l-694 52l-17 -312c108 42.667 226.333 64 355 64c31.333 0 65.666 -3.33301 102.999 -10s74.666 -17.5 111.999 -32.5
s73.5 -35 108.5 -60s66 -55.833 93 -92.5s48.667 -79.667 65 -129s24.5 -106 24.5 -170z" />
    <glyph glyph-name="six" unicode="6" horiz-adv-x="1395" 
d="M1319 328c-2 -52 -17.8389 -102.833 -47.5059 -152.5s-71 -94 -124 -133s-116.333 -70.5 -190 -94.5s-155.834 -36 -246.501 -36c-86 0 -167.333 16 -244 48s-143.834 80 -201.501 144s-103.334 144 -137.001 240s-50.5 208 -50.5 336c0 111.333 10.667 207.833 32 289.5
s49.833 151 85.5 208s76.667 103.333 123 139s94.333 63.334 144 83.001s99.5 33 149.5 40s96.667 10.5 140 10.5c40 0 81.333 -3.33301 124 -10s84.334 -18 125.001 -34s79.334 -37 116.001 -63s69.334 -58 98.001 -96s52.167 -82.833 70.5 -134.5
s29.5 -111.167 33.5 -178.5l-365 -29c4.66699 28 7.66699 55.333 9 82s2 54 2 82c0 24.667 -0.666992 49.167 -2 73.5s-4.33301 49.166 -9 74.499c-22.667 3.33301 -44.5 5.5 -65.5 6.5s-42.167 1.5 -63.5 1.5c-51.333 0 -102 -3.66699 -152 -11s-100.333 -18 -151 -32
c-12 -80.667 -21.833 -161 -29.5 -241s-12.167 -160.333 -13.5 -241c34.667 18.667 70.834 33.334 108.501 44.001s72.834 18.5 105.501 23.5s60.667 8 84 9s38 1.5 44 1.5c66.667 0 125.334 -6.33301 176.001 -19s94.334 -29.834 131.001 -51.501
s67.334 -47.167 92.001 -76.5s44.334 -60.666 59.001 -93.999s25 -67.833 31 -103.5s9 -70.834 9 -105.501zM617.994 571c-46.667 0 -92.333 -2.00098 -137 -6.00098c2 -64 6.83301 -127.833 14.5 -191.5s16.5 -127.5 26.5 -191.5c33.333 -3.33301 66.333 -5.83301 99 -7.5
s66 -2.5 100 -2.5c32.667 0 65.5 0.833008 98.5 2.5s66.5 4.16699 100.5 7.5c4 31.333 7.33301 61.833 10 91.5s4 60.167 4 91.5c0 30.667 -1.33301 60.834 -4 90.501s-6 60.167 -10 91.5c-99.333 16 -200 24 -302 24z" />
    <glyph glyph-name="seven" unicode="7" horiz-adv-x="1065" 
d="M1063 1425l-440 -1484l-449 45l465 1212h-604v227h1028z" />
    <glyph glyph-name="eight" unicode="8" horiz-adv-x="1397" 
d="M944 121c19.333 89.333 29.001 177.333 29.001 264c0 41.333 -2.16699 82.333 -6.5 123s-11.833 81.667 -22.5 123c-80 8 -160.667 12 -242 12c-75.333 0 -153 -4 -233 -12c-16.667 -50 -28.334 -98.5 -35.001 -145.5s-10 -94.167 -10 -141.5
c0 -75.333 8.33301 -150.333 25 -225c38.667 -2 77.5 -3.83301 116.5 -5.5s78.5 -2.5 118.5 -2.5c43.333 0 86.5 0.833008 129.5 2.5s86.5 4.16699 130.5 7.5zM864.001 829c5.33301 36 9.49805 71.834 12.498 107.501s4.5 70.834 4.5 105.501c0 36 -1.5 71.833 -4.5 107.5
s-7.16699 71.5 -12.5 107.5c-28.667 4.66699 -57.667 8 -87 10s-59 3 -89 3s-59.333 -1 -88 -3s-58 -5.33301 -88 -10c-7.33301 -34.667 -12.5 -69.334 -15.5 -104.001s-4.5 -69.334 -4.5 -104.001c0 -37.333 1.83301 -74 5.5 -110s8.5 -72.667 14.5 -110
c58.667 -8 116.667 -12 174 -12c28.667 0 58.334 1 89.001 3s60.334 5 89.001 9zM1358 338.001c-1.33301 -66.667 -20.332 -126.998 -56.999 -180.998s-86.334 -100.167 -149.001 -138.5s-136 -68 -220 -89s-173.333 -31.5 -268 -31.5c-88.667 0 -170.167 12.5 -244.5 37.5
s-138.5 58.5 -192.5 100.5s-96.5 90.667 -127.5 146s-47.167 113.333 -48.5 174c0 4 0.5 13.167 1.5 27.5s4.5 32.166 10.5 53.499s15.5 44.833 28.5 70.5s31.667 52 56 79s55.166 53.5 92.499 79.5s83 49.667 137 71c-40.667 11.333 -75 27 -103 47s-51.5 42 -70.5 66
s-34 48.667 -45 74s-19.333 49.666 -25 72.999s-9.16699 44.166 -10.5 62.499s-2 32.5 -2 42.5c0 44.667 7.66699 85.167 23 121.5s36.333 68.5 63 96.5s58.5 52.167 95.5 72.5s77 37 120 50s88.5 22.667 136.5 29s96.667 9.5 146 9.5c70.667 0 138.667 -8.16699 204 -24.5
s122.833 -40.833 172.5 -73.5s89.334 -73.667 119.001 -123s44.5 -107 44.5 -173c-4 -42.667 -13.667 -84.667 -29 -126c-6.66699 -18 -14.667 -36.667 -24 -56s-20.666 -38.833 -33.999 -58.5s-28.833 -38.834 -46.5 -57.501s-37.834 -36 -60.501 -52
c52.667 -21.333 96.667 -45.666 132 -72.999s64.5 -55.166 87.5 -83.499s40.5 -56.333 52.5 -84s20.5 -52.667 25.5 -75s7.83301 -41 8.5 -56s1 -24.167 1 -27.5z" />
    <glyph glyph-name="nine" unicode="9" horiz-adv-x="1395" 
d="M1315 600c-5.33301 -93.333 -18.498 -174.67 -39.498 -244.003s-47.5 -129 -79.5 -179s-68.333 -91.333 -109 -124s-83 -59 -127 -79s-88.667 -34.667 -134 -44s-88.666 -15.333 -129.999 -18c-42 0 -85.333 2.5 -130 7.5s-88.834 13.667 -132.501 26
s-85.667 29.5 -126 51.5s-76.5 50.167 -108.5 84.5s-58.833 75.333 -80.5 123s-35.834 103.834 -42.501 168.501l362 30c-3.33301 -28 -5.5 -52.667 -6.5 -74s-1.5 -42.333 -1.5 -63c0 -18.667 0.5 -37.5 1.5 -56.5s3.16699 -41.167 6.5 -66.5c20.667 -2 42 -3.5 64 -4.5
s43.667 -1.5 65 -1.5c52 0 103.167 3.5 153.5 10.5s100.166 17.167 149.499 30.5c9.33301 62 17.333 124 24 186s11.667 124.333 15 187c-34.667 -18.667 -70.834 -33 -108.501 -43s-72.667 -17.333 -105 -22s-60 -7.33398 -83 -8.00098s-37.5 -1 -43.5 -1
c-65.333 -0.666992 -122.833 5.33301 -172.5 18s-92.667 30 -129 52s-66.833 47.667 -91.5 77s-44.334 60.833 -59.001 94.5s-25.167 68.334 -31.5 104.001s-9.5 70.834 -9.5 105.501c0 82 14.5 155.167 43.5 219.5s70 118.666 123 162.999s116.833 78.333 191.5 102
s157.334 36.167 248.001 37.5c86.667 0 168.5 -16.167 245.5 -48.5s144.333 -80.5 202 -144.5s103.334 -144.167 137.001 -240.5s50.5 -208.5 50.5 -336.5c0 -13.333 -0.333008 -26.666 -1 -39.999s-1 -26.666 -1 -39.999zM774.002 683.996
c22.667 0 45.6699 0.168945 69.0029 0.501953s46.666 1.5 69.999 3.5c0 82.667 -3.5 164.667 -10.5 246s-17.833 162.666 -32.5 243.999c-32.667 4 -65.334 6.66699 -98.001 8s-65.334 2 -98.001 2c-34 0 -67.5 -0.666992 -100.5 -2s-66.5 -4 -100.5 -8
c-4 -30 -7 -65.833 -9 -107.5s-3 -85.167 -3 -130.5c0 -43.333 1 -85.333 3 -126s5 -76.334 9 -107.001c50 -8.66699 100.167 -14.667 150.5 -18s100.5 -5 150.5 -5z" />
    <glyph glyph-name="colon" unicode=":" horiz-adv-x="592" 
d="M481 61c0 -19.333 -4.83301 -37.5 -14.5 -54.5s-23 -32 -40 -45s-36.667 -23.167 -59 -30.5s-45.833 -11 -70.5 -11c-26 0 -50.333 3.66699 -73 11s-42.334 17.5 -59.001 30.5s-29.834 28 -39.501 45s-14.5 35.167 -14.5 54.5c0 20 4.83301 38.667 14.5 56
s22.834 32.5 39.501 45.5s36.334 23.333 59.001 31s47 11.5 73 11.5c24.667 0 48.167 -3.83301 70.5 -11.5s42 -18 59 -31s30.333 -28.167 40 -45.5s14.5 -36 14.5 -56zM481 758c0 -19.333 -4.83301 -37.666 -14.5 -54.999s-23 -32.5 -40 -45.5s-36.667 -23.167 -59 -30.5
s-45.833 -11 -70.5 -11c-26 0 -50.333 3.66699 -73 11s-42.334 17.5 -59.001 30.5s-29.834 28.167 -39.501 45.5s-14.5 35.666 -14.5 54.999c0 20 4.83301 38.667 14.5 56s22.834 32.5 39.501 45.5s36.334 23.167 59.001 30.5s47 11 73 11
c24.667 0 48.167 -3.66699 70.5 -11s42 -17.5 59 -30.5s30.333 -28.167 40 -45.5s14.5 -36 14.5 -56z" />
    <glyph glyph-name="semicolon" unicode=";" horiz-adv-x="651" 
d="M541 61c-1.33301 -45.333 -8.16797 -89.168 -20.501 -131.501s-25.833 -80.166 -40.5 -113.499c-17.333 -38.667 -36.666 -75 -57.999 -109l-215 33c21.333 28.667 38.5 57.334 51.5 86.001s23.167 54.667 30.5 78c-24.667 3.33301 -47.5 9.66602 -68.5 18.999
s-39.167 21 -54.5 35s-27.333 29.667 -36 47s-13 36 -13 56c0 22.667 5.66699 44 17 64s26.666 37.333 45.999 52s41.833 26.334 67.5 35.001s53.167 13 82.5 13c28.667 0 55.834 -4.33301 81.501 -13s48.167 -20.334 67.5 -35.001s34.5 -32 45.5 -52s16.5 -41.333 16.5 -64
zM507.998 757.998c0 -19.333 -4.83301 -37.666 -14.5 -54.999s-23 -32.5 -40 -45.5s-36.667 -23.167 -59 -30.5s-45.833 -11 -70.5 -11c-26 0 -50.5 3.66699 -73.5 11s-42.833 17.5 -59.5 30.5s-29.834 28.167 -39.501 45.5s-14.5 35.666 -14.5 54.999
c0 20 4.83301 38.667 14.5 56s22.834 32.5 39.501 45.5s36.5 23.167 59.5 30.5s47.5 11 73.5 11c24.667 0 48.167 -3.66699 70.5 -11s42 -17.5 59 -30.5s30.333 -28.167 40 -45.5s14.5 -36 14.5 -56z" />
    <glyph glyph-name="less" unicode="&#x3c;" horiz-adv-x="1145" 
d="M938 57l-434.001 256.501c-144 81 -291.667 156.167 -443 225.5l27 323c154.667 92.667 298.334 187.167 431.001 283.5s258.667 193.166 378 290.499l141 -174c-261.333 -144.667 -503 -308 -725 -490c120 -64 242.167 -123 366.5 -177s252.833 -105 385.5 -153z" />
    <glyph glyph-name="equal" unicode="=" horiz-adv-x="1174" 
d="M1059 791c-158 6 -315.167 8.5 -471.5 7.5s-313.833 -5.83301 -472.5 -14.5v291c157.333 -3.33301 314.5 -5.5 471.5 -6.5s314.5 3.16699 472.5 12.5v-290zM1059 389c-314 12 -628.667 10 -944 -6v291c157.333 -3.33301 314.5 -5.5 471.5 -6.5s314.5 3.16699 472.5 12.5
v-291z" />
    <glyph glyph-name="greater" unicode="&#x3e;" horiz-adv-x="1145" 
d="M80 442c132.667 48 261.171 99 385.504 153s246.166 113 365.499 177c-220.667 182 -462.334 345.333 -725.001 490l142 174c119.333 -98 245.166 -194.833 377.499 -290.5s276.166 -190.167 431.499 -283.5l26 -323c-151.333 -69.333 -298.833 -144.5 -442.5 -225.5
l-433.5 -256.5z" />
    <glyph glyph-name="question" unicode="?" horiz-adv-x="1292" 
d="M770 66c0 -22 -5.33301 -42.833 -16 -62.5s-25.167 -36.667 -43.5 -51s-40 -25.666 -65 -33.999s-51.833 -12.5 -80.5 -12.5s-55.5 4.16699 -80.5 12.5s-46.667 19.666 -65 33.999s-32.833 31.333 -43.5 51s-16 40.5 -16 62.5c0 21.333 5.33301 41.5 16 60.5
s25.167 35.667 43.5 50s40 25.666 65 33.999s51.833 12.5 80.5 12.5s55.5 -4.16699 80.5 -12.5s46.667 -19.666 65 -33.999s32.833 -31 43.5 -50s16 -39.167 16 -60.5zM1231 1044c-4.66699 -63.333 -23.999 -125.005 -57.999 -185.005
c-14.667 -25.333 -33 -51.666 -55 -78.999s-49.333 -54.166 -82 -80.499s-70.834 -51.5 -114.501 -75.5s-94.167 -45.667 -151.5 -65l-27 -211h-319c2 10.667 3.16699 21 3.5 31s0.5 20.333 0.5 31c0 82.667 -10.333 164.334 -31 245.001
c73.333 8.66699 145.5 19.667 216.5 33s140.833 30.333 209.5 51c4 40 7.5 80 10.5 120s4.5 80 4.5 120c0 51.333 -2.16699 102.5 -6.5 153.5s-10.5 102.167 -18.5 153.5c-21.333 2 -42.5 3.5 -63.5 4.5s-42.833 1.5 -65.5 1.5c-43.333 0 -86.833 -2 -130.5 -6
s-87.5 -10.667 -131.5 -20c-1.33301 -13.333 -2 -26.333 -2 -39v-39c0 -46 3.83301 -91.833 11.5 -137.5s18.167 -91.5 31.5 -137.5l-324 -30c-16 16 -28.667 34.833 -38 56.5s-16.666 43.834 -21.999 66.501s-8.83301 44.834 -10.5 66.501s-2.5 40.834 -2.5 57.501
c0 17.333 1.33301 39.666 4 66.999s9.66699 56.5 21 87.5s28.166 62.167 50.499 93.5s53 59.5 92 84.5s87.667 45.5 146 61.5s129.166 24 212.499 24c116.667 0 215.667 -12.167 297 -36.5s147.333 -58.5 198 -102.5s87.334 -97 110.001 -159s34 -130.667 34 -206z" />
    <glyph glyph-name="at" unicode="@" horiz-adv-x="1757" 
d="M1696 547c0 -3.33301 -0.496094 -15 -1.49609 -35s-3.83301 -44.5 -8.5 -73.5s-11.834 -60.667 -21.501 -95s-23.5 -67.833 -41.5 -100.5s-40.5 -62.667 -67.5 -90s-60.167 -48.333 -99.5 -63l-422 29c0 14 0.333008 28.167 1 42.5s1 28.166 1 41.499
c-23.333 -10.667 -46.666 -18.667 -69.999 -24s-44.333 -9.33301 -63 -12c-22 -2.66699 -43 -4.33398 -63 -5.00098c-39.333 0 -79.5 5.33301 -120.5 16s-78.167 26.834 -111.5 48.501s-60.666 48.834 -81.999 81.501s-32 70.667 -32 114c0 88 32 157.167 96 207.5
s158.667 75.5 284 75.5c16 -0.666992 32.667 -2.33398 50 -5.00098c14.667 -2 31.167 -5 49.5 -9s36.5 -9.66699 54.5 -17l-6 69h227c-11.333 -68 -19.5 -136 -24.5 -204s-7.5 -136.333 -7.5 -205c0 -15.333 0.166992 -30.666 0.5 -45.999s1.5 -30.666 3.5 -45.999
c30 -4 61.333 -6 94 -6c34.667 0 68.667 2 102 6c8.66699 52 14.667 104.167 18 156.5s5 104.5 5 156.5c0 51.333 -1.66699 102.5 -5 153.5s-9.33301 102.167 -18 153.5c-66 3.33301 -131.833 5.83301 -197.5 7.5s-131.5 2.5 -197.5 2.5c-112 0 -223.167 -2.33301 -333.5 -7
s-221.833 -11 -334.5 -19c-6 -62.667 -10.833 -124.834 -14.5 -186.501s-5.5 -123.834 -5.5 -186.501c0 -68 1.83301 -135.167 5.5 -201.5s8.5 -133.5 14.5 -201.5c79.333 -12.667 158 -22.334 236 -29.001s156.333 -10 235 -10c26 0 51.667 0.333008 77 1
s49.666 1.66699 72.999 3l-2 -197c-112.667 0 -212 8.5 -298 25.5s-160.667 39.5 -224 67.5s-116.833 60 -160.5 96s-79.5 72.833 -107.5 110.5s-49.667 74.667 -65 111s-26.5 69 -33.5 98s-11.167 52.833 -12.5 71.5s-2 29 -2 31c0 83.333 11.167 157.166 33.5 221.499
s52.833 120.333 91.5 168s84 87.667 136 120s108 58.333 168 78s122.333 33.834 187 42.501s129 13 193 13c51.333 0 107.166 -3.5 167.499 -10.5s120.666 -18.667 180.999 -35s118.666 -38.166 174.999 -65.499s106.166 -61.166 149.499 -101.499s78 -88 104 -143
s39.333 -118.167 40 -189.5zM809.004 319c39.333 0 77.5 0.999023 114.5 2.99902s74.5 4.66699 112.5 8v107.5c0 35.667 -0.666992 71.5 -2 107.5h-51c-38 0 -75.333 -0.833008 -112 -2.5s-73.667 -4.16699 -111 -7.5c-8.66699 -17.333 -14.667 -34.666 -18 -51.999
s-5 -34.333 -5 -51c0 -18.667 1.66699 -37.167 5 -55.5s9.33301 -36.5 18 -54.5c7.33301 0 15.5 -0.5 24.5 -1.5s17.167 -1.5 24.5 -1.5z" />
    <glyph glyph-name="A" unicode="A" horiz-adv-x="1542" 
d="M1360 -61l-129.494 17.501c-37 5 -71.667 9 -104 12s-63.833 5.16699 -94.5 6.5s-64 2 -100 2c17.333 58 32.166 117.333 44.499 178s22.166 123 29.499 187c-40 1.33301 -81 2.33301 -123 3s-83.667 1 -125 1c-84.667 0 -166 -2 -244 -6
c3.33301 -60 8 -119.833 14 -179.5s13.667 -119.167 23 -178.5l-127 -9c-37.333 -2.66699 -70.333 -5.16699 -99 -7.5s-53.334 -4.66602 -74.001 -6.99902s-38.334 -4.5 -53.001 -6.5c-34 -4.66699 -57 -9 -69 -13c-8.66699 43.333 -15.834 89 -21.501 137
s-10 95.833 -13 143.5s-5.16699 94.167 -6.5 139.5s-2 87.333 -2 126c0 80.667 3.16699 161.667 9.5 243s18.333 159.666 36 234.999s42.167 145.5 73.5 210.5s72.333 121.667 123 170s112 86.333 184 114s157.333 41.5 256 41.5c101.333 0 194.333 -15.5 279 -46.5
s157.5 -78.833 218.5 -143.5s108.333 -146.834 142 -246.501s50.5 -218.167 50.5 -355.5c0 -35.333 -0.833008 -79.333 -2.5 -132s-5.83398 -112 -12.501 -178s-16.5 -137.833 -29.5 -215.5s-30.833 -158.5 -53.5 -242.5zM688.006 600.001
c58 0 115.832 1.16797 173.499 3.50098s112.5 6.5 164.5 12.5c1.33301 15.333 2 30.833 2 46.5v48.5c0 101.333 -4.5 199 -13.5 293s-22.167 181.333 -39.5 262c-15.333 1.33301 -32.166 2.33301 -50.499 3s-37.833 1 -58.5 1c-27.333 0 -55.5 -0.5 -84.5 -1.5
s-57.333 -2.33301 -85 -4s-54.167 -3.83398 -79.5 -6.50098s-47.333 -5.66699 -66 -9c-14.667 -106 -25.5 -212.5 -32.5 -319.5s-10.5 -215.5 -10.5 -325.5c28.667 -2 58.167 -3.16699 88.5 -3.5s60.833 -0.5 91.5 -0.5z" />
    <glyph glyph-name="B" unicode="B" horiz-adv-x="1505" 
d="M1473 389c0 -63.333 -12.3418 -118.836 -37.0088 -166.503s-57.5 -88.834 -98.5 -123.501s-88.5 -63.167 -142.5 -85.5s-110.167 -40.166 -168.5 -53.499s-117 -22.666 -176 -27.999s-114.5 -8 -166.5 -8c-65.333 0 -125.166 1.83301 -179.499 5.5s-104.5 9 -150.5 16
s-88.5 15.667 -127.5 26s-76.167 21.833 -111.5 34.5c6 122.667 10.833 241.667 14.5 357s5.5 231.333 5.5 348c0 116 -1.83301 233.167 -5.5 351.5s-8.5 241.5 -14.5 369.5c91.333 20.667 183.833 37 277.5 49s190.167 18 289.5 18c40.667 0 86.334 -2.16699 137.001 -6.5
s102 -12.333 154 -24s102.833 -27.5 152.5 -47.5s93.834 -45.667 132.501 -77s69.667 -68.666 93 -111.999s35 -94.333 35 -153c0 -1.33301 -0.333008 -7.16602 -1 -17.499s-3.16699 -23.833 -7.5 -40.5s-10.666 -35.5 -18.999 -56.5s-20.166 -42.667 -35.499 -65
s-34.666 -44.333 -57.999 -66s-51.666 -41.5 -84.999 -59.5c46.667 -18 86.334 -38.833 119.001 -62.5s59.834 -48.667 81.501 -75s38.667 -52.666 51 -78.999s21.5 -50.833 27.5 -73.5s9.83301 -42.334 11.5 -59.001s2.5 -28.667 2.5 -36zM1033.99 167.997
c3.33301 35.333 5.83496 71.1641 7.50195 107.497s2.5 73.5 2.5 111.5c0 36 -0.833008 71.833 -2.5 107.5s-4.16699 71.5 -7.5 107.5c-28 10.667 -60.5 19.834 -97.5 27.501s-75.667 13.834 -116 18.501s-80.833 8.16699 -121.5 10.5s-78.334 3.5 -113.001 3.5h-43
c-5.33301 -39.333 -9.5 -79 -12.5 -119s-4.5 -81 -4.5 -123c0 -45.333 1.5 -90.666 4.5 -135.999s7.16699 -90 12.5 -134c30 0 65.5 0.166992 106.5 0.5s83.667 1 128 2s88.666 2.66699 132.999 5s85.5 5.83301 123.5 10.5zM951.993 855.995
c4.66699 30 7.99902 61.832 9.99902 95.499s3 68.167 3 103.5c0 36.667 -1.16699 73.5 -3.5 110.5s-6.16602 73.167 -11.499 108.5c-26.667 2 -58.5 3.83301 -95.5 5.5s-75.5 2.5 -115.5 2.5c-36 0 -71 -0.5 -105 -1.5s-64.333 -3.16699 -91 -6.5
c-4 -31.333 -7.16699 -63.5 -9.5 -96.5s-3.5 -67.167 -3.5 -102.5c0 -37.333 1.16699 -74.5 3.5 -111.5s5.5 -74.167 9.5 -111.5h47c18.667 0 38.667 0.166992 60 0.5l67 1c23.333 0.333008 46.333 0.5 69 0.5c52 0.666992 107.333 1.33398 166 2.00098z" />
    <glyph glyph-name="C" unicode="C" horiz-adv-x="1649" 
d="M1616 870c-43.333 0 -84.3301 -0.495117 -122.997 -1.49512s-77.334 -2.5 -116.001 -4.5s-78.334 -4.66699 -119.001 -8s-84 -7.33301 -130 -12c6.66699 34 11.5 70.667 14.5 110s4.5 79.666 4.5 120.999c0 25.333 -0.5 50.666 -1.5 75.999s-3.16699 49.333 -6.5 72
c-48 13.333 -102.333 23.166 -163 29.499s-121.667 9.5 -183 9.5c-43.333 0 -85.333 -1.5 -126 -4.5s-78 -7.16699 -112 -12.5c-13.333 -81.333 -23.166 -164.5 -29.499 -249.5s-9.5 -171.167 -9.5 -258.5c0 -93.333 3.33301 -186 10 -278s16.334 -183 29.001 -273
c24.667 -8.66699 52.667 -16.334 84 -23.001s64 -12.334 98 -17.001s68.5 -8.33398 103.5 -11.001s68.833 -4 101.5 -4c22.667 0 44.5 0.5 65.5 1.5s40.833 3.16699 59.5 6.5c9.33301 40 16.833 84.5 22.5 133.5s8.5 98.167 8.5 147.5c0 39.333 -2 77.666 -6 114.999
c53.333 -5.33301 104.166 -9.16602 152.499 -11.499s97.833 -3.5 148.5 -3.5c65.333 0 137 2 215 6c-12.667 -72.667 -31.667 -137 -57 -193s-54.833 -105 -88.5 -147s-70.334 -78 -110.001 -108s-80.334 -55 -122.001 -75s-83.167 -36 -124.5 -48s-80.166 -21 -116.499 -27
s-69.333 -9.83301 -99 -11.5s-53.5 -2.5 -71.5 -2.5c-106.667 0 -199.5 10.667 -278.5 32s-146.5 50.333 -202.5 87s-102.167 79.334 -138.5 128.001s-64.833 100.5 -85.5 155.5s-35 111.5 -43 169.5s-12 114.333 -12 169c0 124.667 15.667 237 47 337
s80.166 186 146.499 258s150.833 128.833 253.5 170.5s225.334 66.5 368.001 74.5c92 0 179.667 -13.667 263 -41s158.166 -67.333 224.499 -120s121.833 -118 166.5 -196s74 -167.333 88 -268z" />
    <glyph glyph-name="D" unicode="D" horiz-adv-x="1542" 
d="M1026 246c13.333 70 23.1689 143.501 29.502 220.501s9.5 155.5 9.5 235.5c0 84.667 -3.33301 168.834 -10 252.501s-16.334 164.167 -29.001 241.5c-37.333 10.667 -78 20 -122 28c-38 7.33301 -82.167 14 -132.5 20s-104.833 9 -163.5 9h-35
c-12 0 -24 -0.666992 -36 -2v-58c0 -27.333 0.166992 -60.833 0.5 -100.5s0.666016 -84.334 0.999023 -134.001s0.833008 -101.834 1.5 -156.501s1.66699 -110.667 3 -168s3 -114 5 -170s4.16699 -109.833 6.5 -161.5s5.16602 -99.167 8.49902 -142.5
c61.333 2.66699 119.833 8.66699 175.5 18s104.834 19 147.501 29c50 12 96.667 25 140 39zM430.003 1493c78.667 0 159.504 -3.99805 242.504 -11.998s163.667 -22.333 242 -43s152.5 -49 222.5 -85s131.167 -81.667 183.5 -137s93.833 -121.833 124.5 -199.5
s46 -168.834 46 -273.501c0 -101.333 -13.333 -191.333 -40 -270s-62.834 -147.834 -108.501 -207.501s-99.167 -110.167 -160.5 -151.5s-126.833 -75 -196.5 -101s-141.834 -44.833 -216.501 -56.5s-148 -17.5 -220 -17.5c-70 0 -131.667 1.5 -185 4.5
s-98.666 6.16699 -135.999 9.5c-43.333 4 -81 8.66699 -113 14c8 130.667 15 261 21 391s9 260.667 9 392c0 64.667 -0.833008 126.334 -2.5 185.001s-3.83398 116.667 -6.50098 174s-5.83398 115.166 -9.50098 173.499l-11.5 185.5
c55.333 10.667 109.666 17.5 162.999 20.5s104 4.5 152 4.5z" />
    <glyph glyph-name="E" unicode="E" horiz-adv-x="1268" 
d="M1059 631c-43.333 3.33301 -86.667 5.83008 -130 7.49707s-86.666 2.5 -129.999 2.5c-42 0 -84 -0.833008 -126 -2.5s-84.667 -4.16699 -128 -7.5v-168c0 -40 0.333008 -78.5 1 -115.5s1.66699 -71.5 3 -103.5c43.333 1.33301 89.5 2 138.5 2h148.5
c50 0 98 -0.166992 144 -0.5s87 -0.5 123 -0.5c41.333 -0.666992 80.666 -1 117.999 -1c-0.666992 -9.33301 -1.33398 -19.666 -2.00098 -30.999c-0.666992 -9.33301 -1.16699 -20.666 -1.5 -33.999s-0.5 -28 -0.5 -44c0 -20.667 0.5 -43 1.5 -67s2.5 -48.667 4.5 -74
c-26 1.33301 -52.5 2 -79.5 2h-78.5c-159.333 0 -317.166 -2.5 -473.499 -7.5s-313.833 -12.833 -472.5 -23.5c0 20 0.333008 48 1 84s1.5 78.167 2.5 126.5s2.33301 101.333 4 159s3.16699 117.834 4.5 180.501s2.83301 126.667 4.5 192s3 129.833 4 193.5
s1.83301 125 2.5 184s1 113.833 1 164.5c0 48.667 -0.166992 91.834 -0.5 129.501s-1.5 69.167 -3.5 94.5c68.667 0 137.334 -0.5 206.001 -1.5s138 -1.5 208 -1.5c105.333 0 211 1.66699 317 5s214.667 10.666 326 21.999c-3.33301 -22.667 -5.5 -44.5 -6.5 -65.5
s-1.5 -40.833 -1.5 -59.5c0 -18 0.333008 -34.5 1 -49.5s1.66699 -27.833 3 -38.5c1.33301 -12 2.66602 -23 3.99902 -33c-78 -4 -155 -7.33301 -231 -10c-32.667 -1.33301 -66.5 -2.5 -101.5 -3.5l-105 -3c-35 -1 -69 -1.83301 -102 -2.5s-63.5 -1 -91.5 -1
c-1.33301 -32 -3 -66.667 -5 -104l-4.5 -113c-1.66699 -43.333 -3.16699 -90 -4.5 -140c81.333 1.33301 163.5 4 246.5 8s170.167 9.66699 261.5 17c-2 -25.333 -3.83301 -50.833 -5.5 -76.5s-2.5 -52.167 -2.5 -79.5c0 -18 0.5 -36.333 1.5 -55s3.16699 -37.667 6.5 -57z
" />
    <glyph glyph-name="F" unicode="F" horiz-adv-x="1241" 
d="M1206 1227c-50 3.33301 -102.671 6.16699 -158.004 8.5s-111.666 3.5 -168.999 3.5c-110.667 0 -220 -4 -328 -12c-3.33301 -60.667 -5.83301 -131.167 -7.5 -211.5s-2.5 -164.166 -2.5 -251.499c12 -1.33301 24.167 -1.66602 36.5 -0.999023s25.166 1 38.499 1
c62 0 124.333 1.66699 187 5s127.334 9 194.001 17c-3.33301 -22.667 -5.5 -44.834 -6.5 -66.501s-1.5 -43.834 -1.5 -66.501s0.5 -45.167 1.5 -67.5s3.16699 -44.833 6.5 -67.5c-46 6 -92 10.667 -138 14s-92 5 -138 5c-30 0 -60 -0.5 -90 -1.5s-60 -2.83301 -90 -5.5
c0 -76 0.166992 -147.667 0.5 -215s1.16602 -127 2.49902 -179c0.666992 -60.667 1.66699 -117 3 -169c-39.333 0 -77.5 -0.333008 -114.5 -1s-74 -1.83398 -111 -3.50098s-74.667 -3.83398 -113 -6.50098s-78.5 -6.33398 -120.5 -11.001
c12.667 96.667 22.834 195.334 30.501 296.001s13.5 201.834 17.5 303.501s6.5 202.834 7.5 303.501s1.5 199 1.5 295v340c60.667 -3.33301 122.834 -5.83301 186.501 -7.5s128.5 -2.5 194.5 -2.5c112.667 0 226.834 2.33301 342.501 7s233.834 11 354.501 19z" />
    <glyph glyph-name="G" unicode="G" horiz-adv-x="1647" 
d="M1618 743c-3.33301 -98.667 -17 -185.672 -41 -261.005s-54.5 -140.666 -91.5 -195.999s-79 -102.166 -126 -140.499s-95.167 -69.833 -144.5 -94.5s-97.666 -43.834 -144.999 -57.501s-90.333 -23.667 -129 -30s-71 -10 -97 -11s-41.667 -1.5 -47 -1.5
c-93.333 0 -176.166 9 -248.499 27s-135.833 43.333 -190.5 76s-100.834 71.834 -138.501 117.501s-68.334 96.334 -92.001 152.001s-40.667 115.5 -51 179.5s-15.5 130.333 -15.5 199c0 114.667 17.333 219.167 52 313.5s85.5 176 152.5 245s149.5 123.833 247.5 164.5
s210.333 64.667 337 72c60 0 118.833 -4.16699 176.5 -12.5s112.334 -22 164.001 -41s99.834 -43.5 144.501 -73.5s84.334 -66.5 119.001 -109.5s63.667 -93.333 87 -151s39.333 -123.167 48 -196.5c-41.333 -1.33301 -80.833 -3.5 -118.5 -6.5
s-74.834 -6.66699 -111.501 -11s-73.834 -9.16602 -111.501 -14.499l-119.5 -17c5.33301 23.333 9.16602 49.5 11.499 78.5s3.5 58.833 3.5 89.5c0 36 -1.5 72.167 -4.5 108.5s-7.83301 70.5 -14.5 102.5c-34.667 5.33301 -75 9 -121 11s-93.667 3 -143 3
c-55.333 0 -109.333 -1 -162 -3s-99 -5.66699 -139 -11c-19.333 -89.333 -34 -184.333 -44 -285s-15 -203.667 -15 -309c0 -76 2.5 -151.333 7.5 -226s12.5 -148 22.5 -220c19.333 -2 41 -3.5 65 -4.5s49.667 -1.5 77 -1.5c38 0 78 1 120 3s83.5 4.83301 124.5 8.5
s81 8.33398 120 14.001s74.5 12.167 106.5 19.5c2 18.667 3.83301 39.667 5.5 63s2.5 47.333 2.5 72c0 22.667 -0.5 44.834 -1.5 66.501s-3.16699 41.167 -6.5 58.5c-49.333 -0.666992 -97 -2.33398 -143 -5.00098l-60.5 -4c-21 -1.33301 -41.5 -2.83301 -61.5 -4.5
s-38.833 -3.5 -56.5 -5.5s-33.5 -4 -47.5 -6c14 64 21 130.333 21 199v33.5c0 11 -0.666992 22.167 -2 33.5c126.667 -8 255.667 -12 387 -12c70.667 0 142 1 214 3s146.667 5 224 9z" />
    <glyph glyph-name="H" unicode="H" horiz-adv-x="1544" 
d="M1438 1466c-12.667 -206 -22 -409.998 -28 -611.998s-9 -404 -9 -606v-135c0 -44.667 0.666992 -90 2 -136c-37.333 0 -76.333 -0.5 -117 -1.5s-78 -2.16699 -112 -3.5c-40 -2 -79 -3.66699 -117 -5c5.33301 82.667 9.83301 165.167 13.5 247.5s6.5 165.166 8.5 248.499
c-11.333 0 -22.666 0.333008 -33.999 1s-23 1 -35 1c-68.667 0 -140.334 -3.33301 -215.001 -10s-147 -13.667 -217 -21c3.33301 -76.667 7 -152.834 11 -228.501s9 -151.834 15 -228.501c-30.667 1.33301 -60 2.5 -88 3.5s-56 1.5 -84 1.5c-52 0 -104.167 -1.5 -156.5 -4.5
s-108.833 -6.5 -169.5 -10.5c13.333 124.667 23.5 248.834 30.5 372.501s10.5 248.834 10.5 375.501c0 124.667 -3.5 248.667 -10.5 372s-17.167 249 -30.5 377c40 0 78.167 0.333008 114.5 1s73.333 1.66699 111 3s77.5 3.5 119.5 6.5l141 10.5
c-7.33301 -106 -13 -212.167 -17 -318.5s-6 -213.166 -6 -320.499v-174h66c72.667 0 147.334 1.5 224.001 4.5s152 7.5 226 13.5c0 39.333 0.333008 78.666 1 117.999s1 78.666 1 117.999c0 88.667 -0.833008 177 -2.5 265s-4.16699 176.333 -7.5 265h95
c25.333 0 50.166 0.333008 74.499 1s51 1.66699 80 3s66.167 3.33301 111.5 6z" />
    <glyph glyph-name="I" unicode="I" horiz-adv-x="969" 
d="M930 1243c-86 4 -171.333 5.99609 -256 5.99609h-6c0 -28 -0.166992 -67.167 -0.5 -117.5s-0.5 -106.666 -0.5 -168.999s-0.333008 -128.166 -1 -197.499s-1 -136.666 -1 -201.999s-0.166992 -126.166 -0.5 -182.499s-0.5 -103.166 -0.5 -140.499h219v-252h-828v252h178
c1.33301 34.667 2.83301 76.667 4.5 126l5.5 160l6.5 180c2.33301 62.667 4.33301 125.167 6 187.5s3.16699 122.833 4.5 181.5s2 112.667 2 162c-32 -1.33301 -63.667 -2.83301 -95 -4.5s-63 -3.5 -95 -5.5l5.5 80.5c1.66699 25 2.5 49.833 2.5 74.5
c0 19.333 -0.5 38.833 -1.5 58.5s-3.16699 41.167 -6.5 64.5c48 -3.33301 102.333 -5.5 163 -6.5s123 -1.5 187 -1.5s126.167 0.333008 186.5 1s114.5 1.66699 162.5 3c56 1.33301 109 2.66602 159 3.99902v-262z" />
    <glyph glyph-name="J" unicode="J" horiz-adv-x="1376" 
d="M1280 692c-1.33301 -100 -15.498 -194.499 -42.498 -283.499s-67.833 -167.167 -122.5 -234.5s-123.334 -120.666 -206.001 -159.999s-180.334 -59 -293.001 -59c-98 0 -183.833 12.167 -257.5 36.5s-134.834 62 -183.501 113s-85.167 116.167 -109.5 195.5
s-36.5 174 -36.5 284c0 24.667 0.5 49.667 1.5 75s3.16699 50.666 6.5 75.999l102 -5.5c30 -1.66699 59.333 -2.5 88 -2.5c29.333 0 59.333 1 90 3s67 5 109 9c-1.33301 -30.667 -2.33301 -62 -3 -94c-1.33301 -28 -2.16602 -59.167 -2.49902 -93.5s-0.5 -68.5 -0.5 -102.5
c0 -40 0.5 -77.333 1.5 -112s3.16699 -60.334 6.5 -77.001c27.333 0 58.833 0.333008 94.5 1s72.5 1.83398 110.5 3.50098s75.667 3.66699 113 6s71.333 5.16602 102 8.49902c12 78 20.5 163 25.5 255s7.5 186.333 7.5 283c0 75.333 -1 150 -3 224s-4.66699 145.333 -8 214
c-19.333 0 -40.666 -0.5 -63.999 -1.5s-47.166 -2.5 -71.499 -4.5s-48.333 -4.66699 -72 -8s-45.834 -7.33301 -66.501 -12l-18 276c76.667 -4 153 -6 229 -6c68 0 136.667 1.5 206 4.5s142.666 7.83301 219.999 14.5c9.33301 -110.667 17 -215.5 23 -314.5
s10.667 -186.833 14 -263.5c4 -89.333 7.33301 -172 10 -248z" />
    <glyph glyph-name="K" unicode="K" horiz-adv-x="1491" 
d="M1028 -53c-70 106 -146.332 213.334 -228.999 322.001l-248 333v-620l-436 -19c9.33301 130.667 16.666 261.667 21.999 393s8 264.666 8 399.999c0 238.667 -10 476.667 -30 714h436v-686l655 686l291 -71l-584 -631l249.5 -330l183.5 -237l151 -191z" />
    <glyph glyph-name="L" unicode="L" horiz-adv-x="1174" 
d="M1157 -35c-91.333 6 -183.335 10.667 -276.002 14s-185.667 5 -279 5c-79.333 0 -158.666 -1.33301 -237.999 -4s-159.666 -7.66699 -240.999 -15c5.33301 120 9.33301 239.167 12 357.5s4 237.5 4 357.5c0 134 -1.33301 267.5 -4 400.5s-6.66699 264.5 -12 394.5h442
l-8 -461c-1.33301 -64 -2.33301 -130 -3 -198s-1.5 -135 -2.5 -201s-1.66699 -129.167 -2 -189.5s-0.5 -114.833 -0.5 -163.5l608 17v-314z" />
    <glyph glyph-name="M" unicode="M" horiz-adv-x="1974" 
d="M1513 -35c-2.66699 15.333 -6.33203 43.3291 -10.999 83.9961s-9.83398 88.667 -15.501 144l-18.5 182c-6.66699 66 -13 132.333 -19 199c-15.333 156 -31.333 328 -48 516l-219 -1098l-428 -27l-102 430l-42.5 182.5l-42 185l-38 172.5
c-11.667 54.667 -21.5 103.334 -29.5 146.001c-2.66699 -36 -6.16699 -79.5 -10.5 -130.5l-14 -165l-16 -183.5c-5.66699 -63.333 -11.5 -125.333 -17.5 -186l-43 -451h-354c39.333 247.333 73.5 494 102.5 740s50.833 495.667 65.5 749l582 31l237 -1086l81 402l32.5 175
c11 60.667 21.167 120.834 30.5 180.501l26 173.5c8 56 14.333 107.667 19 155h553c13.333 -245.333 32.333 -490.666 57 -735.999s56 -493.666 94 -744.999z" />
    <glyph glyph-name="N" unicode="N" horiz-adv-x="1655" 
d="M1593 1542c-22.667 -200 -42.665 -396.003 -59.998 -588.003l-22 -255c-7.33301 -88 -14 -175 -20 -261s-11 -169.167 -15 -249.5s-6 -153.5 -6 -219.5c-50 -5.33301 -97.167 -9 -141.5 -11s-89.166 -3 -134.499 -3c-23.333 0 -47.666 0.333008 -72.999 1
s-51.666 1.66699 -78.999 3l-567 1165c0.666992 -46 1.5 -97.667 2.5 -155s2.16699 -117.166 3.5 -179.499s2.83301 -125.833 4.5 -190.5s3.16699 -127 4.5 -187c2.66699 -141.333 6 -286.333 10 -435c-40.667 0 -82.667 -0.666992 -126 -2
c-37.333 -1.33301 -78.833 -3.16602 -124.5 -5.49902s-91.167 -5.83301 -136.5 -10.5c4.66699 66.667 8.66699 142.167 12 226.5s6.16602 173 8.49902 266s4.16602 187.5 5.49902 283.5s2 189 2 279c0 93.333 -0.833008 180.333 -2.5 261s-3.5 149.334 -5.5 206.001
c54 -4 105.667 -6.83301 155 -8.5s98.666 -2.5 147.999 -2.5c50 0 100.167 0.833008 150.5 2.5s103.166 4.5 158.499 8.5c30 -84.667 63.333 -166 100 -244l113.5 -231.5l117.5 -230c39.333 -77 77.333 -156.5 114 -238.5c0 44 0.5 92 1.5 144s2.16699 105.667 3.5 161
l4 167c1.33301 56 3 110 5 162c3.33301 121.333 7.66602 245 12.999 371c36.667 -3.33301 69.167 -5.83301 97.5 -7.5s56.5 -2.5 84.5 -2.5s57 0.833008 87 2.5s65.667 4.16699 107 7.5z" />
    <glyph glyph-name="O" unicode="O" horiz-adv-x="1589" 
d="M1044 236c4 40 7.66797 83.999 11.001 131.999s6 97 8 147s3.5 99.167 4.5 147.5s1.5 92.5 1.5 132.5c0 76.667 -2 156.5 -6 239.5s-10.333 162.833 -19 239.5c-10 0.666992 -22 1.33398 -36 2.00098s-28.5 1.16699 -43.5 1.5s-29.5 0.5 -43.5 0.5h-36
c-30 0 -61.833 -0.666992 -95.5 -2s-67.834 -3.5 -102.501 -6.5s-68.834 -6.66699 -102.501 -11s-65.5 -9.5 -95.5 -15.5c0 -14.667 -0.166992 -33.5 -0.5 -56.5s-0.5 -46.667 -0.5 -71s-0.166992 -47.666 -0.5 -69.999s-0.5 -40.5 -0.5 -54.5
c0 -124.667 4.16699 -251.334 12.5 -380.001s20.833 -253.667 37.5 -375c16.667 -2.66699 35.5 -5 56.5 -7s42.5 -3.5 64.5 -4.5s43.667 -1.83301 65 -2.5s40.333 -1 57 -1c18.667 0 39.334 0.333008 62.001 1s45.667 1.5 69 2.5s46.5 2.5 69.5 4.5s44.167 4.33301 63.5 7z
M1532 722.999c0 -109.333 -18.335 -211.002 -55.002 -305.002s-88.667 -175.5 -156 -244.5s-148.166 -123.333 -242.499 -163s-199.166 -59.5 -314.499 -59.5c-50 0 -102 5.83301 -156 17.5s-107 30.667 -159 57s-101.5 60.5 -148.5 102.5s-88.167 93.333 -123.5 154
s-63.5 131.334 -84.5 212.001s-31.5 172.667 -31.5 276c0 101.333 11.833 190 35.5 266s54.834 141.167 93.501 195.5s83.167 99.166 133.5 134.499s102.166 63.333 155.499 84s106 35 158 43s99.667 12 143 12c67.333 0 132.5 -6.16699 195.5 -18.5
s122.167 -31.666 177.5 -57.999s106 -60.166 152 -101.499s85.667 -91 119 -149s59.5 -124.667 78.5 -200s28.833 -160.333 29.5 -255z" />
    <glyph glyph-name="P" unicode="P" horiz-adv-x="1356" 
d="M1331 956c0 -102 -19.1689 -190.337 -57.502 -265.004s-92.166 -137.167 -161.499 -187.5s-152.833 -89.5 -250.5 -117.5s-205.834 -46 -324.501 -54c5.33301 -54 10.5 -109.167 15.5 -165.5s11.167 -115.833 18.5 -178.5l-473 -33
c13.333 171.333 23.833 341.833 31.5 511.5s11.5 340.5 11.5 512.5c0 44.667 -0.166992 85.334 -0.5 122.001s-1 72.334 -2 107.001s-2.5 70.334 -4.5 107.001l-7 123c80.667 24.667 162.834 42.334 246.501 53.001s170.167 16 259.5 16c44.667 0 93 -2.33301 145 -7
s103.833 -14 155.5 -28s101.334 -33.5 149.001 -58.5s90 -57.833 127 -98.5s66.5 -90.5 88.5 -149.5s33 -128.833 33 -209.5zM499.998 1296c0 -63.333 0.170898 -125.166 0.503906 -185.499s1.16602 -120.333 2.49902 -180s3.16602 -119.834 5.49902 -180.501
s5.5 -123 9.5 -187h37c58.667 0 117.667 1.83301 177 5.5s115.666 10.167 168.999 19.5c9.33301 36 16.166 81.333 20.499 136s6.5 113 6.5 175c0 38.667 -1 77.667 -3 117s-4.66699 77 -8 113s-7.83301 69.5 -13.5 100.5s-11.834 57.5 -18.501 79.5
c-9.33301 1.33301 -20.166 2.33301 -32.499 3s-26.166 1 -41.499 1c-30.667 0 -63.834 -1 -99.501 -3s-69.5 -4 -101.5 -6z" />
    <glyph glyph-name="Q" unicode="Q" horiz-adv-x="1589" 
d="M1532 723c0 -67.333 -7.16699 -131.835 -21.5 -193.502s-34.833 -119.5 -61.5 -173.5s-59.167 -103.667 -97.5 -149s-81.833 -85 -130.5 -119c51.333 -48 99 -97.5 143 -148.5s85.667 -103.167 125 -156.5c-91.333 -19.333 -177 -44.5 -257 -75.5
s-156 -67.167 -228 -108.5c-11.333 64 -24.166 126 -38.499 186s-29.5 120 -45.5 180c-26 -4 -51.833 -7.33301 -77.5 -10s-51.834 -4 -78.501 -4c-50 0 -102 5.83301 -156 17.5s-107 30.667 -159 57s-101.5 60.5 -148.5 102.5s-88.167 93.333 -123.5 154
s-63.5 131.334 -84.5 212.001s-31.5 172.667 -31.5 276c0 101.333 11.833 190 35.5 266s54.834 141.167 93.501 195.5s83.167 99.166 133.5 134.499s102.166 63.333 155.499 84s106 35 158 43s99.667 12 143 12c67.333 0 132.5 -6.16699 195.5 -18.5
s122.167 -31.666 177.5 -57.999s106 -60.166 152 -101.499s85.667 -91 119 -149s59.5 -124.667 78.5 -200s28.833 -160.333 29.5 -255zM1044 235.998c4 40 7.66797 83.999 11.001 131.999s6 97 8 147s3.5 99.167 4.5 147.5s1.5 92.5 1.5 132.5c0 76.667 -2 156.5 -6 239.5
s-10.333 162.833 -19 239.5c-10 0.666992 -22 1.33398 -36 2.00098s-28.5 1.16699 -43.5 1.5s-29.5 0.5 -43.5 0.5h-36c-30 0 -61.833 -0.666992 -95.5 -2s-67.834 -3.5 -102.501 -6.5s-68.834 -6.66699 -102.501 -11s-65.5 -9.5 -95.5 -15.5
c0 -14.667 -0.166992 -33.5 -0.5 -56.5s-0.5 -46.667 -0.5 -71s-0.166992 -47.666 -0.5 -69.999s-0.5 -40.5 -0.5 -54.5c0 -124.667 4.16699 -251.334 12.5 -380.001s20.833 -253.667 37.5 -375c16.667 -2.66699 35.5 -5 56.5 -7s42.5 -3.5 64.5 -4.5
s43.667 -1.83301 65 -2.5s40.333 -1 57 -1c18.667 0 39.334 0.333008 62.001 1s45.667 1.5 69 2.5s46.5 2.5 69.5 4.5s44.167 4.33301 63.5 7z" />
    <glyph glyph-name="R" unicode="R" horiz-adv-x="1417" 
d="M1331 997c0 -52 -8.33496 -100.169 -25.002 -144.502s-40.667 -85 -72 -122s-69.333 -70.5 -114 -100.5s-95 -56.333 -151 -79l442 -547l-463 -51l-291 510c-20.667 -4 -42 -7.66699 -64 -11l-67 -10c5.33301 -68.667 11.833 -140.334 19.5 -215.001l25.5 -239l-473 -33
c13.333 171.333 23.833 341.833 31.5 511.5s11.5 340.5 11.5 512.5c0 44.667 -0.166992 85.334 -0.5 122.001s-1 72.334 -2 107.001s-2.5 70.334 -4.5 107.001l-7 123c80.667 24.667 162.834 42.334 246.501 53.001s170.167 16 259.5 16c44.667 0 93 -3 145 -9
s103.833 -16.333 155.5 -31s101.334 -34.334 149.001 -59.001s90 -56 127 -94s66.5 -83 88.5 -135s33 -112.667 33 -182zM499.998 1296c0 -109.333 0.834961 -214.83 2.50195 -316.497s5.5 -206.167 11.5 -313.5h41c58.667 0 117.667 1.66699 177 5
s115.666 9.66602 168.999 18.999c9.33301 36 16.166 77.167 20.499 123.5s6.5 94.5 6.5 144.5c0 32 -1 64.167 -3 96.5s-4.66699 63.666 -8 93.999s-7.83301 59.166 -13.5 86.499s-11.834 52 -18.501 74c-9.33301 1.33301 -20.166 2.33301 -32.499 3s-26.166 1 -41.499 1
c-30.667 0 -63.834 -1 -99.501 -3s-69.5 -4 -101.5 -6z" />
    <glyph glyph-name="S" unicode="S" horiz-adv-x="1430" 
d="M1384 418c0 -86.667 -17.1641 -159.837 -51.4971 -219.504s-82 -108 -143 -145s-133.5 -63.667 -217.5 -80s-175.333 -24.5 -274 -24.5c-44.667 0 -91 4.16699 -139 12.5s-95.333 21.666 -142 39.999s-91.334 41.5 -134.001 69.5s-80.834 61.833 -114.501 101.5
s-62 85.167 -85 136.5s-37.833 109.333 -44.5 174l436 9c-1.33301 -18.667 -2 -37.667 -2 -57v-60c0 -58 2 -117.333 6 -178c39.333 -4.66699 78.666 -8 117.999 -10s78.666 -3 117.999 -3s78.333 1 117 3s78 5.33301 118 10c3.33301 22.667 6 44.834 8 66.501
s3 43.834 3 66.501c0 36.667 -2.33301 73.667 -7 111s-10.667 74.666 -18 111.999l-161 18c-60.667 6.66699 -122.834 16.5 -186.501 29.5s-126 30.333 -187 52s-115.5 50.334 -163.5 86.001s-86.667 79.5 -116 131.5s-44 115 -44 189c0 51.333 9.5 98 28.5 140
s44.667 79.5 77 112.5s70 61.833 113 86.5s88.333 45 136 61s96.167 28 145.5 36s97 12 143 12c100.667 0 189.334 -15.667 266.001 -47s141.167 -72.166 193.5 -122.499s92.833 -107.166 121.5 -170.499s45.334 -126.666 50.001 -189.999l-457 -49
c3.33301 25.333 5.5 50.833 6.5 76.5s1.5 51.167 1.5 76.5c0 58 -4 116.667 -12 176c-22.667 3.33301 -45.167 5.66602 -67.5 6.99902s-44.833 2 -67.5 2c-90 0 -181 -11 -273 -33c-1.33301 -16.667 -2 -33 -2 -49v-47c0 -46.667 1.83301 -92.5 5.5 -137.5
s10.834 -90.167 21.501 -135.5l180 -23.5c64.667 -8.33301 129.5 -19.333 194.5 -33s127.667 -30.667 188 -51s113.666 -45.666 159.999 -75.999s83.5 -67 111.5 -110s42 -93.833 42 -152.5z" />
    <glyph glyph-name="T" unicode="T" horiz-adv-x="1262" 
d="M1243 1219c-49.333 0 -99.168 0.333008 -149.501 1s-101.5 1 -153.5 1h-88c0 -205.333 1.33301 -411 4 -617s9.66699 -412 21 -618h-455l20 448l8 197l8 205c2.66699 68 4.83398 134.167 6.50098 198.5l4.5 179.5c-76.667 -2 -152.167 -4.33301 -226.5 -7
s-149.166 -5.66699 -224.499 -9v299c105.333 -4 209.833 -6.66699 313.5 -8s208.167 -2 313.5 -2c101.333 0 201.666 0.666992 300.999 2s198.333 4 297 8v-278z" />
    <glyph glyph-name="U" unicode="U" horiz-adv-x="1552" 
d="M1460 748c-0.666992 -71.333 -6.00293 -140.333 -16.0029 -207s-26 -129.667 -48 -189s-50.667 -113.5 -86 -162.5s-78.333 -91.167 -129 -126.5s-109.667 -62.833 -177 -82.5s-144 -29.5 -230 -29.5c-101.333 0 -193.666 14.5 -276.999 43.5
s-154.666 75.667 -213.999 140s-105.333 148.166 -138 251.499s-49 229.333 -49 378c0 78 2 152.5 6 223.5s9.66699 136.167 17 195.5s15.833 112.5 25.5 159.5s20.167 85.5 31.5 115.5h393c-2.66699 -16 -6.5 -44 -11.5 -84s-10 -87 -15 -141s-9.33301 -112.5 -13 -175.5
s-5.5 -124.833 -5.5 -185.5c0 -56.667 0.833008 -115 2.5 -175s4.33398 -118.5 8.00098 -175.5s8.33398 -111 14.001 -162s12.5 -95.833 20.5 -134.5c29.333 -4 62 -7 98 -9s73 -3 111 -3s75.667 1 113 3s72 5 104 9c5.33301 38.667 9.66602 83.334 12.999 134.001
s6 104.334 8 161.001s3.5 114.834 4.5 174.501s1.5 117.5 1.5 173.5c0 61.333 -0.666992 119.166 -2 173.499s-3.33301 105.833 -6 154.5s-5.5 94.667 -8.5 138s-6.5 84.666 -10.5 123.999h383c18 -90 32.333 -170.5 43 -241.5s19 -135 25 -192
s9.83301 -107.833 11.5 -152.5s2.5 -86 2.5 -124z" />
    <glyph glyph-name="V" unicode="V" horiz-adv-x="1436" 
d="M1430 1520c-80.667 -257.333 -153.833 -516.331 -219.5 -776.998s-124.5 -519.334 -176.5 -776.001c-62.667 -2.66699 -128.667 -5.33398 -198 -8.00098c-59.333 -2 -126 -3.83301 -200 -5.5s-149.333 -2.5 -226 -2.5l-383 1515l479 31l107 -479l45 -208.5l45 -215
l42 -206c13.333 -66.333 25 -127.5 35 -183.5l62 242l62.5 257.5l59 254l52.5 232.5l41.5 193.5l27.5 135.5h345z" />
    <glyph glyph-name="W" unicode="W" horiz-adv-x="2152" 
d="M2124 1487l-312.001 -1487l-622 -33c-7.33301 63.333 -15.5 130 -24.5 200l-28 210.5l-29.5 207l-28.5 190.5c-9 59.333 -17.5 112.833 -25.5 160.5l-20 117.5c-5.33301 -37.333 -13 -84.666 -23 -141.999l-33 -187.5l-38 -210.5l-38.5 -211.5l-33.5 -190
c-10 -58.333 -18 -106.5 -24 -144.5h-512l-293 1481l473 39l86 -503l33.5 -196.5l31 -183l25.5 -148.5c7.33301 -42.667 13 -74 17 -94c10.667 40.667 21.334 86.5 32.001 137.5l32.5 160.5c11 56 21.667 113.333 32 172l30 172.5l26.5 161l21.5 137.5l15.5 102l8 55l471 27
l71 -440l30.5 -187l31.5 -188l31 -175l27 -147l21.5 147.5l27 175.5l30.5 188l31 186l74 440h375z" />
    <glyph glyph-name="X" unicode="X" horiz-adv-x="1503" 
d="M946 -49l-43.5 68.999l-60 92.5l-73.5 112l-85 127.5l-157 -196l-154 -187l-385 13l260.5 312.5l263.5 319.5l-150 232.5l-144 230l-128 215.5c-39.333 68.667 -73.333 131.667 -102 189h575c10 -21.333 23.667 -47.833 41 -79.5l60.5 -107l76 -129.5l88.5 -147l169 230
c54 76.667 105 154.334 153 233.001h367l-235 -333l-290 -392l131 -200.5l135 -200l134.5 -191.5l128.5 -174z" />
    <glyph glyph-name="Y" unicode="Y" horiz-adv-x="1645" 
d="M1634 1479c-76 -174 -147.672 -322.67 -215.005 -446.003s-126.333 -224.333 -177 -303c-59.333 -92 -114.333 -168 -165 -228c-1.33301 -14.667 -2.33301 -31.5 -3 -50.5s-1 -39.833 -1 -62.5c0 -36.667 0.666992 -76 2 -118s3.16602 -82.667 5.49902 -122
s5 -75.166 8 -107.499s6.16699 -57.166 9.5 -74.499l-557 -10c2.66699 11.333 5.83398 29.833 9.50098 55.5s7.33398 54.667 11.001 87s7 66.5 10 102.5l8.5 101.5c2.66699 31.667 4.83398 59.5 6.50098 83.5s2.83398 40.333 3.50098 49l-92 146.5l-102 167l-108 180
l-108 186l-103.5 185.5l-94.5 178l567 -25c14 -45.333 32 -97.333 54 -156s47 -121.167 75 -187.5s58.667 -134.5 92 -204.5s68 -138.667 104 -206c48 88 94 177.333 138 268l58 122c20 42.667 39.333 86.167 58 130.5s36.334 88.333 53.001 132
s31.334 85.834 44.001 126.501h409z" />
    <glyph glyph-name="Z" unicode="Z" horiz-adv-x="1354" 
d="M1348 1479c-48.667 -107.333 -99.332 -211.33 -151.999 -311.997s-108 -200.334 -166 -299.001s-119.333 -197.334 -184 -296.001l-205 -304c106 0 211.667 2.16699 317 6.5s214.666 11.166 327.999 20.499l-8 -315c-134 -8.66699 -267.833 -14.334 -401.5 -17.001
s-268.834 -4 -405.501 -4c-80.667 0 -161 0.333008 -241 1s-160.667 1.66699 -242 3l146 223.5l154.5 231.5l151.5 229l138.5 216.5c43 69 81.5 134 115.5 195s61.333 115.833 82 164.5c-30.667 2 -62.667 3.16699 -96 3.5s-67.333 0.5 -102 0.5
c-42 0 -84.833 -0.5 -128.5 -1.5s-87.167 -2.16699 -130.5 -3.5s-86.166 -3.16602 -128.499 -5.49902l-122.5 -6.5v269c107.333 -4.66699 214.5 -8.33398 321.5 -11.001s215.5 -4 325.5 -4c104 0 208 1.33301 312 4s211 6.33398 321 11.001z" />
    <glyph glyph-name="bracketleft" unicode="[" horiz-adv-x="928" 
d="M856 -373c-64 3.33301 -127.833 6.00098 -191.5 8.00098s-126.834 3 -189.501 3c-60 0 -119.333 -1 -178 -3s-118 -4.66699 -178 -8c5.33301 164 9.33301 327 12 489s4 324.667 4 488c0 172 -1.33301 343.333 -4 514s-6.66699 342.667 -12 516
c64 -4 127.833 -6.66699 191.5 -8s126.834 -2 189.501 -2c62 0 123 0.666992 183 2s121 4 183 8l-26 -295c-33.333 2 -66.5 3.66699 -99.5 5s-66.167 2 -99.5 2c-34 0 -67 -0.666992 -99 -2s-64.667 -3 -98 -5c-16 -224 -26.833 -447.833 -32.5 -671.5
s-8.5 -446.834 -8.5 -669.501c40 -3.33301 79.833 -5.5 119.5 -6.5s79.167 -1.5 118.5 -1.5c41.333 0 82.333 0.5 123 1.5s81 3.16699 121 6.5z" />
    <glyph glyph-name="backslash" unicode="\" horiz-adv-x="1247" 
d="M434 1450c105.333 -240.667 222.168 -480 350.501 -718s266.833 -476.667 415.5 -716l-379 -51c-108.667 250.667 -227.334 498.5 -356.001 743.5s-268.667 486.167 -420 723.5z" />
    <glyph glyph-name="bracketright" unicode="]" horiz-adv-x="928" 
d="M43 -2c40 -3.33301 80.334 -5.50098 121.001 -6.50098s81.667 -1.5 123 -1.5c39.333 0 78.666 0.5 117.999 1.5s79 3.16699 119 6.5c0 222.667 -2.66699 445.834 -8 669.501s-16.333 447.5 -33 671.5c-32.667 2 -65 3.66699 -97 5s-65 2 -99 2
c-33.333 0 -66.5 -0.666992 -99.5 -2s-66.167 -3 -99.5 -5l-27 295c62 -4 123.167 -6.66699 183.5 -8s121.5 -2 183.5 -2c62.667 0 125.834 0.666992 189.501 2s127.5 4 191.5 8c-5.33301 -173.333 -9.33301 -345.333 -12 -516s-4 -342 -4 -514
c0 -163.333 1.33301 -326 4 -488s6.66699 -325 12 -489c-60 3.33301 -119.5 6 -178.5 8s-118.167 3 -177.5 3c-62.667 0 -125.834 -1 -189.501 -3s-127.5 -4.66699 -191.5 -8z" />
    <glyph glyph-name="asciicircum" unicode="^" horiz-adv-x="1214" 
d="M750 786c-18.667 80.667 -42.833 160 -72.5 238s-66.5 154.333 -110.5 229c-51.333 -66 -97.333 -133.333 -138 -202s-78 -138.334 -112 -209.001l-249 41c72 96.667 140 192.5 204 287.5s124.333 190.833 181 287.5h381c40 -101.333 86.333 -199.666 139 -294.999
s112 -189.333 178 -282z" />
    <glyph glyph-name="underscore" unicode="_" horiz-adv-x="1167" 
d="M1055 -358c-158 6 -315.167 8.5 -471.5 7.5s-313.833 -5.83301 -472.5 -14.5v291c157.333 -3.33301 314.5 -5.5 471.5 -6.5s314.5 3.16699 472.5 12.5v-290z" />
    <glyph glyph-name="grave" unicode="`" horiz-adv-x="496" 
d="M238 1559l258 -381l-136 -35l-360 321z" />
    <glyph glyph-name="a" unicode="a" 
d="M907 -33c0 19.333 -0.333984 38.8311 -1.00098 58.498s-1 39.167 -1 58.5c-35.333 -32 -72.166 -56.167 -110.499 -72.5s-73.5 -28.5 -105.5 -36.5c-37.333 -9.33301 -74.333 -14.666 -111 -15.999c-66.667 0 -130.834 10.167 -192.501 30.5s-116.5 50.833 -164.5 91.5
s-86.833 91.5 -116.5 152.5s-46.167 131.833 -49.5 212.5c0 81.333 11 155.5 33 222.5s55 124.5 99 172.5s98.667 85.167 164 111.5s141 39.833 227 40.5c2.66699 0 12.834 -0.5 30.501 -1.5s39.5 -4 65.5 -9s54.333 -13 85 -24s61 -26.167 91 -45.5l-16 123l395 27
c-8 -191.333 -12 -381.666 -12 -570.999c0 -46 0.166992 -89.5 0.5 -130.5s1 -81.667 2 -122s2.33301 -81 4 -122l5.5 -129.5zM439.999 208.998c79.333 3.33301 157.333 8.66699 234 16s152.334 18.333 227.001 33c-2 82.667 -5.5 162.667 -10.5 240
s-11.833 156.333 -20.5 237h-57c-64.667 0 -129.5 -2.16699 -194.5 -6.5s-130.5 -11.5 -196.5 -21.5c-8 -70 -12 -140.333 -12 -211c0 -26.667 0.666992 -51.5 2 -74.5s3.16602 -45.833 5.49902 -68.5s5.33301 -45.667 9 -69s8.16699 -48.333 13.5 -75z" />
    <glyph glyph-name="b" unicode="b" horiz-adv-x="1331" 
d="M1276 500c0 -56 -6.67285 -107.499 -20.0059 -154.499s-31.666 -89.833 -54.999 -128.5s-50.5 -72.667 -81.5 -102s-64.333 -54 -100 -74s-72.5 -35.167 -110.5 -45.5s-75.333 -15.5 -112 -15.5c-44 1.33301 -87 6.66602 -129 15.999c-18 4 -36.833 9.16699 -56.5 15.5
s-39.167 14.166 -58.5 23.499s-38.166 20.166 -56.499 32.499s-35.166 26.833 -50.499 43.5l4 -61.5c1.33301 -20.333 3 -40.166 5 -59.499h-336c0 240 -3.33301 483 -10 729s-17.667 488.333 -33 727l379 22c-5.33301 -95.333 -9.66602 -191.333 -12.999 -288
s-6 -193.667 -8 -291c15.333 18 32 34 50 48s36.833 26.333 56.5 37s39.334 19.5 59.001 26.5s38.5 12.833 56.5 17.5c42.667 10.667 86 16.667 130 18c76.667 0 145.334 -12.333 206.001 -37s112 -60 154 -106s74.167 -102.167 96.5 -168.5s33.5 -141.166 33.5 -224.499z
M433.994 662.001c0 -68.667 0.501953 -136.832 1.50195 -204.499s2.5 -134.834 4.5 -201.501c25.333 -3.33301 49.166 -6 71.499 -8s44.333 -3.5 66 -4.5s43.167 -1.83301 64.5 -2.5s43.666 -1 66.999 -1c48 0 104 2 168 6c8 60 14.333 119.5 19 178.5s7 118.833 7 179.5
c0 30 -0.5 59.5 -1.5 88.5s-3.16699 58.833 -6.5 89.5c-36 3.33301 -69.333 6 -100 8s-60 3 -88 3c-47.333 0 -92.5 -2.83301 -135.5 -8.5s-88.833 -14.5 -137.5 -26.5v-96z" />
    <glyph glyph-name="c" unicode="c" horiz-adv-x="1221" 
d="M784 664c3.33301 16 5.66992 32.1631 7.00293 48.4961s2 32.833 2 49.5c0 15.333 -0.666992 30.333 -2 45s-3.66602 29.667 -6.99902 45c-28.667 5.33301 -57.667 9 -87 11s-59.666 3 -90.999 3c-30.667 0 -61.667 -1 -93 -3s-63 -5.66699 -95 -11
c-3.33301 -36 -5.83301 -71.333 -7.5 -106s-2.5 -69.667 -2.5 -105c0 -81.333 4.16699 -161.833 12.5 -241.5s19.833 -159.5 34.5 -239.5c30 -3.33301 58.833 -5.5 86.5 -6.5s56.167 -1.5 85.5 -1.5c28.667 0 57 0.5 85 1.5s57 3.16699 87 6.5
c1.33301 14 2.33301 27.667 3 41s1 26.333 1 39c0 12 -0.333008 24 -1 36s-1.66699 23.667 -3 35l377 -8c-18.667 -63.333 -45.5 -117.666 -80.5 -162.999s-76.333 -82.5 -124 -111.5s-100.834 -50.167 -159.501 -63.5s-120.334 -20 -185.001 -20
c-79.333 0 -153.833 10.667 -223.5 32s-130.334 55.833 -182.001 103.5s-92.334 109.834 -122.001 186.501s-44.5 170.667 -44.5 282c0 90 15.667 167.333 47 232s73.166 118 125.499 160s113 72.833 182 92.5s141.5 29.5 217.5 29.5c67.333 0 131.333 -7.83301 192 -23.5
s115.5 -39.667 164.5 -72s90.833 -73.666 125.5 -123.999s59.667 -110.166 75 -179.499h-400z" />
    <glyph glyph-name="d" unicode="d" 
d="M1255 1446c-15.333 -238.667 -26.3271 -480.495 -32.9941 -725.495s-10 -488.5 -10 -730.5h-333l6 112c-32 -30.667 -67.333 -54.334 -106 -71.001s-75.334 -28.667 -110.001 -36c-40.667 -8.66699 -81.334 -13.667 -122.001 -15c-76 0 -144.5 13.667 -205.5 41
s-112.667 65.666 -155 114.999s-74.833 108.666 -97.5 177.999s-34 145.666 -34 228.999c0 55.333 6.66699 106.666 20 153.999s31.666 90.333 54.999 129s50.666 72.667 81.999 102s64.666 54 99.999 74s72 35.167 110 45.5s75.667 15.5 113 15.5
c46 -1.33301 91 -7.33301 135 -18c18.667 -4.66699 38 -10.5 58 -17.5s39.833 -15.5 59.5 -25.5s38.667 -21.667 57 -35s35.166 -29 50.499 -47c-2 92.667 -4.33301 184.5 -7 275.5s-5.66699 181.833 -9 272.5zM764.006 242.005l59.5029 -0.000976562
c21 0 42.833 0.666992 65.5 2c3.33301 68.667 5.5 137.834 6.5 207.501s1.5 139.834 1.5 210.501v122c-50 5.33301 -96.167 9.83301 -138.5 13.5s-87.5 5.5 -135.5 5.5c-25.333 0 -51.5 -0.5 -78.5 -1.5s-56.833 -2.5 -89.5 -4.5c-8.66699 -60 -15 -119.667 -19 -179
s-6 -119.333 -6 -180c0 -30 0.166992 -59.667 0.5 -89s2.16602 -59 5.49902 -89c33.333 -3.33301 64.166 -6 92.499 -8s55.666 -3.83301 81.999 -5.5s52 -2.83398 77 -3.50098s50.5 -1 76.5 -1z" />
    <glyph glyph-name="e" unicode="e" horiz-adv-x="1237" 
d="M1200 469l-781.997 -63.001c3.33301 -41.333 8 -82.333 14 -123s13.667 -81.667 23 -123c58.667 -4 115.334 -6 170.001 -6c30 0 59 0.5 87 1.5s57 2.5 87 4.5c1.33301 13.333 2.33301 26.666 3 39.999s1 26.666 1 39.999c0 12 -0.166992 23.833 -0.5 35.5
s-1.5 23.5 -3.5 35.5l377 -8c-18.667 -63.333 -45.5 -117.666 -80.5 -162.999s-76.333 -82.5 -124 -111.5s-100.834 -50.167 -159.501 -63.5s-120.334 -20 -185.001 -20c-79.333 0 -153.833 10.667 -223.5 32s-130.334 55.833 -182.001 103.5
s-92.334 109.834 -122.001 186.501s-44.5 170.667 -44.5 282c0 90 15.667 167.333 47 232s73.166 118 125.499 160s113 72.833 182 92.5s141.5 29.5 217.5 29.5c79.333 0 153.833 -10.667 223.5 -32s130.334 -54.666 182.001 -99.999s92.5 -103.333 122.5 -174
s45 -155 45 -253v-35zM408.003 615.999l401 -0.00292969c0 82.667 -8.33301 161.334 -25 236.001c-57.333 12 -117.333 18 -180 18c-61.333 0 -123.333 -6 -186 -18c-4 -37.333 -6.66699 -75.166 -8 -113.499s-2 -79.166 -2 -122.499z" />
    <glyph glyph-name="f" unicode="f" horiz-adv-x="858" 
d="M829 772c-50 2 -99.498 3.49707 -148.498 4.49707s-98.5 2.16699 -148.5 3.5c5.33301 -128.667 14.166 -256.167 26.499 -382.5s28.833 -253.5 49.5 -381.5l-372 -36c-6.66699 80 -12.334 157.667 -17.001 233s-8.66699 147 -12 215s-6 131.5 -8 190.5
s-3.33301 112.167 -4 159.5l-162 -6v250c26.667 -2 53.167 -3.83301 79.5 -5.5s53.166 -3.16699 80.499 -4.5c0 4.66699 0.666992 15.334 2 32.001s4.33301 37.334 9 62.001s12 52 22 82s23.667 60.333 41 91s38.833 60.5 64.5 89.5s56.834 54.667 93.501 77
s79.5 40.333 128.5 54s105.5 20.5 169.5 20.5c23.333 0 47.833 -1.16699 73.5 -3.5s52.5 -6.16602 80.5 -11.499v-272c-32 5.33301 -63.833 9 -95.5 11s-64.167 3 -97.5 3c-24.667 0 -50 -0.666992 -76 -2s-52 -4 -78 -8c-1.33301 -34 -2 -67.833 -2 -101.5v-101.5v-26
c50 1.33301 99.833 3 149.5 5s100.167 5 151.5 9v-250z" />
    <glyph glyph-name="g" unicode="g" horiz-adv-x="1286" 
d="M1200 1063c-10 -204.667 -17.835 -380.004 -23.502 -526.004s-9.83398 -265.667 -12.501 -359c-3.33301 -110 -5.66602 -200.667 -6.99902 -272c-3.33301 -84.667 -21.833 -157.667 -55.5 -219s-77.334 -112.333 -131.001 -153s-114.667 -71.667 -183 -93
s-139.166 -34.333 -212.499 -39c-74 0 -141.5 9 -202.5 27s-114 43.333 -159 76s-81.667 71.334 -110 116.001s-46.5 94 -54.5 148l406 28c-6.66699 -17.333 -10.834 -35 -12.501 -53s-2.5 -36.333 -2.5 -55c0 -16.667 0.833008 -33.667 2.5 -51
s5.83398 -34.666 12.501 -51.999c9.33301 -1.33301 18.666 -2 27.999 -2h29c95.333 0 189.666 10.333 282.999 31c6 74.667 11 148.834 15 222.501s7.66699 147.5 11 221.5c-32 -20 -64.667 -35.167 -98 -45.5s-64 -18.166 -92 -23.499c-32.667 -6 -64.667 -9.33301 -96 -10
c-37.333 0 -75 5.16699 -113 15.5s-74.667 25.5 -110 45.5s-68.666 44.667 -99.999 74s-58.666 63.333 -81.999 102s-41.666 81.5 -54.999 128.5s-20 98.5 -20 154.5c0 83.333 11.167 159.5 33.5 228.5s54.5 128.333 96.5 178s93.333 88.167 154 115.5
s129.334 41 206.001 41c31.333 -0.666992 63.333 -4 96 -10c28 -5.33301 58.667 -13.5 92 -24.5s65.333 -26.833 96 -47.5c0 17.333 -0.333008 35 -1 53s-1 35.667 -1 53zM833.998 611.996c0 31.333 -0.170898 62.5 -0.503906 93.5s-1.16602 62.167 -2.49902 93.5
c-12 1.33301 -24 2 -36 2h-35c-25.333 0 -50.333 -0.333008 -75 -1s-50 -1.83398 -76 -3.50098s-53.333 -3.66699 -82 -6s-59.667 -5.16602 -93 -8.49902c-2 -30.667 -3.5 -60.5 -4.5 -89.5s-1.5 -58.5 -1.5 -88.5c0 -60.667 2.33301 -120.5 7 -179.5
s11.334 -118.5 20.001 -178.5c32 -2 61.333 -3.5 88 -4.5s52.667 -1.5 78 -1.5c36.667 0 71.334 0.666992 104.001 2s67.334 4 104.001 8c1.33301 60.667 2.5 121 3.5 181s1.5 120.333 1.5 181z" />
    <glyph glyph-name="h" unicode="h" horiz-adv-x="1255" 
d="M1178 563c0 -88.667 -4.66699 -179.001 -14 -271.001s-25.333 -184 -48 -276h-348c8 99.333 14.5 197.5 19.5 294.5s7.5 194.833 7.5 293.5v99.5c0 33 -0.666992 66.167 -2 99.5c-30 3.33301 -59.833 5.5 -89.5 6.5s-59.5 1.5 -89.5 1.5c-60 0 -120 -2 -180 -6v-129
c0 -110 1.66699 -219.5 5 -328.5s8.66602 -219.5 15.999 -331.5h-336c0 241.333 -3.33301 480.333 -10 717s-17.667 474.334 -33 713.001l379 22c-4.66699 -87.333 -8.66699 -174.333 -12 -261s-5.66602 -173.667 -6.99902 -261c38.667 29.333 78.667 51.833 120 67.5
s79 27.167 113 34.5c40 8.66699 79 13.667 117 15c48.667 0 92.167 -6.66699 130.5 -20s72 -31.833 101 -55.5s53.667 -51.5 74 -83.5s37 -66.5 50 -103.5s22.333 -75.833 28 -116.5s8.5 -81 8.5 -121z" />
    <glyph glyph-name="i" unicode="i" horiz-adv-x="547" 
d="M463 1044c-14.667 -148.667 -24.501 -295.332 -29.501 -439.999s-7.5 -289.334 -7.5 -434.001v-76.5c0 -25.667 0.666992 -51.5 2 -77.5h-309c0 41.333 0.333008 82.333 1 123s1 81 1 121c0 132.667 -3.16699 264 -9.5 394s-16.166 260 -29.499 390h381zM462.999 1368
c0 -23.333 -5.66699 -45.166 -17 -65.499s-27 -38 -47 -53s-43.333 -27 -70 -36s-55 -13.5 -85 -13.5s-58 4.5 -84 13.5s-48.667 21 -68 36s-34.666 32.667 -45.999 53s-17 42.166 -17 65.499c0 22.667 5.66699 44.167 17 64.5s26.666 38 45.999 53s42 26.833 68 35.5
s54 13 84 13s58.333 -4.33301 85 -13s50 -20.5 70 -35.5s35.667 -32.667 47 -53s17 -41.833 17 -64.5z" />
    <glyph glyph-name="j" unicode="j" horiz-adv-x="555" 
d="M461 1063l-9 -347c-2.66699 -104 -5.33398 -197.833 -8.00098 -281.5s-5.33398 -157.5 -8.00098 -221.5l-7 -168c-5.33301 -112 -10.333 -196.667 -15 -254c-2.66699 -67.333 -18.167 -126.833 -46.5 -178.5s-65.666 -95.334 -111.999 -131.001s-100 -62.667 -161 -81
s-125.833 -27.5 -194.5 -27.5c-56 0 -110.5 9 -163.5 27s-101.167 44.333 -144.5 79s-80.166 77 -110.499 127s-50.833 107 -61.5 171l379 45c0 -40 2.33301 -79 7 -117s14.667 -77.667 30 -119c41.333 4 83.333 8.83301 126 14.5s86.667 13.167 132 22.5
c5.33301 118.667 9.83301 236.334 13.5 353.001s5.5 234 5.5 352c0 116 -1.66699 231.5 -5 346.5s-8 230.167 -14 345.5zM514 1413c0 -27.333 -6.66699 -53 -20 -77s-31.666 -45 -54.999 -63s-50.666 -32.333 -81.999 -43s-65 -16 -101 -16s-69.667 5.33301 -101 16
s-58.666 25 -81.999 43s-41.666 39 -54.999 63s-20 49.667 -20 77c0 28 6.66699 54 20 78s31.666 45 54.999 63s50.666 32.167 81.999 42.5s65 15.5 101 15.5s69.667 -5.16699 101 -15.5s58.666 -24.5 81.999 -42.5s41.666 -39 54.999 -63s20 -50 20 -78z" />
    <glyph glyph-name="k" unicode="k" horiz-adv-x="1071" 
d="M1040 1126c-4.66699 -54.667 -16 -106 -34 -154s-40.833 -92.833 -68.5 -134.5s-58.834 -80.334 -93.501 -116.001s-71 -68.5 -109 -98.5c68.667 -87.333 127.667 -177.833 177 -271.5s92 -191.167 128 -292.5l-344 -79c-9.33301 90.667 -26.666 178.5 -51.999 263.5
s-61 166.833 -107 245.5c-24 -13.333 -47.5 -25.166 -70.5 -35.499l-63.5 -29.5v-90c0 -54 0.833008 -107 2.5 -159s2.5 -105 2.5 -159l-289 -36c0 247.333 -3.66699 495 -11 743s-19.333 496.333 -36 745h372c-10 -146.667 -18.333 -292.834 -25 -438.501
s-11 -292.167 -13 -439.5c33.333 26.667 63 55 89 85s49 60 69 90s37 59.833 51 89.5s26 57.834 36 84.501c22.667 62.667 37.667 125 45 187h344z" />
    <glyph glyph-name="l" unicode="l" horiz-adv-x="532" 
d="M459 1507c-17.333 -250.667 -28.833 -500.168 -34.5 -748.501s-8.5 -495.833 -8.5 -742.5h-312c3.33301 122.667 5.66602 244.334 6.99902 365.001s2 242 2 364c0 128 -0.666992 255 -2 381s-3.66602 253 -6.99902 381h355z" />
    <glyph glyph-name="m" unicode="m" horiz-adv-x="1804" 
d="M1114 496c0 -84.667 -5.00293 -170.671 -15.0029 -258.004s-25.333 -175 -46 -263h-348c8 94 14.333 187.333 19 280s7 186 7 280v95c0 31.333 -0.666992 62.333 -2 93c-30 3.33301 -59.5 5.5 -88.5 6.5s-58.833 1.5 -89.5 1.5c-17.333 0 -34.833 -0.333008 -52.5 -1
s-35.834 -1 -54.501 -1c-2 -47.333 -3.16699 -91.5 -3.5 -132.5s-0.5 -82.167 -0.5 -123.5c0 -34 0.333008 -68.5 1 -103.5s1.83398 -72.5 3.50098 -112.5s3.83398 -83.167 6.50098 -129.5s6 -97.166 10 -152.499h-336c0 80 -0.333008 150.667 -1 212
s-1.66699 117.833 -3 169.5s-3.16602 101 -5.49902 148s-5.16602 96.333 -8.49902 148l-11 169l-14 210.5l379 23l-8 -148c33.333 16 66 28.333 98 37s60.667 15 86 19c29.333 4.66699 57.333 7.33398 84 8.00098c51.333 0 97 -7.16699 137 -21.5s75 -33.833 105 -58.5
c38.667 33.333 79.5 58.833 122.5 76.5s82.833 30.834 119.5 39.501c42.667 10 84.667 15.667 126 17c49.333 0 93.166 -6.66699 131.499 -20s72.166 -31.833 101.499 -55.5s54.166 -51.667 74.499 -84s36.833 -67 49.5 -104s21.834 -75.833 27.501 -116.5
s8.5 -81.334 8.5 -122.001c0 -88.667 -4.83301 -178.667 -14.5 -270s-25.167 -183.666 -46.5 -276.999h-348c8 99.333 14.333 197.833 19 295.5s7 195.834 7 294.501v99.5c0 33 -0.666992 66.167 -2 99.5c-30 3.33301 -59.667 5.5 -89 6.5s-59.666 1.5 -90.999 1.5
c-17.333 0 -34.333 -0.333008 -51 -1s-33.667 -1 -51 -1c20.667 -41.333 35.334 -85.5 44.001 -132.5s13 -94.167 13 -141.5z" />
    <glyph glyph-name="n" unicode="n" horiz-adv-x="1264" 
d="M1184 522c0 -88.667 -4.67285 -179.001 -14.0059 -271.001s-25.333 -184 -48 -276h-348c8.66699 99.333 15.334 197.5 20.001 294.5s7 194.833 7 293.5v99.5c0 33 -0.666992 66.167 -2 99.5c-30 3.33301 -59.667 5.5 -89 6.5s-59 1.5 -89 1.5c-56.667 0 -115 -2 -175 -6
c-2 -54.667 -3.5 -105.334 -4.5 -152.001s-1.5 -93 -1.5 -139c0 -34 0.333008 -68.5 1 -103.5s1.83398 -72.5 3.50098 -112.5s3.83398 -83.167 6.50098 -129.5s6 -97.166 10 -152.499h-336c0 80 -0.333008 150.667 -1 212s-1.66699 117.833 -3 169.5
s-3.16602 101 -5.49902 148s-5.16602 96.333 -8.49902 148l-11 169l-14 210.5l379 23l-8 -142c38 26.667 77 47.334 117 62.001s76.667 25.667 110 33c38.667 8 76.334 12.667 113.001 14c48.667 0 92.167 -6.66699 130.5 -20s72 -31.833 101 -55.5s53.5 -51.5 73.5 -83.5
s36.5 -66.5 49.5 -103.5s22.333 -75.833 28 -116.5s8.5 -81 8.5 -121z" />
    <glyph glyph-name="o" unicode="o" horiz-adv-x="1243" 
d="M823 207c4 56.667 6.83301 111.666 8.5 164.999s2.5 106 2.5 158c0 54 -0.833008 107.167 -2.5 159.5s-4.5 106.5 -8.5 162.5c-22.667 3.33301 -45.167 5.5 -67.5 6.5s-44.833 1.5 -67.5 1.5c-93.333 0 -183.333 -10.333 -270 -31c-2 -36 -3.83301 -71.667 -5.5 -107
s-2.5 -70.666 -2.5 -105.999c0 -70.667 2.83301 -141.167 8.5 -211.5s14.167 -143.833 25.5 -220.5c15.333 -1.33301 30.833 -2 46.5 -2h48.5c46 0 92.833 2 140.5 6s95.5 10.333 143.5 19zM1194 521.999c0 -79.333 -15.5 -153.833 -46.5 -223.5
s-73.167 -130.5 -126.5 -182.5s-115.833 -93.167 -187.5 -123.5s-148.167 -45.5 -229.5 -45.5c-80.667 0 -154.834 15.167 -222.501 45.5s-126 71.5 -175 123.5s-87.167 112.833 -114.5 182.5s-41 144.167 -41 223.5c0 98 13.667 183 41 255s65.5 131.667 114.5 179
s107.333 82.5 175 105.5s141.834 34.5 222.501 34.5c81.333 0 157.833 -13 229.5 -39s134.167 -63.667 187.5 -113s95.5 -109.5 126.5 -180.5s46.5 -151.5 46.5 -241.5z" />
    <glyph glyph-name="p" unicode="p" 
d="M1274 522c0 -83.333 -11.1611 -158.166 -33.4941 -224.499s-54.5 -122.5 -96.5 -168.5s-93.333 -81.333 -154 -106s-129.334 -37 -206.001 -37c-44 1.33301 -87.333 7.33301 -130 18c-18 4.66699 -36.833 10.5 -56.5 17.5s-39.334 15.667 -59.001 26
s-38.5 22.5 -56.5 36.5s-34.667 30.333 -50 49c2 -114 4.66699 -226.833 8 -338.5s7.66602 -219.167 12.999 -322.5l-379 24c7.33301 118 13.666 242 18.999 372s9.83301 261.167 13.5 393.5s6.33398 263.833 8.00098 394.5s2.5 256 2.5 376h336
c-4 -41.333 -7 -82.333 -9 -123c15.333 16.667 32.166 31.167 50.499 43.5s37.166 23.166 56.499 32.499s38.833 17.333 58.5 24s38.5 12 56.5 16c42 10 85 15.667 129 17c36.667 0 74 -5.16699 112 -15.5s74.833 -25.5 110.5 -45.5s69 -44.667 100 -74
s58.167 -63.333 81.5 -102s41.666 -81.5 54.999 -128.5s20 -98.5 20 -154.5zM432.006 262c48.667 -12 94.499 -20.5 137.499 -25.5s88.167 -7.5 135.5 -7.5c28 0 57.333 1 88 3s64 4.66699 100 8c3.33301 30 5.5 59.667 6.5 89s1.5 59 1.5 89
c0 60.667 -2.33301 120.5 -7 179.5s-11.334 118.5 -20.001 178.5c-63.333 4 -119 6 -167 6c-23.333 0 -45.666 -0.5 -66.999 -1.5s-42.833 -2.33301 -64.5 -4s-43.667 -3.5 -66 -5.5s-46.166 -4.33301 -71.499 -7c-4 -143.333 -6 -289.333 -6 -438v-64z" />
    <glyph glyph-name="q" unicode="q" 
d="M879 -522c3.33301 99.333 6.49609 201.838 9.49609 307.505s5.16699 213.5 6.5 323.5c-30.667 -36 -66.334 -63.667 -107.001 -83s-80 -33.666 -118 -42.999c-44 -10.667 -89 -16.667 -135 -18c-37.333 0 -75 5 -113 15s-74.667 25 -110 45s-68.666 44.667 -99.999 74
s-58.666 63.166 -81.999 101.499s-41.666 81.166 -54.999 128.499s-20 98.666 -20 153.999c0 83.333 11.333 159.666 34 228.999s55.167 128.833 97.5 178.5s94 88.167 155 115.5s129.5 41 205.5 41c40.667 -1.33301 81.334 -6.33301 122.001 -15
c34.667 -7.33301 71.334 -19.5 110.001 -36.5s74 -40.833 106 -71.5l-6 112h333c0 -120.667 0.833008 -246.334 2.5 -377.001s4.16699 -262 7.5 -394s7.83301 -262.833 13.5 -392.5s12.167 -253.834 19.5 -372.501zM622.996 223.005c48 0 93.165 1.50195 135.498 4.50195
s88.5 7.83301 138.5 14.5v90c0 76.667 -0.5 152.667 -1.5 228s-3.16699 150 -6.5 224c-22.667 1.33301 -44.5 2 -65.5 2h-59.5c-26 0 -51.5 -0.333008 -76.5 -1s-50.667 -1.83398 -77 -3.50098s-53.666 -3.83398 -81.999 -6.50098l-92.5 -9
c-3.33301 -30 -5.16602 -59.667 -5.49902 -89s-0.5 -59 -0.5 -89c0 -60.667 2 -120.667 6 -180s10.333 -119 19 -179c32.667 -2 62.5 -3.5 89.5 -4.5s53.167 -1.5 78.5 -1.5z" />
    <glyph glyph-name="r" unicode="r" horiz-adv-x="1249" 
d="M852 479l4 49.501c1.33301 16.333 2 32.833 2 49.5c0 57.333 -6 114 -18 170c-62 -2.66699 -123.5 -7 -184.5 -13s-122.5 -14 -184.5 -24v-199v-259.5c0 -85.667 0.666992 -171.834 2 -258.501l-356 -25c2 24.667 3.16699 49 3.5 73s0.5 48.333 0.5 73
c0 154.667 -2.83301 307.667 -8.5 459s-13.834 303.333 -24.501 456l385 33c0 -18.667 -0.333008 -37.167 -1 -55.5s-1 -36.833 -1 -55.5c38.667 28 77.5 49.333 116.5 64s74.5 25.667 106.5 33c36.667 8 72.334 12.667 107.001 14c78.667 -4 149 -22 211 -54
c26 -13.333 51.667 -30.5 77 -51.5s48 -46.667 68 -77s36 -66 48 -107s18 -88.5 18 -142.5c0 -18.667 -1 -38.167 -3 -58.5s-4.66699 -41.833 -8 -64.5z" />
    <glyph glyph-name="s" unicode="s" horiz-adv-x="1206" 
d="M1153 233c0 -58.667 -15.0059 -107.502 -45.0059 -146.502s-69.333 -70.333 -118 -94s-104 -40.334 -166 -50.001s-125 -14.5 -189 -14.5c-35.333 0 -73.166 2.16699 -113.499 6.5s-80.833 12 -121.5 23s-80.167 25.667 -118.5 44s-73.166 41.5 -104.499 69.5
s-58.166 61 -80.499 99s-37.5 82.333 -45.5 133l406 4l16 -174h311l23 201c-41.333 9.33301 -88.666 17.333 -141.999 24s-108 14.834 -164 24.501s-111 22.167 -165 37.5s-102 36.333 -144 63s-76 60.334 -102 101.001s-39 91 -39 151c0 64.667 15.667 119.167 47 163.5
s72.5 80 123.5 107s108.833 46.833 173.5 59.5s130.334 20 197.001 22c35.333 0 73.5 -2 114.5 -6s81.833 -11.167 122.5 -21.5s79.834 -24.5 117.501 -42.5s71.334 -40.833 101.001 -68.5s54 -61 73 -100s29.833 -84.833 32.5 -137.5l-393 -17v197h-338v-266
c43.333 -9.33301 91.666 -16.5 144.999 -21.5s107 -11.5 161 -19.5s106.5 -19 157.5 -33s96.333 -34 136 -60s71.5 -59.667 95.5 -101s36 -93.666 36 -156.999z" />
    <glyph glyph-name="t" unicode="t" horiz-adv-x="1065" 
d="M1042 762c-64.667 3.33301 -129.501 6.33301 -194.501 9s-129.833 5 -194.5 7c-8 -132.667 -15 -265 -21 -397s-10.667 -265 -14 -399l-292 -29c4 244 6 485.667 6 725v106h-72c-40 0 -80 -0.333008 -120 -1s-80 -1 -120 -1v254c17.333 0 34.833 -0.333008 52.5 -1
s35.834 -1 54.501 -1h203c0 62 -0.333008 123.167 -1 183.5s-1.66699 120.833 -3 181.5h379c-6.66699 -60 -12.5 -119.5 -17.5 -178.5s-9.5 -117.833 -13.5 -176.5c62 2.66699 123.167 5.5 183.5 8.5s121.833 6.5 184.5 10.5v-301z" />
    <glyph glyph-name="u" unicode="u" horiz-adv-x="1217" 
d="M1151 635c0 -57.333 -2.83496 -113.497 -8.50195 -168.497s-15.667 -107.333 -30 -157s-34 -96 -59 -139s-56.5 -80.833 -94.5 -113.5s-83.667 -59.5 -137 -80.5s-115.666 -34.167 -186.999 -39.5c-183.333 0 -321 46.333 -413 139s-138 229.667 -138 411v37.5
c0 20.333 0.333008 45.666 1 75.999s1.5 64.333 2.5 102s2.83301 76.167 5.5 115.5s5.83398 78 9.50098 116s8.5 72.667 14.5 104h350c-12.667 -66 -22 -135.667 -28 -209s-9 -148.333 -9 -225c0 -70.667 2.83301 -140.834 8.5 -210.501s15.167 -135.834 28.5 -198.501
c24.667 -3.33301 48.834 -6 72.501 -8s47.167 -3 70.5 -3c22.667 0 46.167 1 70.5 3s48.166 4.66699 71.499 8c7.33301 62.667 12.833 128.5 16.5 197.5s5.5 138.833 5.5 209.5c0 77.333 -1.83301 152.833 -5.5 226.5s-9.16699 143.5 -16.5 209.5h362
c14.667 -78 24.5 -151.667 29.5 -221s7.5 -130 7.5 -182z" />
    <glyph glyph-name="v" unicode="v" horiz-adv-x="1219" 
d="M1227 1096c-144 -352.667 -262.333 -707.667 -355 -1065l-559 -47l-62 257.5l-62.5 257c-21.667 85.667 -44.5 171 -68.5 256s-51 170.167 -81 255.5h379c22.667 -142.667 50 -283.5 82 -422.5s70 -277.5 114 -415.5c49.333 153.333 92.333 306.833 129 460.5
s69 308.167 97 463.5h387z" />
    <glyph glyph-name="w" unicode="w" horiz-adv-x="1745" 
d="M1712 1069l-190 -1085h-504l-129 741l-201 -702h-463l-192 1026h411l142 -764l221 743h356l166 -805l127 846h256z" />
    <glyph glyph-name="x" unicode="x" horiz-adv-x="1292" 
d="M700 748l310 321l278 -57l-432 -453l430 -520l-403 -55l-267 323l-309 -323l-317 26l469 488l-441 538h445z" />
    <glyph glyph-name="y" unicode="y" horiz-adv-x="1288" 
d="M1198 1036c-3.33301 -174.667 -7.66309 -325.327 -12.9961 -451.994s-10.666 -232.334 -15.999 -317.001c-6 -98.667 -12 -181.667 -18 -249c-4 -80.667 -18.833 -154.334 -44.5 -221.001s-61.834 -124 -108.501 -172s-103.334 -85.167 -170.001 -111.5
s-143.334 -39.5 -230.001 -39.5c-58 0 -108.667 3.5 -152 10.5s-81.166 17.333 -113.499 31s-60 30.5 -83 50.5s-43.167 43.167 -60.5 69.5s-32.5 55.833 -45.5 88.5s-25.5 68 -37.5 106l367 8c0 -9.33301 -0.333008 -18.166 -1 -26.499s-1 -16.5 -1 -24.5
c0 -50 4 -98.333 12 -145c26 -3.33301 48.667 -6 68 -8s38.333 -3 57 -3c25.333 0 51.333 1.66699 78 5s58.667 8 96 14c6.66699 70 12.334 139.5 17.001 208.5s8.66699 138.167 12 207.5c-28 -12 -54.833 -21.167 -80.5 -27.5s-48.167 -11.166 -67.5 -14.499
c-22.667 -3.33301 -44.334 -5.33301 -65.001 -6c-96.667 0 -176.334 12.167 -239.001 36.5s-113.167 58.666 -151.5 102.999s-66.333 97.666 -84 159.999s-29.834 131.166 -36.501 206.499s-10 156.166 -10 242.499s-1 176.166 -3 269.499l409 -28
c-5.33301 -62.667 -9.66602 -125 -12.999 -187s-5 -124 -5 -186c0 -64 1.66699 -127.5 5 -190.5s7.66602 -125.833 12.999 -188.5c24.667 -2 47.667 -3.16699 69 -3.5s42.666 -0.5 63.999 -0.5c35.333 0 69.5 0.5 102.5 1.5s65.833 3.16699 98.5 6.5
c1.33301 21.333 2 43.166 2 65.499v65.5c0 111.333 -2.83301 222 -8.5 332s-15.167 220 -28.5 330z" />
    <glyph glyph-name="z" unicode="z" horiz-adv-x="1065" 
d="M537 242c34 0 69.9971 0.330078 107.997 0.99707s76.833 1.83398 116.5 3.50098s79.834 3.5 120.501 5.5s80.334 4.66699 119.001 8l-6 -225c-162.667 -9.33301 -325.5 -16.166 -488.5 -20.499s-328.5 -6.5 -496.5 -6.5l86 121l95 136l97.5 141l93.5 137l212 313
c-64 -1.33301 -127.333 -3 -190 -5c-26.667 -0.666992 -54.5 -1.5 -83.5 -2.5l-87 -3c-29 -1 -57.167 -2.16699 -84.5 -3.5s-53 -2.66602 -77 -3.99902v233c82.667 -3.33301 165.334 -5.5 248.001 -6.5s165.667 -1.5 249 -1.5c80.667 0 160.667 0.5 240 1.5
s159.333 3.16699 240 6.5z" />
    <glyph glyph-name="braceleft" unicode="{" horiz-adv-x="979" 
d="M932 -317c-32 -7.33301 -62.6621 -12.6709 -91.9951 -16.0039s-58 -5 -86 -5c-37.333 0 -77 4.16699 -119 12.5s-83.667 20.833 -125 37.5s-80.833 37 -118.5 61s-71 51.667 -100 83s-52 66.333 -69 105s-25.5 80.334 -25.5 125.001c0 34 5.33301 65.5 16 94.5
s22.5 56.333 35.5 82l36 73c11 23 16.5 45.5 16.5 67.5c0 30.667 -10.167 56.334 -30.5 77.001s-45.333 37.5 -75 50.5s-61.334 22.333 -95.001 28s-63.834 9.16699 -90.501 10.5v176c22 0.666992 49.5 3.83398 82.5 9.50098s65 15 96 28s57.5 30 79.5 51s33 47.5 33 79.5
c0 21.333 -5.5 43.5 -16.5 66.5l-36 73.5c-13 26 -24.833 53.667 -35.5 83s-16 61 -16 95c0 42.667 8 82.834 24 120.501s37.833 72.167 65.5 103.5s59.667 59.333 96 84s75.166 45.667 116.499 63s83.833 30.5 127.5 39.5s86.167 13.5 127.5 13.5
c28 0 56.667 -1.66699 86 -5s60 -8.66602 92 -15.999l-49 -374c-32 10 -61 17.167 -87 21.5s-50.333 6.5 -73 6.5c-26.667 0 -53.5 -3.66699 -80.5 -11s-51.333 -18.5 -73 -33.5s-39.334 -33.833 -53.001 -56.5s-20.5 -49.667 -20.5 -81c0 -28 4.66699 -56 14 -84
s19.666 -55 30.999 -81l31 -73c9.33301 -22.667 14 -43 14 -61c0 -16.667 -6.83301 -32 -20.5 -46s-30.667 -26.5 -51 -37.5s-42.5 -20.667 -66.5 -29s-46.5 -15.333 -67.5 -21s-38.667 -9.83398 -53 -12.501s-21.833 -4 -22.5 -4c0.666992 0 8.16699 -1.33301 22.5 -4
s32 -6.83398 53 -12.501s43.5 -12.667 67.5 -21s46.167 -18 66.5 -29s37.333 -23.5 51 -37.5s20.5 -29 20.5 -45c0 -17.333 -4.66699 -37.333 -14 -60l-31 -73c-11.333 -26 -21.666 -53.167 -30.999 -81.5s-14 -56.5 -14 -84.5c0 -28.667 6.33301 -54.167 19 -76.5
s29.5 -41.166 50.5 -56.499s45.167 -27 72.5 -35s55.666 -12 84.999 -12c22.667 0 47 2 73 6s55 10.667 87 20z" />
    <glyph glyph-name="bar" unicode="|" horiz-adv-x="623" 
d="M543 1640c-27.333 -240.667 -46.166 -480.835 -56.499 -720.502s-15.5 -479.167 -15.5 -718.5c0 -91.333 0.5 -181.666 1.5 -270.999s3.16699 -178.666 6.5 -267.999h-379c13.333 265.333 24.166 531 32.499 797s12.5 532 12.5 798v181.5
c0 60.333 -0.666992 120.833 -2 181.5z" />
    <glyph glyph-name="braceright" unicode="}" horiz-adv-x="979" 
d="M96 55c32 -9.33301 61.0049 -15.998 87.0049 -19.998s50.333 -6 73 -6c29.333 0 57.666 4 84.999 12s51.5 19.667 72.5 35s37.833 34.166 50.5 56.499s19 47.833 19 76.5c0 28 -4.66699 56.167 -14 84.5s-19.666 55.5 -30.999 81.5l-31 73
c-9.33301 22.667 -14 42.667 -14 60c0 16 6.83301 31 20.5 45s30.667 26.5 51 37.5s42.5 20.667 66.5 29s46.5 15.333 67.5 21s38.5 9.83398 52.5 12.501s21.667 4 23 4c-1.33301 0 -9 1.33301 -23 4s-31.5 6.83398 -52.5 12.501s-43.5 12.667 -67.5 21s-46.167 18 -66.5 29
s-37.333 23.5 -51 37.5s-20.5 29.333 -20.5 46c0 18 4.66699 38.333 14 61l31 73c11.333 26 21.666 53 30.999 81s14 56 14 84c0 31.333 -6.83301 58.333 -20.5 81s-31.334 41.5 -53.001 56.5s-46 26.167 -73 33.5s-53.833 11 -80.5 11c-22.667 0 -47 -2.16699 -73 -6.5
s-55 -11.5 -87 -21.5l-49 374c32 7.33301 62.667 12.666 92 15.999s58 5 86 5c41.333 0 83.833 -4.5 127.5 -13.5s86.167 -22.167 127.5 -39.5s80.166 -38.333 116.499 -63s68.333 -52.667 96 -84s49.5 -65.833 65.5 -103.5s24 -77.834 24 -120.501
c0 -34 -5.5 -65.667 -16.5 -95s-23 -57 -36 -83l-35.5 -73.5c-10.667 -23 -16 -45.167 -16 -66.5c0 -32 11 -58.5 33 -79.5s48.5 -38 79.5 -51s63 -22.333 96 -28s60.5 -8.83398 82.5 -9.50098v-176c-26.667 -1.33301 -56.834 -4.83301 -90.501 -10.5
s-65.334 -15 -95.001 -28s-54.667 -29.833 -75 -50.5s-30.5 -46.334 -30.5 -77.001c0 -22 5.33301 -44.5 16 -67.5l35.5 -73c13 -25.667 25 -53 36 -82s16.5 -60.5 16.5 -94.5c0 -45.333 -8.5 -87.166 -25.5 -125.499s-40 -73.166 -69 -104.499s-62.333 -59 -100 -83
s-77.167 -44.333 -118.5 -61s-83 -29.167 -125 -37.5s-81.667 -12.5 -119 -12.5c-28 0 -56.667 1.66699 -86 5s-60 8.66602 -92 15.999z" />
    <glyph glyph-name="asciitilde" unicode="~" horiz-adv-x="1671" 
d="M1581 1001c12 -57.333 18.002 -109.668 18.002 -157.001c0 -61.333 -11.333 -118.833 -34 -172.5s-54 -100.334 -94 -140.001s-87.167 -71 -141.5 -94s-113.166 -34.5 -176.499 -34.5c-20 0 -45.667 1.16699 -77 3.5s-65 7.83301 -101 16.5s-72 21 -108 37
s-68.667 38 -98 66s-53.166 62.5 -71.499 103.5s-27.5 90.5 -27.5 148.5l-197 -18c-5.33301 -23.333 -9.33301 -47 -12 -71s-4 -47.667 -4 -71c0 -30.667 2 -61.167 6 -91.5s10.667 -60.5 20 -90.5h-368c-16.667 66.667 -25 127.334 -25 182.001
c0 52.667 6.16699 99.334 18.5 140.001s28.666 76 48.999 106s43.5 55.333 69.5 76s52.667 38 80 52c63.333 32 135.666 51 216.999 57c2.66699 0 16.667 -0.5 42 -1.5s56.333 -4.5 93 -10.5s76.167 -15.667 118.5 -29s81.5 -32.333 117.5 -57s65.833 -56.167 89.5 -94.5
s35.5 -85.5 35.5 -141.5c0 -9.33301 -0.166992 -19 -0.5 -29s-2.16602 -20.333 -5.49902 -31c17.333 -2 34.166 -3.83301 50.499 -5.5s32.166 -2.5 47.499 -2.5c37.333 0 75.666 4 114.999 12c5.33301 28 9.66602 56 12.999 84s5 56 5 84s-1.66699 55.333 -5 82
s-7.66602 54 -12.999 82z" />
    <glyph glyph-name="nonbreakingspace" unicode="&#xa0;" horiz-adv-x="614" 
 />
    <glyph glyph-name="exclamdown" unicode="&#xa1;" horiz-adv-x="633" 
d="M143 1133c0 20 4.83301 38.5 14.5 55.5s22.667 31.833 39 44.5s35.666 22.667 57.999 30s46.166 11 71.499 11c26 0 50.167 -3.66699 72.5 -11s41.833 -17.333 58.5 -30s29.667 -27.5 39 -44.5s14 -35.5 14 -55.5c0 -19.333 -4.66699 -37.666 -14 -54.999
s-22.333 -32.5 -39 -45.5s-36.167 -23.167 -58.5 -30.5s-46.5 -11 -72.5 -11c-25.333 0 -49.166 3.66699 -71.499 11s-41.666 17.5 -57.999 30.5s-29.333 28.167 -39 45.5s-14.5 35.666 -14.5 54.999zM68 -281c38 189.333 66.5 377.833 85.5 565.5s30.5 376.167 34.5 565.5
h279c1.33301 -190.667 8.83301 -379.667 22.5 -567s35.5 -375.333 65.5 -564h-487z" />
    <glyph glyph-name="cent" unicode="&#xa2;" horiz-adv-x="1135" 
d="M659 1710l-49.001 -499.996c56.667 -2.66699 110.167 -11.667 160.5 -27s95.666 -37.5 135.999 -66.5s74.833 -65.5 103.5 -109.5s49.667 -95.667 63 -155h-358c3.33301 15.333 5.5 30.166 6.5 44.499s1.5 28.833 1.5 43.5s-0.5 28.334 -1.5 41.001
s-3.16699 26.334 -6.5 41.001c-51.333 8 -104.666 12 -159.999 12c-56.667 0 -113.334 -4 -170.001 -12c-3.33301 -33.333 -5.83301 -65.5 -7.5 -96.5s-2.5 -62.5 -2.5 -94.5c0 -72.667 3.83301 -144.667 11.5 -216s18.167 -143.333 31.5 -216
c26.667 -3.33301 52.5 -5.5 77.5 -6.5s50.833 -1.5 77.5 -1.5c26 0 51.5 0.5 76.5 1.5s50.833 3.16699 77.5 6.5c1.33301 12.667 2.33301 25 3 37s1 23.667 1 35s-0.333008 22.166 -1 32.499s-1.66699 20.833 -3 31.5l340 -7c-16 -54 -38.5 -100.833 -67.5 -140.5
s-63.333 -72.5 -103 -98.5s-83.5 -45.833 -131.5 -59.5s-99 -21.834 -153 -24.501l50 -484h-224l47 488c-60.667 7.33301 -117 22.666 -169 45.999s-97 56.666 -135 99.999s-67.833 97.5 -89.5 162.5s-32.5 142.5 -32.5 232.5c0 72 11.167 135 33.5 189
s52.833 99.667 91.5 137s83.834 66.666 135.501 87.999s106.834 35.333 165.501 42l-49 504h223z" />
    <glyph glyph-name="sterling" unicode="&#xa3;" horiz-adv-x="1448" 
d="M1356 414c-17.333 -70.667 -27.5029 -140.169 -30.5029 -208.502s-4.5 -137.5 -4.5 -207.5c-93.333 4 -186.5 6.66699 -279.5 8s-186.167 2 -279.5 2c-102 0 -202.667 -0.833008 -302 -2.5s-199.333 -4.16699 -300 -7.5c34.667 130 59.334 243.333 74.001 340
s24 175.667 28 237h-51h-71.5c-24.333 0 -48.166 -0.666992 -71.499 -2v252c62.667 -6 126 -10 190 -12c-4 36 -8 74 -12 114s-6 80.667 -6 122c0 38 2.66699 75.5 8 112.5s15 72.333 29 106s33.167 64.834 57.5 93.501s55.666 53.5 93.999 74.5s84.5 37.5 138.5 49.5
s117.667 18 191 18c79.333 0 148.833 -6.5 208.5 -19.5s111.334 -30.833 155.001 -53.5s79.834 -49 108.501 -79s51.667 -61.833 69 -95.5s29.5 -68.167 36.5 -103.5s10.5 -69.666 10.5 -102.999c0 -40 -3.66699 -76.333 -11 -109s-16 -58.667 -26 -78h-365
c6 33.333 11 66.166 15 98.499s6 64.5 6 96.5c0 34 -2 67.667 -6 101s-9 66.333 -15 99c-30.667 4.66699 -61.334 8 -92.001 10s-62 3 -94 3c-30 0 -60.167 -1 -90.5 -3s-61.166 -5.33301 -92.499 -10c-10 -148.667 -16 -298 -18 -448c37.333 1.33301 74.333 3.33301 111 6
s74 6 112 10v-276c-36.667 3.33301 -73.667 6.33301 -111 9s-74.666 5 -111.999 7c2 -57.333 4.5 -114.833 7.5 -172.5s6.5 -115.5 10.5 -173.5c62 -8 125.667 -12 191 -12c57.333 0 116.666 4 177.999 12c4 16.667 6.66699 33.167 8 49.5s2 32.5 2 48.5
c0 14.667 -0.666992 29.334 -2 44.001s-4 28.667 -8 42z" />
    <glyph glyph-name="currency" unicode="&#xa4;" horiz-adv-x="983" 
d="M612 563c2 28 3.16699 55.3311 3.5 81.998s0.5 53.334 0.5 80.001s-0.166992 53 -0.5 79s-1.5 53 -3.5 81c-11.333 2 -22.5 3.16699 -33.5 3.5s-22.167 0.5 -33.5 0.5c-23.333 0 -46.333 -1.16699 -69 -3.5s-44.667 -6.16602 -66 -11.499
c-1.33301 -18 -2.33301 -35.833 -3 -53.5s-1 -35.167 -1 -52.5c0 -36 1.33301 -71.667 4 -107s6.66699 -72 12 -110h47c46 0 93.667 4 143 12zM901 992.998l-139 -130.998c11.333 -19.333 20 -41 26 -65s9 -49.333 9 -76c0 -32.667 -5.66699 -63.334 -17 -92.001
c19.333 -20.667 39.166 -40.834 59.499 -60.501l61.5 -58.5l-239 -184l-16.5 21l-28.5 36l-28.5 35.5l-17.5 21.5c-11.333 -3.33301 -22.666 -5.5 -33.999 -6.5s-23 -1.5 -35 -1.5c-29.333 0 -56.333 3.83301 -81 11.5s-47.667 18.167 -69 31.5l-125 -121l-145 97l166 153
c-15.333 36 -23 75 -23 117c0 48 6.33301 89 19 123l-79 85.5l-83 86.5l295 104l80 -116c7.33301 1.33301 14.5 2.33301 21.5 3s14.833 1 23.5 1c28 0 54.5 -3 79.5 -9s48.167 -14.667 69.5 -26l123 108z" />
    <glyph glyph-name="yen" unicode="&#xa5;" horiz-adv-x="1446" 
d="M1169 248l-228.998 4.00098c2 -30 4 -57 6 -81s4.66699 -42 8 -54l-446 -8c2 10 4.66699 28 8 54s6.66602 55 9.99902 87l-227 -6v180c36 -1.33301 74.5 -2.33301 115.5 -3s83.167 -1 126.5 -1c2 16.667 3.16699 31.5 3.5 44.5s1.16602 22.167 2.49902 27.5l-25 38
l-223 -6v181c18.667 -1.33301 37.667 -2.16602 57 -2.49902s39.333 -0.5 60 -0.5l-92 152l-93 159l-89.5 159.5c-29 53 -55.833 104.5 -80.5 154.5l453 -20c11.333 -36 25.833 -77.667 43.5 -125s37.667 -97.5 60 -150.5s46.833 -107.333 73.5 -163
s54.334 -110.167 83.001 -163.5l111 213l46 97.5l46.5 104.5c15 35.333 29.167 70.5 42.5 105.5s25 68.833 35 101.5h327c-32 -74.667 -63.333 -143.334 -94 -206.001s-60 -119.834 -88 -171.501s-54.333 -98 -79 -139l-68 -108.5c20.667 0 40.667 0.5 60 1.5
s38 2.16699 56 3.5v-179l-233 4c-1.33301 -10 -2 -21.5 -2 -34.5v-42.5v-35c85.333 0 163.666 2 234.999 6v-178z" />
    <glyph glyph-name="brokenbar" unicode="&#xa6;" horiz-adv-x="582" 
d="M96 -367c14.667 156 27.167 310.331 37.5 462.998s17.833 305.667 22.5 459h254c0 -23.333 -0.333008 -47.166 -1 -71.499s-1 -48.166 -1 -71.499c0 -126 3.16699 -251 9.5 -375s14.5 -249 24.5 -375zM512 1673c-26.667 -164.667 -46.833 -328 -60.5 -490
s-22.167 -325.667 -25.5 -491h-264c-1.33301 167.333 -7.33301 332 -18 494s-26.667 324.333 -48 487h416z" />
    <glyph glyph-name="section" unicode="&#xa7;" horiz-adv-x="1493" 
d="M1415 602c0 -46 -5.16016 -88.333 -15.4932 -127s-24.833 -74 -43.5 -106c18.667 -25.333 33.167 -52.333 43.5 -81s15.5 -60.334 15.5 -95.001c0 -86.667 -17.167 -159.834 -51.5 -219.501s-82 -108 -143 -145s-133.5 -63.667 -217.5 -80s-175.333 -24.5 -274 -24.5
c-44.667 0 -91 4.16699 -139 12.5s-95.333 21.666 -142 39.999s-91.334 41.5 -134.001 69.5s-80.834 61.833 -114.501 101.5s-62 85.167 -85 136.5s-37.833 109.333 -44.5 174l436 8c-1.33301 -18.667 -2 -37.667 -2 -57v-59c0 -57.333 2 -117 6 -179
c78 -8 156.333 -12 235 -12c77.333 0 156 4 236 12c3.33301 22.667 5.83301 44.834 7.5 66.501s2.5 43.834 2.5 66.501c0 37.333 -2.16699 74.666 -6.5 111.999s-10.166 74.666 -17.499 111.999l-161 18c-60.667 6.66699 -122.834 16.334 -186.501 29.001
s-126 29.834 -187 51.501s-115.5 50.5 -163.5 86.5s-86.667 80 -116 132s-44 115 -44 189c0 36.667 5.16699 71.167 15.5 103.5s24.833 62.5 43.5 90.5c-18.667 30 -33.167 62.5 -43.5 97.5s-15.5 74.167 -15.5 117.5c0 51.333 9.5 98 28.5 140s44.667 79.667 77 113
s70 62.333 113 87s88.333 45 136 61s96.167 28 145.5 36s97 12 143 12c67.333 0 129.166 -7.16699 185.499 -21.5s107.333 -34.166 153 -59.499s86 -55 121 -89s64.667 -70.667 89 -110s43.166 -80.333 56.499 -123s21.666 -85.334 24.999 -128.001l-456 -49
c3.33301 25.333 5.5 50.833 6.5 76.5s1.5 51.5 1.5 77.5c0 57.333 -4 116 -12 176c-22.667 3.33301 -45.334 5.5 -68.001 6.5s-45.334 1.5 -68.001 1.5c-45.333 0 -90.5 -2.66699 -135.5 -8s-90.5 -13.666 -136.5 -24.999c-1.33301 -16.667 -2 -33 -2 -49v-47
c0 -46 1.83301 -91.5 5.5 -136.5s10.834 -90.167 21.501 -135.5l180 -23.5c64.667 -8.33301 129.5 -19.333 194.5 -33s127.667 -30.667 188 -51s113.666 -45.833 159.999 -76.5s83.5 -67.5 111.5 -110.5s42 -93.833 42 -152.5zM967.007 737
c-30 4 -62.834 7.83496 -98.501 11.502s-73.167 8.16699 -112.5 13.5s-79.5 11.666 -120.5 18.999s-81.5 16.666 -121.5 27.999c2 -28.667 4.83301 -57.167 8.5 -85.5s9.16699 -56.5 16.5 -84.5l105 -14c36.667 -4.66699 74.334 -10 113.001 -16s77.5 -12.667 116.5 -20
s77.5 -16 115.5 -26c-1.33301 29.333 -4 58.5 -8 87.5s-8.66699 57.833 -14 86.5z" />
    <glyph glyph-name="dieresis" unicode="&#xa8;" horiz-adv-x="705" 
d="M285 1343c0 -14.667 -3.83301 -28.5 -11.5 -41.5s-18 -24.5 -31 -34.5s-28.167 -17.833 -45.5 -23.5s-36 -8.5 -56 -8.5c-19.333 0 -37.666 2.83301 -54.999 8.5s-32.333 13.5 -45 23.5s-22.667 21.5 -30 34.5s-11 26.833 -11 41.5c0 15.333 3.66699 29.833 11 43.5
s17.333 25.5 30 35.5s27.667 17.833 45 23.5s35.666 8.5 54.999 8.5c20 0 38.667 -2.83301 56 -8.5s32.5 -13.5 45.5 -23.5s23.333 -21.833 31 -35.5s11.5 -28.167 11.5 -43.5zM705 1343c0 -14.667 -3.83301 -28.5 -11.5 -41.5s-18 -24.5 -31 -34.5
s-28.167 -17.833 -45.5 -23.5s-36 -8.5 -56 -8.5c-19.333 0 -37.5 2.83301 -54.5 8.5s-31.833 13.5 -44.5 23.5s-22.834 21.5 -30.501 34.5s-11.5 26.833 -11.5 41.5c0 15.333 3.83301 29.833 11.5 43.5s17.834 25.5 30.501 35.5s27.5 17.833 44.5 23.5s35.167 8.5 54.5 8.5
c20 0 38.667 -2.83301 56 -8.5s32.5 -13.5 45.5 -23.5s23.333 -21.833 31 -35.5s11.5 -28.167 11.5 -43.5z" />
    <glyph glyph-name="copyright" unicode="&#xa9;" horiz-adv-x="852" 
d="M618 748c-21.333 0 -41.1699 -0.669922 -59.5029 -2.00293s-39.166 -3 -62.499 -5c2 8.66699 3.16699 17.834 3.5 27.501s0.5 19.834 0.5 30.501v18c0 6 -0.666992 12.333 -2 19c-11.333 3.33301 -24.666 5.83301 -39.999 7.5s-30.666 2.5 -45.999 2.5
c-10.667 0 -21.167 -0.333008 -31.5 -1s-19.833 -1.66699 -28.5 -3c-3.33301 -20.667 -5.83301 -41.667 -7.5 -63s-2.5 -42.666 -2.5 -63.999c0 -23.333 0.833008 -46.666 2.5 -69.999s4.16699 -46.666 7.5 -69.999c12.667 -4 27.834 -7 45.501 -9s34.834 -3 51.501 -3h16.5
c5 0 10.167 0.666992 15.5 2c2 9.33301 3.5 20.166 4.5 32.499s1.5 24.833 1.5 37.5v29c13.333 -1.33301 26 -2.5 38 -3.5s24 -1.5 36 -1.5c8.66699 0 17.5 0.166992 26.5 0.5s18.5 1.16602 28.5 2.49902c-6.66699 -36.667 -19 -65.334 -37 -86.001s-37.333 -36 -58 -46
s-40.667 -16.167 -60 -18.5s-33.666 -3.5 -42.999 -3.5c-40 0 -72.333 5.66699 -97 17s-43.834 26 -57.501 44s-22.834 38 -27.501 60s-7 43.667 -7 65c0 61.333 16 110.5 48 147.5s83.667 57.5 155 61.5c22.667 0 44.5 -3.33301 65.5 -10s39.833 -16.667 56.5 -30
s30.667 -29.666 42 -48.999s18.666 -41.333 21.999 -66zM613.996 484.997c40.667 154 40.665 306.334 -0.00195312 457.001c-11.333 2 -25.333 3.66699 -42 5s-33.667 2.5 -51 3.5s-34.333 1.83301 -51 2.5s-30.667 1 -42 1s-25.333 -0.333008 -42 -1s-34 -1.5 -52 -2.5
s-35.333 -2.16699 -52 -3.5s-30.667 -3 -42 -5c-29.333 -79.333 -43.666 -156.833 -42.999 -232.5s19.667 -153.834 57 -234.501c8 -1.33301 19 -2.33301 33 -3s28.333 -1.16699 43 -1.5l42 -1c13.333 -0.333008 23.666 -0.5 30.999 -0.5c13.333 0 29.333 0.333008 48 1
s37.834 1.66699 57.501 3s38.834 3 57.501 5s34.667 4.33301 48 7zM779.994 693.998c-2 -44.667 -9.99902 -84.0029 -23.999 -118.003s-31.833 -63.333 -53.5 -88s-45.667 -45.167 -72 -61.5s-53 -29.5 -80 -39.5s-53 -17 -78 -21s-46.5 -6 -64.5 -6
s-38.833 1.66699 -62.5 5s-47.667 9.83301 -72 19.5s-48.333 22.667 -72 39s-44.834 37.333 -63.501 63s-33.667 56.834 -45 93.501s-17 79.667 -17 129c0 46.667 5.66699 87.667 17 123s26.5 65.833 45.5 91.5s40.667 46.834 65 63.501s49.333 30.167 75 40.5
s51.167 17.666 76.5 21.999s48.333 6.83301 69 7.5c39.333 0 80 -6.16699 122 -18.5s80.333 -32.666 115 -60.999s63.167 -65.666 85.5 -111.999s33.5 -103.5 33.5 -171.5z" />
    <glyph glyph-name="ordfeminine" unicode="&#xaa;" horiz-adv-x="762" 
d="M666 1233c0 -54.667 -3.66992 -109.669 -11.0029 -165.002l-22 -173h-156v29c-25.333 -15.333 -53.833 -26 -85.5 -32s-62.5 -9 -92.5 -9c-26 0 -51.667 2.16699 -77 6.5s-48.166 12 -68.499 23s-36.666 26.333 -48.999 46s-18.5 44.834 -18.5 75.501
c0 23.333 4.83301 45.166 14.5 65.499s24.5 38 44.5 53s45 26.667 75 35s65.333 12.5 106 12.5c16 0 38 -1.66699 66 -5s57 -11.333 87 -24c-1.33301 28 -2.83301 56.167 -4.5 84.5s-3.5 57.5 -5.5 87.5c-12.667 2.66699 -26.5 4.5 -41.5 5.5s-29.167 1.5 -42.5 1.5
s-27.166 -0.833008 -41.499 -2.5s-29.166 -3.83398 -44.499 -6.50098c-5.33301 -12 -9 -24.167 -11 -36.5s-3 -24.5 -3 -36.5v-15.5c0 -5 0.666992 -10.167 2 -15.5h-199c8 34 20 63 36 87s34 44 54 60s41 28.667 63 38s43 16.333 63 21s37.667 7.66699 53 9
s26.666 2 33.999 2c58 0 105 -6.66699 141 -20s63.833 -30.666 83.5 -51.999s33 -45.166 40 -71.499s10.5 -52.166 10.5 -77.499zM267.997 982.998c36 0 71.499 1.33008 106.499 3.99707s69.833 6 104.5 10c1.33301 16.667 2 33.167 2 49.5v49.5v30
c-41.333 -1.33301 -80.666 -4.66602 -117.999 -9.99902s-75 -12 -113 -20c-1.33301 -7.33301 -2.33301 -13.666 -3 -18.999s-1 -10.666 -1 -15.999c0 -13.333 1.66699 -26 5 -38s9 -25.333 17 -40z" />
    <glyph glyph-name="guillemotleft" unicode="&#xab;" horiz-adv-x="1851" 
d="M821 -59l-99.998 47.498l-117.5 56l-126 60.5l-124.5 60l-292 142l-6 240c124 72.667 242.167 146.334 354.5 221.001s221.5 151 327.5 229l144 -145c-110 -51.333 -214.833 -106 -314.5 -164s-194.834 -121.333 -285.501 -190
c35.333 -17.333 75.666 -35.333 120.999 -54l140 -55.5l142 -52.5l127 -45l96 -34c26 -9.33301 41.667 -15.666 47 -18.999zM1659 -59.002l-100.5 47.501l-118.5 56l-126 60.5l-124 60l-291 142l-6 240c124 72.667 242.167 146.334 354.5 221.001s221.5 151 327.5 229
l143 -145c-110 -51.333 -214.833 -106 -314.5 -164s-194.834 -121.333 -285.501 -190c106 -52.667 215.333 -98.334 328 -137.001s229.334 -72.334 350.001 -101.001z" />
    <glyph glyph-name="logicalnot" unicode="&#xac;" horiz-adv-x="1442" 
d="M1319 225h-376.999l23 377l-875 -2v291h181c68 0 139.5 0.166992 214.5 0.5s151.667 0.5 230 0.5s154.166 0.166992 227.499 0.5s142.333 0.5 207 0.5h169v-668z" />
    <glyph glyph-name="uni00AD" unicode="&#xad;" horiz-adv-x="1059" 
d="M938 602h-147c-46 0 -90.333 -0.166992 -133 -0.5s-84.834 -0.5 -126.501 -0.5s-84 -0.166992 -127 -0.5s-88 -0.5 -135 -0.5h-150.5v291c78.667 0 152.167 0.166992 220.5 0.5s134.833 0.5 199.5 0.5s129.334 0.166992 194.001 0.5s133 0.5 205 0.5v-291z" />
    <glyph glyph-name="registered" unicode="&#xae;" horiz-adv-x="856" 
d="M782 1083c-2 -44.667 -9.99902 -83.8311 -23.999 -117.498s-31.833 -62.834 -53.5 -87.501s-45.667 -45.334 -72 -62.001s-53 -29.834 -80 -39.501s-53 -16.5 -78 -20.5s-46.5 -6 -64.5 -6s-38.833 1.66699 -62.5 5s-47.667 9.66602 -72 18.999
s-48.333 22.166 -72 38.499s-44.834 37.333 -63.501 63s-33.667 56.834 -45 93.501s-17 79.667 -17 129c0 46.667 5.66699 87.667 17 123s26.5 65.833 45.5 91.5s40.667 46.834 65 63.501s49.333 30.167 75 40.5s51.167 17.666 76.5 21.999s48.333 6.83301 69 7.5
c39.333 0 80 -6.16699 122 -18.5s80.333 -32.666 115 -60.999s63.167 -65.666 85.5 -111.999s33.5 -103.5 33.5 -171.5zM616.001 874.003c5.33301 37.333 9.16602 75.166 11.499 113.499s3.5 76.5 3.5 114.5s-1.16699 76.167 -3.5 114.5s-6.16602 76.5 -11.499 114.5
c-11.333 2 -25.333 3.66699 -42 5s-33.667 2.5 -51 3.5s-34.333 1.83301 -51 2.5s-30.667 1 -42 1s-26 -0.333008 -44 -1s-36.5 -1.5 -55.5 -2.5s-37.5 -2.16699 -55.5 -3.5s-32.667 -3 -44 -5c-5.33301 -32 -9 -64.333 -11 -97s-3 -65 -3 -97
c0 -46.667 2.5 -92.5 7.5 -137.5s12.167 -90.167 21.5 -135.5c8 -1.33301 19.5 -2.33301 34.5 -3s30.5 -1.16699 46.5 -1.5s31.167 -0.666016 45.5 -0.999023s25.5 -0.5 33.5 -0.5c13.333 0 29.333 0.333008 48 1s37.667 1.66699 57 3s38.333 3 57 5s34.667 4.33301 48 7z
M580.001 1176c0 -27.333 -8.16602 -50.1699 -24.499 -68.5029s-38.5 -33.166 -66.5 -44.499l111 -137l-115 -13l-73 127c-5.33301 -1.33301 -10.666 -2.33301 -15.999 -3s-11 -1 -17 -1c2 -17.333 3.66699 -35.333 5 -54s3.66602 -38.667 6.99902 -60l-119 -9
c3.33301 43.333 6 86.333 8 129s3 85 3 127c0 22.667 -0.166992 41.834 -0.5 57.501s-1.5 34.834 -3.5 57.501c20 6 40.333 10.667 61 14s42.667 5 66 5c16.667 0 35.167 -1.83301 55.5 -5.5s39.166 -10.334 56.499 -20.001s32 -22.667 44 -39s18 -37.166 18 -62.499z
M373.002 1249v-79.499c0 -25 0.666992 -50.833 2 -77.5h12c30 0 58.667 2 86 6c2 9.33301 3.5 19.833 4.5 31.5s1.5 23.5 1.5 35.5c0 16.667 -0.833008 32.667 -2.5 48s-4.16699 28.666 -7.5 39.999h-18c-8 0 -16.5 -0.166992 -25.5 -0.5s-17.5 -0.833008 -25.5 -1.5z" />
    <glyph glyph-name="macron" unicode="&#xaf;" horiz-adv-x="702" 
d="M702 1247h-702v211h702v-211z" />
    <glyph glyph-name="degree" unicode="&#xb0;" horiz-adv-x="707" 
d="M449 1110c4 34.667 6 70.333 6 107c0 33.333 -2 66.666 -6 99.999c-7.33301 0 -13.666 0.333008 -18.999 1s-10.666 1 -15.999 1c-30 0 -58.833 -1.33301 -86.5 -4s-54.834 -6.66699 -81.501 -12c-3.33301 -15.333 -5.5 -31.166 -6.5 -47.499s-1.5 -32.833 -1.5 -49.5
c0 -15.333 0.5 -31 1.5 -47s3.16699 -32.333 6.5 -49c34.667 -4 68 -6 100 -6c33.333 0 67.666 2 102.999 6zM637 1200c0 -31.333 -7.33301 -60.666 -22 -87.999s-34.834 -51.166 -60.501 -71.499s-55.667 -36.333 -90 -48s-71.166 -17.5 -110.499 -17.5
s-76.166 5.83301 -110.499 17.5s-64.333 27.667 -90 48s-46 44.166 -61 71.499s-22.5 56.666 -22.5 87.999s7.5 60.833 22.5 88.5s35.333 51.667 61 72s55.667 36.5 90 48.5s71.166 18 110.499 18s76.166 -6 110.499 -18s64.333 -28.167 90 -48.5s45.834 -44.333 60.501 -72
s22 -57.167 22 -88.5z" />
    <glyph glyph-name="plusminus" unicode="&#xb1;" horiz-adv-x="1137" 
d="M1038 643c-123.333 0 -247.337 -1.99805 -372.004 -5.99805c1.33301 -47.333 3.33301 -94.333 6 -141s6 -93.334 10 -140.001l-320 -43c5.33301 52 10 103.667 14 155s7 103 9 155c-49.333 -3.33301 -98.166 -7 -146.499 -11l-144.5 -12v291
c48 1.33301 96.167 2.16602 144.5 2.49902s96.5 1.5 144.5 3.5c-2 43.333 -4.66699 86.333 -8 129s-7.66602 85 -12.999 127h320c-3.33301 -41.333 -6.16602 -82.333 -8.49902 -123s-4.16602 -81.667 -5.49902 -123c124 6 247.333 15 370 27v-291zM1038 -32.998
c-157.333 0 -314.332 -3.5 -470.999 -10.5s-314.334 -17.833 -473.001 -32.5v291c158 3.33301 315.5 7.5 472.5 12.5s314.167 15.167 471.5 30.5v-291z" />
    <glyph glyph-name="twosuperior" unicode="&#xb2;" horiz-adv-x="823" 
d="M715 709l-596.001 0.000976562c-1.33301 6 -2 11.833 -2 17.5v16.5c0 59.333 10.333 109.833 31 151.5s48.834 77.5 84.501 107.5s77 55.5 124 76.5s96.833 40.5 149.5 58.5c3.33301 14 5.5 28.5 6.5 43.5s1.5 29.833 1.5 44.5c0 19.333 -1 37.833 -3 55.5
s-5 35.834 -9 54.501c-13.333 1.33301 -27.166 2.33301 -41.499 3s-28.5 1 -42.5 1c-39.333 0 -80.333 -4 -123 -12c-4 -31.333 -6 -62.666 -6 -93.999c0 -26 2 -51.333 6 -76h-199v39c0 33.333 4.66699 62.666 14 87.999s21.666 47.5 36.999 66.5
s32.666 34.833 51.999 47.5s39.333 23.334 60 32.001c47.333 19.333 101.666 30.666 162.999 33.999c50.667 0 94.167 -5.66699 130.5 -17s66.333 -26.833 90 -46.5s41 -43 52 -70s16.5 -56.167 16.5 -87.5c0 -34 -6.66699 -64.333 -20 -91s-30.666 -50.334 -51.999 -71.001
s-45.5 -38.834 -72.5 -54.501s-54.5 -29.5 -82.5 -41.5s-55.167 -22.333 -81.5 -31s-49.166 -16.667 -68.499 -24l-6 -72h374z" />
    <glyph glyph-name="threesuperior" unicode="&#xb3;" horiz-adv-x="805" 
d="M717 893c0 -34 -10.167 -63.8301 -30.5 -89.4971s-46.5 -47.334 -78.5 -65.001s-67.5 -31.334 -106.5 -41.001s-77.167 -15.5 -114.5 -17.5c-36 0 -72 4.83301 -108 14.5s-68.5 23.667 -97.5 42s-53 40.666 -72 66.999s-29.5 56.166 -31.5 89.499l188 14
c1.33301 -20.667 4.5 -40.834 9.5 -60.501s12.167 -39.167 21.5 -58.5c30 0 60.667 0.833008 92 2.5s63.333 4.5 96 8.5c3.33301 14 6 27.833 8 41.5s3 27.834 3 42.501c0 32 -4.33301 64 -13 96c-25.333 5.33301 -50.833 9 -76.5 11s-51.834 3 -78.501 3h-31
c-10 0 -20.333 -0.666992 -31 -2l2 86c78.667 4 154 15 226 33c5.33301 16.667 9 33.5 11 50.5s3 33.5 3 49.5c0 18.667 -1.33301 36.834 -4 54.501s-6 35.167 -10 52.5c-13.333 2 -26.666 3.16699 -39.999 3.5s-26.666 0.5 -39.999 0.5c-33.333 0 -66.333 -2 -99 -6
c-3.33301 -14.667 -5.5 -29.167 -6.5 -43.5s-1.5 -28.5 -1.5 -42.5c0 -12.667 0.5 -25 1.5 -37s3.16699 -24.333 6.5 -37l-211 -8c-1.33301 8 -2.33301 16 -3 24s-1 15.667 -1 23c0 32.667 4.33301 61.334 13 86.001s20.334 46.167 35.001 64.5s31.167 33.833 49.5 46.5
s37.166 23 56.499 31c45.333 19.333 96.666 30.666 153.999 33.999c58 0 106.667 -7.33301 146 -22s71 -33.5 95 -56.5s41.333 -48.667 52 -77s16 -56.166 16 -83.499c0 -20 -3.33301 -38.5 -10 -55.5s-15.834 -32.833 -27.501 -47.5s-25.167 -27.834 -40.5 -39.501
s-31.666 -22.5 -48.999 -32.5c30.667 -13.333 54.667 -28.5 72 -45.5s30 -33.167 38 -48.5c9.33301 -18 15 -36.333 17 -55z" />
    <glyph glyph-name="acute" unicode="&#xb4;" horiz-adv-x="496" 
d="M496 1464l-361 -321l-135 35l258 381z" />
    <glyph glyph-name="mu" unicode="&#xb5;" horiz-adv-x="1245" 
d="M1184 635c0 -57.333 -2.83691 -113.495 -8.50391 -168.495s-15.667 -107.333 -30 -157s-34 -96 -59 -139s-56.5 -80.833 -94.5 -113.5s-83.667 -59.5 -137 -80.5s-115.666 -34.167 -186.999 -39.5c-41.333 0 -80.166 2.33301 -116.499 7s-70.5 11.667 -102.5 21
c-1.33301 -72.667 -1.5 -145.334 -0.5 -218.001s3.16699 -145.334 6.5 -218.001h-310c0 78 -1.5 156 -4.5 234l-9.5 236c-3.33301 79.333 -6.5 159.5 -9.5 240.5s-4.5 163.5 -4.5 247.5v37.5c0 20.333 0.333008 45.666 1 75.999s1.5 64.333 2.5 102
s2.83301 76.167 5.5 115.5s5.83398 78 9.50098 116s8.5 72.667 14.5 104h350c-12.667 -66 -22 -135.667 -28 -209s-9 -148.333 -9 -225c0 -70.667 2.83301 -140.834 8.5 -210.501s15.167 -135.834 28.5 -198.501c24.667 -3.33301 48.834 -6 72.501 -8s47.167 -3 70.5 -3
c22.667 0 46 1 70 3s47.667 4.66699 71 8c7.33301 62.667 13 128.5 17 197.5s6 138.833 6 209.5c0 77.333 -2 152.833 -6 226.5s-9.66699 143.5 -17 209.5h363c14.667 -78 24.5 -151.667 29.5 -221s7.5 -130 7.5 -182z" />
    <glyph glyph-name="paragraph" unicode="&#xb6;" horiz-adv-x="1812" 
d="M1307 -8c7.33301 104 12.168 207.839 14.501 311.506s3.5 207.167 3.5 310.5c0 99.333 -1.16699 198.166 -3.5 296.499s-7.16602 196.833 -14.499 295.5h-179c-8 -103.333 -13.667 -205.333 -17 -306s-5 -202.667 -5 -306c0 -110 1.66699 -219.5 5 -328.5
s9 -218.5 17 -328.5h-464l34.5 255c11 83.333 21.167 167.333 30.5 252c-23.333 -9.33301 -46.666 -16.833 -69.999 -22.5s-45 -9.83398 -65 -12.501s-37.667 -4.33398 -53 -5.00098s-26.333 -1 -33 -1c-59.333 0 -116 9.83301 -170 29.5s-101.333 50 -142 91
s-73 93 -97 156s-36 137.5 -36 223.5c0 75.333 11.5 140.666 34.5 195.999s54.5 102.666 94.5 141.999s87 71.166 141 95.499s112 43.5 174 57.5s126.333 23.5 193 28.5s133 7.5 199 7.5c42.667 0 91.667 -0.5 147 -1.5s115.166 -3 179.499 -6
s132.166 -7.16699 203.499 -12.5s144.666 -12.333 219.999 -21c-3.33301 -58.667 -5.33301 -117.167 -6 -175.5s-1 -116.833 -1 -175.5c0 -172 4.33301 -342.667 13 -512s21.667 -340 39 -512zM743.002 573.006c10.667 104 19.001 207.832 25.001 311.499
s10.667 209.5 14 317.5c-26.667 3.33301 -53.167 5.83301 -79.5 7.5s-52.833 2.5 -79.5 2.5c-27.333 0 -54 -0.833008 -80 -2.5s-51.333 -4.16699 -76 -7.5c-13.333 -76.667 -23.833 -150.5 -31.5 -221.5s-11.5 -142.5 -11.5 -214.5c0 -30 0.666992 -60.167 2 -90.5
s4 -61.5 8 -93.5c35.333 -3.33301 70.166 -5.66602 104.499 -6.99902s68.5 -2 102.5 -2h102z" />
    <glyph glyph-name="periodcentered" unicode="&#xb7;" horiz-adv-x="563" 
d="M467 758c0 -19.333 -4.83301 -37.666 -14.5 -54.999s-23 -32.5 -40 -45.5s-36.667 -23.167 -59 -30.5s-45.833 -11 -70.5 -11c-26 0 -50.5 3.66699 -73.5 11s-42.833 17.5 -59.5 30.5s-29.834 28.167 -39.501 45.5s-14.5 35.666 -14.5 54.999
c0 20 4.83301 38.667 14.5 56s22.834 32.5 39.501 45.5s36.5 23.167 59.5 30.5s47.5 11 73.5 11c24.667 0 48.167 -3.66699 70.5 -11s42 -17.5 59 -30.5s30.333 -28.167 40 -45.5s14.5 -36 14.5 -56z" />
    <glyph glyph-name="cedilla" unicode="&#xb8;" horiz-adv-x="500" 
d="M500 -287c0 -36 -8.83301 -66.332 -26.5 -90.999s-39.167 -44.834 -64.5 -60.501s-51.833 -27 -79.5 -34s-51.5 -10.5 -71.5 -10.5c-16.667 -0.666992 -37.334 0 -62.001 2c-21.333 1.33301 -48 3.33301 -80 6s-70.667 6.66699 -116 12v119c42.667 -4 85 -6 127 -6
c20.667 0 41 0.5 61 1.5s40.667 2.5 62 4.5c3.33301 10 5.5 20.5 6.5 31.5s1.5 21.5 1.5 31.5c0 10.667 -0.5 21 -1.5 31s-3.16699 20.333 -6.5 31c-15.333 2 -31.166 3.83301 -47.499 5.5s-32.5 2.5 -48.5 2.5c-15.333 0 -31.666 -0.833008 -48.999 -2.5
s-34.666 -3.5 -51.999 -5.5c4 10 11.833 25.667 23.5 47l40 70.5l48 79c17 27 33.167 51.5 48.5 73.5h131l-80 -184c29.333 -1.33301 55.166 -4.5 77.499 -9.5s41.833 -11.333 58.5 -19s30.667 -16 42 -25s20.666 -18.167 27.999 -27.5c17.333 -22 27.333 -46.333 30 -73z
" />
    <glyph glyph-name="onesuperior" unicode="&#xb9;" horiz-adv-x="532" 
d="M184 713c6.66699 68.667 11.833 137.501 15.5 206.501s5.5 137.833 5.5 206.5c0 33.333 -0.666992 66.166 -2 98.499l-4 98.5l-144 4v113c58.667 0 117.167 1.83301 175.5 5.5s116.833 8.5 175.5 14.5c-2.66699 -43.333 -4.5 -86 -5.5 -128s-1.5 -84.667 -1.5 -128
c0 -82.667 2 -164.5 6 -245.5s9 -162.833 15 -245.5h-236z" />
    <glyph glyph-name="ordmasculine" unicode="&#xba;" horiz-adv-x="719" 
d="M463 1010c2 28 3.16504 55.168 3.49805 81.501s0.5 52.833 0.5 79.5c0 27.333 -0.166992 53.833 -0.5 79.5s-1.5 52.5 -3.5 80.5c-11.333 2 -22.666 3.16699 -33.999 3.5s-22.666 0.5 -33.999 0.5c-23.333 0 -46.333 -1 -69 -3s-44.667 -5.66699 -66 -11
c-1.33301 -18.667 -2.33301 -36.834 -3 -54.501s-1 -35.167 -1 -52.5c0 -36 1.33301 -71.667 4 -107s6.66699 -72 12 -110h47c48.667 0 96.667 4.33301 144 13zM646.998 1167c0 -40 -7.66699 -77.499 -23 -112.499s-36.333 -65.5 -63 -91.5s-58 -46.5 -94 -61.5
s-74.333 -22.5 -115 -22.5s-77.834 7.5 -111.501 22.5s-62.667 35.5 -87 61.5s-43.333 56.5 -57 91.5s-20.5 72.5 -20.5 112.5c0 48.667 6.83301 91 20.5 127s32.667 65.833 57 89.5s53.333 41.334 87 53.001s70.834 17.5 111.501 17.5s79 -6.5 115 -19.5
s67.333 -31.833 94 -56.5s47.667 -54.834 63 -90.501s23 -75.834 23 -120.501z" />
    <glyph glyph-name="guillemotright" unicode="&#xbb;" horiz-adv-x="1851" 
d="M897 238c6 3.33301 21.835 9.66797 47.502 19.001l96 34l127.5 45l142 52.5l140 55.5c45.333 18.667 85.666 36.667 120.999 54c-90.667 68.667 -185.834 132 -285.501 190s-204.5 112.667 -314.5 164l143 145c106 -78 215.167 -154.333 327.5 -229
s230.5 -148.334 354.5 -221.001l-6 -240l-292 -142l-124.5 -60l-126 -60.5l-117.5 -56l-100 -47.5zM55.002 260.002c120.667 28.667 237.334 62.333 350.001 101s222 84.334 328 137.001c-90.667 68.667 -185.834 132 -285.501 190s-204.5 112.667 -314.5 164l143 145
c106 -78 215.333 -154.333 328 -229s230.667 -148.334 354 -221.001l-6 -240l-291 -142l-124 -60l-126 -60.5l-118 -56l-100 -47.5z" />
    <glyph glyph-name="onequarter" unicode="&#xbc;" horiz-adv-x="1358" 
d="M1094 1432l-433.5 -723l-408.5 -744l-172 51l430 716c138 238 270.333 477.333 397 718zM1276 276l-72 0.000976562v-45c0 -34.667 0.333008 -69.834 1 -105.501s1 -71.5 1 -107.5l-219 -10c3.33301 44 6.33301 88.333 9 133l8 135
c-60.667 -1.33301 -121 -2.83301 -181 -4.5s-120 -3.5 -180 -5.5c23.333 80.667 42.833 160.667 58.5 240s25.5 158.333 29.5 237h154c-13.333 -60.667 -24.833 -120.667 -34.5 -180s-16.834 -119.333 -21.501 -180c14.667 -1.33301 28.834 -2 42.501 -2h43.5h93
c1.33301 28 2.33301 56.167 3 84.5s1 56.833 1 85.5c0 30 -0.333008 59.333 -1 88s-1.66699 58 -3 88h217c-5.33301 -58 -9.5 -115 -12.5 -171s-5.16699 -112.333 -6.5 -169l88 6zM209 713.001c6 68.667 10.833 137.501 14.5 206.501s5.5 137.833 5.5 206.5
c0 33.333 -0.666992 66.166 -2 98.499l-4 98.5l-143 4v113c58.667 0 117 1.83301 175 5.5s116.333 8.5 175 14.5c-4 -86 -6 -171.333 -6 -256c0 -82.667 1.83301 -164.5 5.5 -245.5s8.5 -162.833 14.5 -245.5h-235z" />
    <glyph glyph-name="onehalf" unicode="&#xbd;" 
d="M201 713c6 68.667 10.833 137.501 14.5 206.501s5.5 137.833 5.5 206.5c0 33.333 -0.666992 66.166 -2 98.499l-4 98.5l-143 4v113c58.667 0 117 1.83301 175 5.5s116.333 8.5 175 14.5c-4 -86 -6 -171.333 -6 -256c0 -82.667 1.83301 -164.5 5.5 -245.5
s8.5 -162.833 14.5 -245.5h-235zM1085 1432l-433 -723l-408 -744l-172 51l430 716c138 238 270.333 477.333 397 718zM1262 -11.999l-595.999 0.000976562c-1.33301 6 -2 12 -2 18v17c0 59.333 10.333 109.833 31 151.5s48.834 77.334 84.501 107.001s77 55 124 76
s96.833 40.5 149.5 58.5c3.33301 14 5.5 28.5 6.5 43.5s1.5 29.833 1.5 44.5c0 37.333 -4 74 -12 110c-13.333 1.33301 -27.166 2.33301 -41.499 3s-28.5 1 -42.5 1c-39.333 0 -80.333 -4 -123 -12c-4 -31.333 -6 -62.666 -6 -93.999c0 -26 2 -51.333 6 -76h-199v39
c0 33.333 4.66699 62.666 14 87.999s21.666 47.5 36.999 66.5s32.666 34.833 51.999 47.5s39.333 23.334 60 32.001c47.333 19.333 101.666 30.666 162.999 33.999c50.667 0 94.167 -5.66699 130.5 -17s66.166 -26.833 89.499 -46.5s40.5 -43 51.5 -70
s16.5 -56.167 16.5 -87.5c0 -34 -6.66699 -64.333 -20 -91s-30.666 -50.334 -51.999 -71.001s-45.5 -38.834 -72.5 -54.501s-54.5 -29.5 -82.5 -41.5s-55 -22.333 -81 -31s-48.667 -16.667 -68 -24l-7 -72h375z" />
    <glyph glyph-name="threequarters" unicode="&#xbe;" horiz-adv-x="1571" 
d="M707 893c0 -34 -10.165 -63.8311 -30.498 -89.498s-46.5 -47.334 -78.5 -65.001s-67.5 -31.334 -106.5 -41.001s-77.167 -15.5 -114.5 -17.5c-36.667 0 -73 4.83301 -109 14.5s-68.5 23.667 -97.5 42s-52.833 40.666 -71.5 66.999s-29 56.166 -31 89.499l188 14
c2 -41.333 12.333 -81 31 -119c30 0 60.667 0.833008 92 2.5s63.333 4.5 96 8.5c3.33301 14 5.83301 27.833 7.5 41.5s2.5 27.834 2.5 42.501c0 30.667 -4 62.667 -12 96c-25.333 5.33301 -50.833 9 -76.5 11s-52.167 3 -79.5 3h-30.5c-10.333 0 -20.5 -0.666992 -30.5 -2
l2 86c79.333 4 154.333 15 225 33c5.33301 16.667 9.16602 33.5 11.499 50.5s3.5 33.5 3.5 49.5c0 18.667 -1.33301 36.834 -4 54.501s-6.33398 35.167 -11.001 52.5c-13.333 2 -26.666 3.16699 -39.999 3.5s-26.666 0.5 -39.999 0.5c-32.667 0 -65.334 -2 -98.001 -6
c-3.33301 -14.667 -5.5 -29.167 -6.5 -43.5s-1.5 -28.5 -1.5 -42.5c0 -12.667 0.5 -25 1.5 -37s3.16699 -24.333 6.5 -37l-211 -8c-1.33301 8 -2.33301 16 -3 24s-1 15.667 -1 23c0 32.667 4.33301 61.334 13 86.001s20.167 46.167 34.5 64.5s30.666 33.833 48.999 46.5
s37.166 23 56.499 31c45.333 19.333 96.666 30.666 153.999 33.999c58 0 106.833 -7.33301 146.5 -22s71.5 -33.5 95.5 -56.5s41.333 -48.667 52 -77s16 -56.166 16 -83.499c0 -20 -3.33301 -38.5 -10 -55.5s-15.834 -32.833 -27.501 -47.5s-25.167 -27.834 -40.5 -39.501
s-31.666 -22.5 -48.999 -32.5c30.667 -13.333 54.334 -28.5 71.001 -45.5s29.334 -33.167 38.001 -48.5c9.33301 -18 15.333 -36.333 18 -55zM1307 1432l-433.5 -723l-408.5 -744l-172 51l430 716c138 238 270.333 477.333 397 718zM1489 276.002l-72 0.000976562v-45
c0 -34.667 0.333008 -69.834 1 -105.501s1 -71.5 1 -107.5l-219 -10c3.33301 44 6.33301 88.333 9 133l8 135c-60.667 -1.33301 -121 -2.83301 -181 -4.5s-120 -3.5 -180 -5.5c23.333 80.667 42.833 160.667 58.5 240s25.5 158.333 29.5 237h154
c-13.333 -60.667 -24.833 -120.667 -34.5 -180s-16.834 -119.333 -21.501 -180c14.667 -1.33301 28.834 -2 42.501 -2h43.5h93c1.33301 28 2.33301 56.167 3 84.5s1 56.833 1 85.5c0 30 -0.333008 59.333 -1 88s-1.66699 58 -3 88h217c-5.33301 -58 -9.5 -115 -12.5 -171
s-5.16699 -112.333 -6.5 -169l88 6z" />
    <glyph glyph-name="questiondown" unicode="&#xbf;" horiz-adv-x="1290" 
d="M520 1184c0 22 5.33301 42.667 16 62s25.167 36.166 43.5 50.499s40 25.666 65 33.999s51.833 12.5 80.5 12.5s55.5 -4.16699 80.5 -12.5s46.667 -19.666 65 -33.999s32.833 -31.166 43.5 -50.499s16 -40 16 -62c0 -21.333 -5.33301 -41.666 -16 -60.999
s-25.167 -36.166 -43.5 -50.499s-40 -25.666 -65 -33.999s-51.833 -12.5 -80.5 -12.5s-55.5 4.16699 -80.5 12.5s-46.667 19.666 -65 33.999s-32.833 31.166 -43.5 50.499s-16 39.666 -16 60.999zM59 205c4.66699 63.333 24 125.007 58 185.007
c14.667 25.333 33 51.666 55 78.999s49.167 54.166 81.5 80.499s70.333 51.5 114 75.5s94.5 45.667 152.5 65l27 211h319c-2 -10 -3.16699 -20.167 -3.5 -30.5s-0.5 -20.5 -0.5 -30.5c0 -83.333 10.333 -165.333 31 -246c-72.667 -8 -144.667 -18.833 -216 -32.5
s-141.333 -30.834 -210 -51.501c-4 -40 -7.33301 -80 -10 -120s-4 -80 -4 -120c0 -102 8 -204.333 24 -307c42.667 -4 85.667 -6 129 -6s86.833 2.16699 130.5 6.5s87.5 11.166 131.5 20.499c1.33301 13.333 2 26.166 2 38.499v38.5c0 46.667 -3.83301 92.834 -11.5 138.501
s-18.167 91.167 -31.5 136.5l324 31c16 -16.667 28.833 -35.834 38.5 -57.501s17.167 -43.834 22.5 -66.501s8.83301 -44.834 10.5 -66.501s2.5 -40.834 2.5 -57.501c0 -17.333 -1.5 -39.666 -4.5 -66.999s-10 -56.5 -21 -87.5s-27.833 -62.167 -50.5 -93.5
s-53.5 -59.5 -92.5 -84.5s-87.667 -45.5 -146 -61.5s-129.166 -24 -212.499 -24c-116.667 0 -215.667 12.167 -297 36.5s-147.333 58.5 -198 102.5s-87.334 97 -110.001 159s-34 130.667 -34 206z" />
    <glyph glyph-name="Agrave" unicode="&#xc0;" horiz-adv-x="1542" 
d="M1360 -61l-129.494 17.501c-37 5 -71.667 9 -104 12s-63.833 5.16699 -94.5 6.5s-64 2 -100 2c17.333 58 32.166 117.333 44.499 178s22.166 123 29.499 187c-40 1.33301 -81 2.33301 -123 3s-83.667 1 -125 1c-84.667 0 -166 -2 -244 -6
c3.33301 -60 8 -119.833 14 -179.5s13.667 -119.167 23 -178.5l-127 -9c-37.333 -2.66699 -70.333 -5.16699 -99 -7.5s-53.334 -4.66602 -74.001 -6.99902s-38.334 -4.5 -53.001 -6.5c-34 -4.66699 -57 -9 -69 -13c-8.66699 43.333 -15.834 89 -21.501 137
s-10 95.833 -13 143.5s-5.16699 94.167 -6.5 139.5s-2 87.333 -2 126c0 80.667 3.16699 161.667 9.5 243s18.333 159.666 36 234.999s42.167 145.5 73.5 210.5s72.333 121.667 123 170s112 86.333 184 114s157.333 41.5 256 41.5c101.333 0 194.333 -15.5 279 -46.5
s157.5 -78.833 218.5 -143.5s108.333 -146.834 142 -246.501s50.5 -218.167 50.5 -355.5c0 -35.333 -0.833008 -79.333 -2.5 -132s-5.83398 -112 -12.501 -178s-16.5 -137.833 -29.5 -215.5s-30.833 -158.5 -53.5 -242.5zM688.006 600.001
c58 0 115.832 1.16797 173.499 3.50098s112.5 6.5 164.5 12.5c1.33301 15.333 2 30.833 2 46.5v48.5c0 101.333 -4.5 199 -13.5 293s-22.167 181.333 -39.5 262c-15.333 1.33301 -32.166 2.33301 -50.499 3s-37.833 1 -58.5 1c-27.333 0 -55.5 -0.5 -84.5 -1.5
s-57.333 -2.33301 -85 -4s-54.167 -3.83398 -79.5 -6.50098s-47.333 -5.66699 -66 -9c-14.667 -106 -25.5 -212.5 -32.5 -319.5s-10.5 -215.5 -10.5 -325.5c28.667 -2 58.167 -3.16699 88.5 -3.5s60.833 -0.5 91.5 -0.5zM537.005 1948l258 -381l-136 -35l-360 321z" />
    <glyph glyph-name="Aacute" unicode="&#xc1;" horiz-adv-x="1542" 
d="M1360 -61l-129.494 17.501c-37 5 -71.667 9 -104 12s-63.833 5.16699 -94.5 6.5s-64 2 -100 2c17.333 58 32.166 117.333 44.499 178s22.166 123 29.499 187c-40 1.33301 -81 2.33301 -123 3s-83.667 1 -125 1c-84.667 0 -166 -2 -244 -6
c3.33301 -60 8 -119.833 14 -179.5s13.667 -119.167 23 -178.5l-127 -9c-37.333 -2.66699 -70.333 -5.16699 -99 -7.5s-53.334 -4.66602 -74.001 -6.99902s-38.334 -4.5 -53.001 -6.5c-34 -4.66699 -57 -9 -69 -13c-8.66699 43.333 -15.834 89 -21.501 137
s-10 95.833 -13 143.5s-5.16699 94.167 -6.5 139.5s-2 87.333 -2 126c0 80.667 3.16699 161.667 9.5 243s18.333 159.666 36 234.999s42.167 145.5 73.5 210.5s72.333 121.667 123 170s112 86.333 184 114s157.333 41.5 256 41.5c101.333 0 194.333 -15.5 279 -46.5
s157.5 -78.833 218.5 -143.5s108.333 -146.834 142 -246.501s50.5 -218.167 50.5 -355.5c0 -35.333 -0.833008 -79.333 -2.5 -132s-5.83398 -112 -12.501 -178s-16.5 -137.833 -29.5 -215.5s-30.833 -158.5 -53.5 -242.5zM688.006 600.001
c58 0 115.832 1.16797 173.499 3.50098s112.5 6.5 164.5 12.5c1.33301 15.333 2 30.833 2 46.5v48.5c0 101.333 -4.5 199 -13.5 293s-22.167 181.333 -39.5 262c-15.333 1.33301 -32.166 2.33301 -50.499 3s-37.833 1 -58.5 1c-27.333 0 -55.5 -0.5 -84.5 -1.5
s-57.333 -2.33301 -85 -4s-54.167 -3.83398 -79.5 -6.50098s-47.333 -5.66699 -66 -9c-14.667 -106 -25.5 -212.5 -32.5 -319.5s-10.5 -215.5 -10.5 -325.5c28.667 -2 58.167 -3.16699 88.5 -3.5s60.833 -0.5 91.5 -0.5zM1217 1867l-361 -321l-135 35l258 381z" />
    <glyph glyph-name="Acircumflex" unicode="&#xc2;" horiz-adv-x="1542" 
d="M1360 -61l-129.494 17.501c-37 5 -71.667 9 -104 12s-63.833 5.16699 -94.5 6.5s-64 2 -100 2c17.333 58 32.166 117.333 44.499 178s22.166 123 29.499 187c-40 1.33301 -81 2.33301 -123 3s-83.667 1 -125 1c-84.667 0 -166 -2 -244 -6
c3.33301 -60 8 -119.833 14 -179.5s13.667 -119.167 23 -178.5l-127 -9c-37.333 -2.66699 -70.333 -5.16699 -99 -7.5s-53.334 -4.66602 -74.001 -6.99902s-38.334 -4.5 -53.001 -6.5c-34 -4.66699 -57 -9 -69 -13c-8.66699 43.333 -15.834 89 -21.501 137
s-10 95.833 -13 143.5s-5.16699 94.167 -6.5 139.5s-2 87.333 -2 126c0 80.667 3.16699 161.667 9.5 243s18.333 159.666 36 234.999s42.167 145.5 73.5 210.5s72.333 121.667 123 170s112 86.333 184 114s157.333 41.5 256 41.5c101.333 0 194.333 -15.5 279 -46.5
s157.5 -78.833 218.5 -143.5s108.333 -146.834 142 -246.501s50.5 -218.167 50.5 -355.5c0 -35.333 -0.833008 -79.333 -2.5 -132s-5.83398 -112 -12.501 -178s-16.5 -137.833 -29.5 -215.5s-30.833 -158.5 -53.5 -242.5zM688.006 600.001
c58 0 115.832 1.16797 173.499 3.50098s112.5 6.5 164.5 12.5c1.33301 15.333 2 30.833 2 46.5v48.5c0 101.333 -4.5 199 -13.5 293s-22.167 181.333 -39.5 262c-15.333 1.33301 -32.166 2.33301 -50.499 3s-37.833 1 -58.5 1c-27.333 0 -55.5 -0.5 -84.5 -1.5
s-57.333 -2.33301 -85 -4s-54.167 -3.83398 -79.5 -6.50098s-47.333 -5.66699 -66 -9c-14.667 -106 -25.5 -212.5 -32.5 -319.5s-10.5 -215.5 -10.5 -325.5c28.667 -2 58.167 -3.16699 88.5 -3.5s60.833 -0.5 91.5 -0.5zM1125 1606l-283 -61l-103 262l-98 -246h-264l231 328
l306 26z" />
    <glyph glyph-name="Atilde" unicode="&#xc3;" horiz-adv-x="1542" 
d="M1360 -61l-129.494 17.501c-37 5 -71.667 9 -104 12s-63.833 5.16699 -94.5 6.5s-64 2 -100 2c17.333 58 32.166 117.333 44.499 178s22.166 123 29.499 187c-40 1.33301 -81 2.33301 -123 3s-83.667 1 -125 1c-84.667 0 -166 -2 -244 -6
c3.33301 -60 8 -119.833 14 -179.5s13.667 -119.167 23 -178.5l-127 -9c-37.333 -2.66699 -70.333 -5.16699 -99 -7.5s-53.334 -4.66602 -74.001 -6.99902s-38.334 -4.5 -53.001 -6.5c-34 -4.66699 -57 -9 -69 -13c-8.66699 43.333 -15.834 89 -21.501 137
s-10 95.833 -13 143.5s-5.16699 94.167 -6.5 139.5s-2 87.333 -2 126c0 80.667 3.16699 161.667 9.5 243s18.333 159.666 36 234.999s42.167 145.5 73.5 210.5s72.333 121.667 123 170s112 86.333 184 114s157.333 41.5 256 41.5c101.333 0 194.333 -15.5 279 -46.5
s157.5 -78.833 218.5 -143.5s108.333 -146.834 142 -246.501s50.5 -218.167 50.5 -355.5c0 -35.333 -0.833008 -79.333 -2.5 -132s-5.83398 -112 -12.501 -178s-16.5 -137.833 -29.5 -215.5s-30.833 -158.5 -53.5 -242.5zM688.006 600.001
c58 0 115.832 1.16797 173.499 3.50098s112.5 6.5 164.5 12.5c1.33301 15.333 2 30.833 2 46.5v48.5c0 101.333 -4.5 199 -13.5 293s-22.167 181.333 -39.5 262c-15.333 1.33301 -32.166 2.33301 -50.499 3s-37.833 1 -58.5 1c-27.333 0 -55.5 -0.5 -84.5 -1.5
s-57.333 -2.33301 -85 -4s-54.167 -3.83398 -79.5 -6.50098s-47.333 -5.66699 -66 -9c-14.667 -106 -25.5 -212.5 -32.5 -319.5s-10.5 -215.5 -10.5 -325.5c28.667 -2 58.167 -3.16699 88.5 -3.5s60.833 -0.5 91.5 -0.5zM1204 1884
c1.33301 -13.333 2.83203 -25.998 4.49902 -37.998s2.5 -23.667 2.5 -35c0 -34 -4.16699 -63.667 -12.5 -89s-19.333 -47.5 -33 -66.5s-29.167 -34.833 -46.5 -47.5s-35 -23.334 -53 -32.001c-42 -20 -90 -31.333 -144 -34c-35.333 1.33301 -68.666 7.33301 -99.999 18
c-26.667 8.66699 -52.667 22.667 -78 42s-43.333 46.666 -54 81.999h-98c-4 -12.667 -6.66699 -25.167 -8 -37.5s-2 -25.166 -2 -38.499c0 -11.333 0.5 -22.333 1.5 -33s3.16699 -21.667 6.5 -33l-256 21c0 37.333 4.5 70.333 13.5 99s21 53.5 36 74.5s32 38.833 51 53.5
s38.5 26.667 58.5 36c46.667 22 100 34.667 160 38c0.666992 0 6.66699 -0.333008 18 -1s25.666 -2.66699 42.999 -6s35.833 -8.5 55.5 -15.5s38.167 -17.167 55.5 -30.5s31.833 -30.333 43.5 -51s17.834 -46 18.501 -76h92c1.33301 9.33301 2 18.166 2 26.499v24.5
c0 24.667 -2.16699 49.5 -6.5 74.5s-11.833 49.833 -22.5 74.5h252z" />
    <glyph glyph-name="Adieresis" unicode="&#xc4;" horiz-adv-x="1542" 
d="M1360 -61l-129.494 17.501c-37 5 -71.667 9 -104 12s-63.833 5.16699 -94.5 6.5s-64 2 -100 2c17.333 58 32.166 117.333 44.499 178s22.166 123 29.499 187c-40 1.33301 -81 2.33301 -123 3s-83.667 1 -125 1c-84.667 0 -166 -2 -244 -6
c3.33301 -60 8 -119.833 14 -179.5s13.667 -119.167 23 -178.5l-127 -9c-37.333 -2.66699 -70.333 -5.16699 -99 -7.5s-53.334 -4.66602 -74.001 -6.99902s-38.334 -4.5 -53.001 -6.5c-34 -4.66699 -57 -9 -69 -13c-8.66699 43.333 -15.834 89 -21.501 137
s-10 95.833 -13 143.5s-5.16699 94.167 -6.5 139.5s-2 87.333 -2 126c0 80.667 3.16699 161.667 9.5 243s18.333 159.666 36 234.999s42.167 145.5 73.5 210.5s72.333 121.667 123 170s112 86.333 184 114s157.333 41.5 256 41.5c101.333 0 194.333 -15.5 279 -46.5
s157.5 -78.833 218.5 -143.5s108.333 -146.834 142 -246.501s50.5 -218.167 50.5 -355.5c0 -35.333 -0.833008 -79.333 -2.5 -132s-5.83398 -112 -12.501 -178s-16.5 -137.833 -29.5 -215.5s-30.833 -158.5 -53.5 -242.5zM688.006 600.001
c58 0 115.832 1.16797 173.499 3.50098s112.5 6.5 164.5 12.5c1.33301 15.333 2 30.833 2 46.5v48.5c0 101.333 -4.5 199 -13.5 293s-22.167 181.333 -39.5 262c-15.333 1.33301 -32.166 2.33301 -50.499 3s-37.833 1 -58.5 1c-27.333 0 -55.5 -0.5 -84.5 -1.5
s-57.333 -2.33301 -85 -4s-54.167 -3.83398 -79.5 -6.50098s-47.333 -5.66699 -66 -9c-14.667 -106 -25.5 -212.5 -32.5 -319.5s-10.5 -215.5 -10.5 -325.5c28.667 -2 58.167 -3.16699 88.5 -3.5s60.833 -0.5 91.5 -0.5zM705.005 1638c0 -14.667 -3.83301 -28.5 -11.5 -41.5
s-18 -24.5 -31 -34.5s-28.167 -17.833 -45.5 -23.5s-36 -8.5 -56 -8.5c-19.333 0 -37.666 2.83301 -54.999 8.5s-32.333 13.5 -45 23.5s-22.667 21.5 -30 34.5s-11 26.833 -11 41.5c0 15.333 3.66699 29.833 11 43.5s17.333 25.5 30 35.5s27.667 17.833 45 23.5
s35.666 8.5 54.999 8.5c20 0 38.667 -2.83301 56 -8.5s32.5 -13.5 45.5 -23.5s23.333 -21.833 31 -35.5s11.5 -28.167 11.5 -43.5zM1125 1638c0 -14.667 -3.83301 -28.5 -11.5 -41.5s-18 -24.5 -31 -34.5s-28.167 -17.833 -45.5 -23.5s-36 -8.5 -56 -8.5
c-19.333 0 -37.5 2.83301 -54.5 8.5s-31.833 13.5 -44.5 23.5s-22.834 21.5 -30.501 34.5s-11.5 26.833 -11.5 41.5c0 15.333 3.83301 29.833 11.5 43.5s17.834 25.5 30.501 35.5s27.5 17.833 44.5 23.5s35.167 8.5 54.5 8.5c20 0 38.667 -2.83301 56 -8.5
s32.5 -13.5 45.5 -23.5s23.333 -21.833 31 -35.5s11.5 -28.167 11.5 -43.5z" />
    <glyph glyph-name="Aring" unicode="&#xc5;" horiz-adv-x="1542" 
d="M1055 1610c0 -27.333 -5.49414 -53.002 -16.4941 -77.002s-26.167 -45.667 -45.5 -65c70 -19.333 133.667 -49.166 191 -89.499s106.333 -92 147 -155s72 -137.333 94 -223s33 -183.5 33 -293.5c0 -35.333 -0.833008 -79.333 -2.5 -132s-5.83398 -112 -12.501 -178
s-16.5 -137.833 -29.5 -215.5s-30.833 -158.5 -53.5 -242.5l-129.5 17.5c-37 5 -71.667 9 -104 12s-63.833 5.16699 -94.5 6.5s-64 2 -100 2c17.333 58 32.166 117.333 44.499 178s22.166 123 29.499 187c-40 1.33301 -81 2.33301 -123 3s-83.667 1 -125 1
c-84.667 0 -166 -2 -244 -6c3.33301 -60 8 -119.833 14 -179.5s13.667 -119.167 23 -178.5l-127 -9c-37.333 -2.66699 -70.333 -5.16699 -99 -7.5s-53.334 -4.66602 -74.001 -6.99902s-38.334 -4.5 -53.001 -6.5c-34 -4.66699 -57 -9 -69 -13
c-8.66699 43.333 -15.834 89 -21.501 137s-10 95.833 -13 143.5s-5.16699 94.167 -6.5 139.5s-2 87.333 -2 126c0 69.333 2.16699 139 6.5 209s12.666 138.333 24.999 205s29.333 130 51 190s49.667 115 84 165s75.833 93.333 124.5 130s106 64.667 172 84
c-19.333 19.333 -34.5 41 -45.5 65s-16.5 49.667 -16.5 77c0 31.333 7.5 60.833 22.5 88.5s35.333 51.667 61 72s55.834 36.5 90.501 48.5s71.667 18 111 18s76.166 -6 110.499 -18s64.333 -28.167 90 -48.5s45.834 -44.333 60.501 -72s22 -57.167 22 -88.5z
M688.006 599.998c58 0 115.832 1.16797 173.499 3.50098s112.5 6.5 164.5 12.5c1.33301 15.333 2 30.833 2 46.5v48.5c0 101.333 -4.5 199 -13.5 293s-22.167 181.333 -39.5 262c-15.333 1.33301 -32.166 2.33301 -50.499 3s-37.833 1 -58.5 1
c-27.333 0 -55.5 -0.5 -84.5 -1.5s-57.333 -2.33301 -85 -4s-54.167 -3.83398 -79.5 -6.50098s-47.333 -5.66699 -66 -9c-14.667 -106 -25.5 -212.5 -32.5 -319.5s-10.5 -215.5 -10.5 -325.5c28.667 -2 58.167 -3.16699 88.5 -3.5s60.833 -0.5 91.5 -0.5zM866.005 1520
c4 34 5.99805 69.332 5.99805 105.999c0 34.667 -2 68 -6 100c-7.33301 0 -13.666 0.5 -18.999 1.5s-10.666 1.5 -15.999 1.5c-30 0 -58.667 -1.5 -86 -4.5s-54.333 -7.16699 -81 -12.5c-3.33301 -15.333 -5.66602 -31 -6.99902 -47s-2 -32.333 -2 -49
c0 -15.333 0.666992 -31.166 2 -47.499s3.66602 -32.5 6.99902 -48.5c17.333 -2 34.5 -3.66699 51.5 -5s33.167 -2 48.5 -2c17.333 0 34.333 0.666992 51 2s33.667 3 51 5z" />
    <glyph glyph-name="AE" unicode="&#xc6;" horiz-adv-x="2181" 
d="M2134 244c-0.666992 -9.33301 -1.32812 -19.6641 -1.99512 -30.9971c-0.666992 -9.33301 -1.16699 -20.666 -1.5 -33.999s-0.5 -28 -0.5 -44c0 -20.667 0.5 -43 1.5 -67s2.5 -48.667 4.5 -74c-25.333 1.33301 -51.5 2 -78.5 2h-79.5
c-61.333 0 -118.333 -0.166992 -171 -0.5l-154.5 -1c-50.333 -0.333008 -100.833 -1 -151.5 -2s-104.5 -2.33301 -161.5 -4s-118.667 -3.33398 -185 -5.00098s-140.5 -3.83398 -222.5 -6.50098c17.333 58 32.166 117.333 44.499 178s22.166 123 29.499 187
c-40 1.33301 -81 2.33301 -123 3s-83.667 1 -125 1c-84.667 0 -166 -2 -244 -6c3.33301 -60 8 -119.833 14 -179.5s13.667 -119.167 23 -178.5l-127 -9c-37.333 -2.66699 -70.333 -5.16699 -99 -7.5s-53.334 -4.66602 -74.001 -6.99902s-38.334 -4.5 -53.001 -6.5
c-34 -4.66699 -57 -9 -69 -13c-8.66699 43.333 -15.834 89 -21.501 137s-10 95.833 -13 143.5s-5.16699 94.167 -6.5 139.5s-2 87.333 -2 126c0 80.667 3.16699 161.667 9.5 243s18.333 159.666 36 234.999s42.167 145.5 73.5 210.5s72.333 121.667 123 170
s112 86.333 184 114s157.333 41.5 256 41.5c52 0 102 -4 150 -12s93.667 -20.333 137 -37c0 4 -0.333008 7.66699 -1 11s-1 7.33301 -1 12c68.667 0 137.167 -0.5 205.5 -1.5s137.5 -1.5 207.5 -1.5c105.333 0 211 1.66699 317 5s214.667 10.666 326 21.999
c-3.33301 -22.667 -5.5 -44.5 -6.5 -65.5s-1.5 -40.833 -1.5 -59.5c0 -18 0.333008 -34.5 1 -49.5s1.66699 -27.833 3 -38.5c1.33301 -12 2.66602 -23 3.99902 -33c-78 -4 -155 -7.33301 -231 -10c-32 -1.33301 -65.667 -2.5 -101 -3.5l-105 -3
c-34.667 -1 -68.5 -1.83301 -101.5 -2.5s-63.5 -1 -91.5 -1c-1.33301 -31.333 -3 -66 -5 -104c-1.33301 -32.667 -3 -70.834 -5 -114.501s-3.66699 -90.5 -5 -140.5c81.333 2.66699 163.5 6 246.5 10s170.167 9.66699 261.5 17c-2 -25.333 -3.83301 -50.833 -5.5 -76.5
s-2.5 -52.167 -2.5 -79.5c0 -18 0.5 -36.333 1.5 -55s3.16699 -37.667 6.5 -57c-43.333 3.33301 -86.666 5.83301 -129.999 7.5s-86.666 2.5 -129.999 2.5c-42 0 -84 -0.833008 -126 -2.5s-84.667 -4.16699 -128 -7.5v-168c0 -40 0.333008 -78.5 1 -115.5
s1.66699 -71.5 3 -103.5c43.333 1.33301 89.666 2 138.999 2h148c50 0 98.167 -0.166992 144.5 -0.5s87.5 -0.5 123.5 -0.5c41.333 -0.666992 80.333 -1 117 -1zM688.006 600.002c58 0 115.832 1.16797 173.499 3.50098s112.5 6.5 164.5 12.5
c1.33301 15.333 2 30.833 2 46.5v48.5c0 101.333 -4.5 199 -13.5 293s-22.167 181.333 -39.5 262c-15.333 1.33301 -32.166 2.33301 -50.499 3s-37.833 1 -58.5 1c-27.333 0 -55.5 -0.5 -84.5 -1.5s-57.333 -2.33301 -85 -4s-54.167 -3.83398 -79.5 -6.50098
s-47.333 -5.66699 -66 -9c-14.667 -106 -25.5 -212.5 -32.5 -319.5s-10.5 -215.5 -10.5 -325.5c28.667 -2 58.167 -3.16699 88.5 -3.5s60.833 -0.5 91.5 -0.5z" />
    <glyph glyph-name="Ccedilla" unicode="&#xc7;" horiz-adv-x="1651" 
d="M1087 -287c0 -36 -8.8291 -66.3242 -26.4961 -90.9912s-39 -44.834 -64 -60.501s-51.333 -27 -79 -34s-51.5 -10.5 -71.5 -10.5c-16.667 -0.666992 -37.334 0 -62.001 2c-21.333 1.33301 -48 3.33301 -80 6s-70.667 6.66699 -116 12v119c42.667 -4 85 -6 127 -6
c20.667 0 41 0.5 61 1.5s40.667 2.5 62 4.5c3.33301 10 5.5 20.5 6.5 31.5s1.5 21.5 1.5 31.5c0 10.667 -0.5 21 -1.5 31s-3.16699 20.333 -6.5 31c-15.333 2 -31.166 3.83301 -47.499 5.5s-32.833 2.5 -49.5 2.5c-15.333 0 -31.5 -0.833008 -48.5 -2.5
s-34.167 -3.5 -51.5 -5.5c4 12 13 30.333 27 55l47 82c-91.333 7.33301 -171 23.333 -239 48s-126.333 55.667 -175 93s-88.667 79.666 -120 126.999s-56 97.166 -74 149.499s-30.5 105.666 -37.5 159.999s-10.5 107.5 -10.5 159.5c0 124.667 15.667 237 47 337
s80.166 186 146.499 258s150.833 128.833 253.5 170.5s225.334 66.5 368.001 74.5c92 0 179.667 -13.667 263 -41s158.166 -67.333 224.499 -120s121.833 -118 166.5 -196s74 -167.333 88 -268c-43.333 0 -84.333 -0.5 -123 -1.5s-77.334 -2.5 -116.001 -4.5
s-78.334 -4.66699 -119.001 -8s-84 -7.33301 -130 -12c6.66699 34 11.5 70.667 14.5 110s4.5 79.666 4.5 120.999c0 25.333 -0.5 50.666 -1.5 75.999s-3.16699 49.333 -6.5 72c-48 13.333 -102.333 23.166 -163 29.499s-121.667 9.5 -183 9.5
c-43.333 0 -85.333 -1.5 -126 -4.5s-78 -7.16699 -112 -12.5c-13.333 -81.333 -23.166 -164.5 -29.499 -249.5s-9.5 -171.167 -9.5 -258.5c0 -93.333 3.33301 -186 10 -278s16.334 -183 29.001 -273c24.667 -8.66699 52.667 -16.334 84 -23.001s64 -12.334 98 -17.001
s68.5 -8.33398 103.5 -11.001s68.833 -4 101.5 -4c22.667 0 44.5 0.5 65.5 1.5s40.833 3.16699 59.5 6.5c9.33301 40 16.833 84.5 22.5 133.5s8.5 98.167 8.5 147.5c0 39.333 -2 77.666 -6 114.999c53.333 -5.33301 104.166 -9.16602 152.499 -11.499
s97.833 -3.5 148.5 -3.5c65.333 0 137 2 215 6c-15.333 -87.333 -39.5 -162.666 -72.5 -225.999s-71.333 -117.333 -115 -162s-90.667 -81 -141 -109s-100.333 -50.167 -150 -66.5s-96.834 -27.833 -141.501 -34.5s-83.334 -10.667 -116.001 -12l-20 -49
c58.667 -2.66699 104 -12.167 136 -28.5s55.333 -33.833 70 -52.5c17.333 -22 27 -46.333 29 -73z" />
    <glyph glyph-name="Egrave" unicode="&#xc8;" horiz-adv-x="1268" 
d="M1059 631c-43.333 3.33301 -86.667 5.83008 -130 7.49707s-86.666 2.5 -129.999 2.5c-42 0 -84 -0.833008 -126 -2.5s-84.667 -4.16699 -128 -7.5v-168c0 -40 0.333008 -78.5 1 -115.5s1.66699 -71.5 3 -103.5c43.333 1.33301 89.5 2 138.5 2h148.5
c50 0 98 -0.166992 144 -0.5s87 -0.5 123 -0.5c41.333 -0.666992 80.666 -1 117.999 -1c-0.666992 -9.33301 -1.33398 -19.666 -2.00098 -30.999c-0.666992 -9.33301 -1.16699 -20.666 -1.5 -33.999s-0.5 -28 -0.5 -44c0 -20.667 0.5 -43 1.5 -67s2.5 -48.667 4.5 -74
c-26 1.33301 -52.5 2 -79.5 2h-78.5c-159.333 0 -317.166 -2.5 -473.499 -7.5s-313.833 -12.833 -472.5 -23.5c0 20 0.333008 48 1 84s1.5 78.167 2.5 126.5s2.33301 101.333 4 159s3.16699 117.834 4.5 180.501s2.83301 126.667 4.5 192s3 129.833 4 193.5
s1.83301 125 2.5 184s1 113.833 1 164.5c0 48.667 -0.166992 91.834 -0.5 129.501s-1.5 69.167 -3.5 94.5c68.667 0 137.334 -0.5 206.001 -1.5s138 -1.5 208 -1.5c105.333 0 211 1.66699 317 5s214.667 10.666 326 21.999c-3.33301 -22.667 -5.5 -44.5 -6.5 -65.5
s-1.5 -40.833 -1.5 -59.5c0 -18 0.333008 -34.5 1 -49.5s1.66699 -27.833 3 -38.5c1.33301 -12 2.66602 -23 3.99902 -33c-78 -4 -155 -7.33301 -231 -10c-32.667 -1.33301 -66.5 -2.5 -101.5 -3.5l-105 -3c-35 -1 -69 -1.83301 -102 -2.5s-63.5 -1 -91.5 -1
c-1.33301 -32 -3 -66.667 -5 -104l-4.5 -113c-1.66699 -43.333 -3.16699 -90 -4.5 -140c81.333 1.33301 163.5 4 246.5 8s170.167 9.66699 261.5 17c-2 -25.333 -3.83301 -50.833 -5.5 -76.5s-2.5 -52.167 -2.5 -79.5c0 -18 0.5 -36.333 1.5 -55s3.16699 -37.667 6.5 -57z
M470.999 1921l258 -381l-136 -35l-360 321z" />
    <glyph glyph-name="Eacute" unicode="&#xc9;" horiz-adv-x="1268" 
d="M1059 631c-43.333 3.33301 -86.667 5.83008 -130 7.49707s-86.666 2.5 -129.999 2.5c-42 0 -84 -0.833008 -126 -2.5s-84.667 -4.16699 -128 -7.5v-168c0 -40 0.333008 -78.5 1 -115.5s1.66699 -71.5 3 -103.5c43.333 1.33301 89.5 2 138.5 2h148.5
c50 0 98 -0.166992 144 -0.5s87 -0.5 123 -0.5c41.333 -0.666992 80.666 -1 117.999 -1c-0.666992 -9.33301 -1.33398 -19.666 -2.00098 -30.999c-0.666992 -9.33301 -1.16699 -20.666 -1.5 -33.999s-0.5 -28 -0.5 -44c0 -20.667 0.5 -43 1.5 -67s2.5 -48.667 4.5 -74
c-26 1.33301 -52.5 2 -79.5 2h-78.5c-159.333 0 -317.166 -2.5 -473.499 -7.5s-313.833 -12.833 -472.5 -23.5c0 20 0.333008 48 1 84s1.5 78.167 2.5 126.5s2.33301 101.333 4 159s3.16699 117.834 4.5 180.501s2.83301 126.667 4.5 192s3 129.833 4 193.5
s1.83301 125 2.5 184s1 113.833 1 164.5c0 48.667 -0.166992 91.834 -0.5 129.501s-1.5 69.167 -3.5 94.5c68.667 0 137.334 -0.5 206.001 -1.5s138 -1.5 208 -1.5c105.333 0 211 1.66699 317 5s214.667 10.666 326 21.999c-3.33301 -22.667 -5.5 -44.5 -6.5 -65.5
s-1.5 -40.833 -1.5 -59.5c0 -18 0.333008 -34.5 1 -49.5s1.66699 -27.833 3 -38.5c1.33301 -12 2.66602 -23 3.99902 -33c-78 -4 -155 -7.33301 -231 -10c-32.667 -1.33301 -66.5 -2.5 -101.5 -3.5l-105 -3c-35 -1 -69 -1.83301 -102 -2.5s-63.5 -1 -91.5 -1
c-1.33301 -32 -3 -66.667 -5 -104l-4.5 -113c-1.66699 -43.333 -3.16699 -90 -4.5 -140c81.333 1.33301 163.5 4 246.5 8s170.167 9.66699 261.5 17c-2 -25.333 -3.83301 -50.833 -5.5 -76.5s-2.5 -52.167 -2.5 -79.5c0 -18 0.5 -36.333 1.5 -55s3.16699 -37.667 6.5 -57z
M1082 1833l-361 -321l-135 35l258 381z" />
    <glyph glyph-name="Ecircumflex" unicode="&#xca;" horiz-adv-x="1268" 
d="M1059 631c-43.333 3.33301 -86.667 5.83008 -130 7.49707s-86.666 2.5 -129.999 2.5c-42 0 -84 -0.833008 -126 -2.5s-84.667 -4.16699 -128 -7.5v-168c0 -40 0.333008 -78.5 1 -115.5s1.66699 -71.5 3 -103.5c43.333 1.33301 89.5 2 138.5 2h148.5
c50 0 98 -0.166992 144 -0.5s87 -0.5 123 -0.5c41.333 -0.666992 80.666 -1 117.999 -1c-0.666992 -9.33301 -1.33398 -19.666 -2.00098 -30.999c-0.666992 -9.33301 -1.16699 -20.666 -1.5 -33.999s-0.5 -28 -0.5 -44c0 -20.667 0.5 -43 1.5 -67s2.5 -48.667 4.5 -74
c-26 1.33301 -52.5 2 -79.5 2h-78.5c-159.333 0 -317.166 -2.5 -473.499 -7.5s-313.833 -12.833 -472.5 -23.5c0 20 0.333008 48 1 84s1.5 78.167 2.5 126.5s2.33301 101.333 4 159s3.16699 117.834 4.5 180.501s2.83301 126.667 4.5 192s3 129.833 4 193.5
s1.83301 125 2.5 184s1 113.833 1 164.5c0 48.667 -0.166992 91.834 -0.5 129.501s-1.5 69.167 -3.5 94.5c68.667 0 137.334 -0.5 206.001 -1.5s138 -1.5 208 -1.5c105.333 0 211 1.66699 317 5s214.667 10.666 326 21.999c-3.33301 -22.667 -5.5 -44.5 -6.5 -65.5
s-1.5 -40.833 -1.5 -59.5c0 -18 0.333008 -34.5 1 -49.5s1.66699 -27.833 3 -38.5c1.33301 -12 2.66602 -23 3.99902 -33c-78 -4 -155 -7.33301 -231 -10c-32.667 -1.33301 -66.5 -2.5 -101.5 -3.5l-105 -3c-35 -1 -69 -1.83301 -102 -2.5s-63.5 -1 -91.5 -1
c-1.33301 -32 -3 -66.667 -5 -104l-4.5 -113c-1.66699 -43.333 -3.16699 -90 -4.5 -140c81.333 1.33301 163.5 4 246.5 8s170.167 9.66699 261.5 17c-2 -25.333 -3.83301 -50.833 -5.5 -76.5s-2.5 -52.167 -2.5 -79.5c0 -18 0.5 -36.333 1.5 -55s3.16699 -37.667 6.5 -57z
M1024 1571l-283 -61l-103 262l-98 -246h-264l231 328l306 26z" />
    <glyph glyph-name="Edieresis" unicode="&#xcb;" horiz-adv-x="1268" 
d="M1059 631c-43.333 3.33301 -86.667 5.83008 -130 7.49707s-86.666 2.5 -129.999 2.5c-42 0 -84 -0.833008 -126 -2.5s-84.667 -4.16699 -128 -7.5v-168c0 -40 0.333008 -78.5 1 -115.5s1.66699 -71.5 3 -103.5c43.333 1.33301 89.5 2 138.5 2h148.5
c50 0 98 -0.166992 144 -0.5s87 -0.5 123 -0.5c41.333 -0.666992 80.666 -1 117.999 -1c-0.666992 -9.33301 -1.33398 -19.666 -2.00098 -30.999c-0.666992 -9.33301 -1.16699 -20.666 -1.5 -33.999s-0.5 -28 -0.5 -44c0 -20.667 0.5 -43 1.5 -67s2.5 -48.667 4.5 -74
c-26 1.33301 -52.5 2 -79.5 2h-78.5c-159.333 0 -317.166 -2.5 -473.499 -7.5s-313.833 -12.833 -472.5 -23.5c0 20 0.333008 48 1 84s1.5 78.167 2.5 126.5s2.33301 101.333 4 159s3.16699 117.834 4.5 180.501s2.83301 126.667 4.5 192s3 129.833 4 193.5
s1.83301 125 2.5 184s1 113.833 1 164.5c0 48.667 -0.166992 91.834 -0.5 129.501s-1.5 69.167 -3.5 94.5c68.667 0 137.334 -0.5 206.001 -1.5s138 -1.5 208 -1.5c105.333 0 211 1.66699 317 5s214.667 10.666 326 21.999c-3.33301 -22.667 -5.5 -44.5 -6.5 -65.5
s-1.5 -40.833 -1.5 -59.5c0 -18 0.333008 -34.5 1 -49.5s1.66699 -27.833 3 -38.5c1.33301 -12 2.66602 -23 3.99902 -33c-78 -4 -155 -7.33301 -231 -10c-32.667 -1.33301 -66.5 -2.5 -101.5 -3.5l-105 -3c-35 -1 -69 -1.83301 -102 -2.5s-63.5 -1 -91.5 -1
c-1.33301 -32 -3 -66.667 -5 -104l-4.5 -113c-1.66699 -43.333 -3.16699 -90 -4.5 -140c81.333 1.33301 163.5 4 246.5 8s170.167 9.66699 261.5 17c-2 -25.333 -3.83301 -50.833 -5.5 -76.5s-2.5 -52.167 -2.5 -79.5c0 -18 0.5 -36.333 1.5 -55s3.16699 -37.667 6.5 -57z
M601.999 1636c0 -14.667 -3.83301 -28.5 -11.5 -41.5s-18 -24.5 -31 -34.5s-28.167 -17.833 -45.5 -23.5s-36 -8.5 -56 -8.5c-19.333 0 -37.666 2.83301 -54.999 8.5s-32.333 13.5 -45 23.5s-22.667 21.5 -30 34.5s-11 26.833 -11 41.5c0 15.333 3.66699 29.833 11 43.5
s17.333 25.5 30 35.5s27.667 17.833 45 23.5s35.666 8.5 54.999 8.5c20 0 38.667 -2.83301 56 -8.5s32.5 -13.5 45.5 -23.5s23.333 -21.833 31 -35.5s11.5 -28.167 11.5 -43.5zM1022 1636c0 -14.667 -3.83301 -28.5 -11.5 -41.5s-18 -24.5 -31 -34.5
s-28.167 -17.833 -45.5 -23.5s-36 -8.5 -56 -8.5c-19.333 0 -37.5 2.83301 -54.5 8.5s-31.833 13.5 -44.5 23.5s-22.834 21.5 -30.501 34.5s-11.5 26.833 -11.5 41.5c0 15.333 3.83301 29.833 11.5 43.5s17.834 25.5 30.501 35.5s27.5 17.833 44.5 23.5s35.167 8.5 54.5 8.5
c20 0 38.667 -2.83301 56 -8.5s32.5 -13.5 45.5 -23.5s23.333 -21.833 31 -35.5s11.5 -28.167 11.5 -43.5z" />
    <glyph glyph-name="Igrave" unicode="&#xcc;" horiz-adv-x="969" 
d="M930 1243c-86 4 -171.333 5.99609 -256 5.99609h-6c0 -28 -0.166992 -67.167 -0.5 -117.5s-0.5 -106.666 -0.5 -168.999s-0.333008 -128.166 -1 -197.499s-1 -136.666 -1 -201.999s-0.166992 -126.166 -0.5 -182.499s-0.5 -103.166 -0.5 -140.499h219v-252h-828v252h178
c1.33301 34.667 2.83301 76.667 4.5 126l5.5 160l6.5 180c2.33301 62.667 4.33301 125.167 6 187.5s3.16699 122.833 4.5 181.5s2 112.667 2 162c-32 -1.33301 -63.667 -2.83301 -95 -4.5s-63 -3.5 -95 -5.5l5.5 80.5c1.66699 25 2.5 49.833 2.5 74.5
c0 19.333 -0.5 38.833 -1.5 58.5s-3.16699 41.167 -6.5 64.5c48 -3.33301 102.333 -5.5 163 -6.5s123 -1.5 187 -1.5s126.167 0.333008 186.5 1s114.5 1.66699 162.5 3c56 1.33301 109 2.66602 159 3.99902v-262zM281 1960l258 -381l-136 -35l-360 321z" />
    <glyph glyph-name="Iacute" unicode="&#xcd;" horiz-adv-x="969" 
d="M930 1243c-86 4 -171.333 5.99609 -256 5.99609h-6c0 -28 -0.166992 -67.167 -0.5 -117.5s-0.5 -106.666 -0.5 -168.999s-0.333008 -128.166 -1 -197.499s-1 -136.666 -1 -201.999s-0.166992 -126.166 -0.5 -182.499s-0.5 -103.166 -0.5 -140.499h219v-252h-828v252h178
c1.33301 34.667 2.83301 76.667 4.5 126l5.5 160l6.5 180c2.33301 62.667 4.33301 125.167 6 187.5s3.16699 122.833 4.5 181.5s2 112.667 2 162c-32 -1.33301 -63.667 -2.83301 -95 -4.5s-63 -3.5 -95 -5.5l5.5 80.5c1.66699 25 2.5 49.833 2.5 74.5
c0 19.333 -0.5 38.833 -1.5 58.5s-3.16699 41.167 -6.5 64.5c48 -3.33301 102.333 -5.5 163 -6.5s123 -1.5 187 -1.5s126.167 0.333008 186.5 1s114.5 1.66699 162.5 3c56 1.33301 109 2.66602 159 3.99902v-262zM904 1865l-361 -321l-135 35l258 381z" />
    <glyph glyph-name="Icircumflex" unicode="&#xce;" horiz-adv-x="969" 
d="M930 1243c-86 4 -171.333 5.99609 -256 5.99609h-6c0 -28 -0.166992 -67.167 -0.5 -117.5s-0.5 -106.666 -0.5 -168.999s-0.333008 -128.166 -1 -197.499s-1 -136.666 -1 -201.999s-0.166992 -126.166 -0.5 -182.499s-0.5 -103.166 -0.5 -140.499h219v-252h-828v252h178
c1.33301 34.667 2.83301 76.667 4.5 126l5.5 160l6.5 180c2.33301 62.667 4.33301 125.167 6 187.5s3.16699 122.833 4.5 181.5s2 112.667 2 162c-32 -1.33301 -63.667 -2.83301 -95 -4.5s-63 -3.5 -95 -5.5l5.5 80.5c1.66699 25 2.5 49.833 2.5 74.5
c0 19.333 -0.5 38.833 -1.5 58.5s-3.16699 41.167 -6.5 64.5c48 -3.33301 102.333 -5.5 163 -6.5s123 -1.5 187 -1.5s126.167 0.333008 186.5 1s114.5 1.66699 162.5 3c56 1.33301 109 2.66602 159 3.99902v-262zM846 1599l-283 -61l-103 262l-98 -246h-264l231 328l306 26z
" />
    <glyph glyph-name="Idieresis" unicode="&#xcf;" horiz-adv-x="969" 
d="M930 1243c-86 4 -171.333 5.99609 -256 5.99609h-6c0 -28 -0.166992 -67.167 -0.5 -117.5s-0.5 -106.666 -0.5 -168.999s-0.333008 -128.166 -1 -197.499s-1 -136.666 -1 -201.999s-0.166992 -126.166 -0.5 -182.499s-0.5 -103.166 -0.5 -140.499h219v-252h-828v252h178
c1.33301 34.667 2.83301 76.667 4.5 126l5.5 160l6.5 180c2.33301 62.667 4.33301 125.167 6 187.5s3.16699 122.833 4.5 181.5s2 112.667 2 162c-32 -1.33301 -63.667 -2.83301 -95 -4.5s-63 -3.5 -95 -5.5l5.5 80.5c1.66699 25 2.5 49.833 2.5 74.5
c0 19.333 -0.5 38.833 -1.5 58.5s-3.16699 41.167 -6.5 64.5c48 -3.33301 102.333 -5.5 163 -6.5s123 -1.5 187 -1.5s126.167 0.333008 186.5 1s114.5 1.66699 162.5 3c56 1.33301 109 2.66602 159 3.99902v-262zM424 1654c0 -14.667 -3.83301 -28.5 -11.5 -41.5
s-18 -24.5 -31 -34.5s-28.167 -17.833 -45.5 -23.5s-36 -8.5 -56 -8.5c-19.333 0 -37.666 2.83301 -54.999 8.5s-32.333 13.5 -45 23.5s-22.667 21.5 -30 34.5s-11 26.833 -11 41.5c0 15.333 3.66699 29.833 11 43.5s17.333 25.5 30 35.5s27.667 17.833 45 23.5
s35.666 8.5 54.999 8.5c20 0 38.667 -2.83301 56 -8.5s32.5 -13.5 45.5 -23.5s23.333 -21.833 31 -35.5s11.5 -28.167 11.5 -43.5zM844 1654c0 -14.667 -3.83301 -28.5 -11.5 -41.5s-18 -24.5 -31 -34.5s-28.167 -17.833 -45.5 -23.5s-36 -8.5 -56 -8.5
c-19.333 0 -37.5 2.83301 -54.5 8.5s-31.833 13.5 -44.5 23.5s-22.834 21.5 -30.501 34.5s-11.5 26.833 -11.5 41.5c0 15.333 3.83301 29.833 11.5 43.5s17.834 25.5 30.501 35.5s27.5 17.833 44.5 23.5s35.167 8.5 54.5 8.5c20 0 38.667 -2.83301 56 -8.5
s32.5 -13.5 45.5 -23.5s23.333 -21.833 31 -35.5s11.5 -28.167 11.5 -43.5z" />
    <glyph glyph-name="Eth" unicode="&#xd0;" horiz-adv-x="1575" 
d="M463 1493c78.667 0 159.502 -3.99805 242.502 -11.998s163.667 -22.333 242 -43s152.5 -49 222.5 -85s131.167 -81.667 183.5 -137s93.833 -121.833 124.5 -199.5s46 -168.834 46 -273.501c0 -101.333 -13.333 -191.333 -40 -270s-62.834 -147.834 -108.501 -207.501
s-99.167 -110.167 -160.5 -151.5s-126.833 -75 -196.5 -101s-141.834 -44.833 -216.501 -56.5s-148 -17.5 -220 -17.5c-70 0 -131.667 1.5 -185 4.5s-98.666 6.16699 -135.999 9.5c-43.333 4 -81.333 8.66699 -114 14c6.66699 109.333 12.667 217.833 18 325.5
s9 216.167 11 325.5h-213v207h215c-0.666992 56 -1.83398 110 -3.50098 162s-4 103.833 -7 155.5l-9.5 157.5l-11 168c56 10.667 110.667 17.5 164 20.5s104 4.5 152 4.5zM782.002 618.002l-206.999 -0.000976562c2.66699 -82.667 5.5 -164 8.5 -244
s7.16699 -151.333 12.5 -214c61.333 2.66699 119.833 8.66699 175.5 18s104.834 19 147.501 29c50 12 96.667 25 140 39c13.333 70 23.166 143.5 29.499 220.5s9.5 155.5 9.5 235.5c0 84.667 -3.5 168.834 -10.5 252.501s-16.5 164.167 -28.5 241.5
c-36.667 10.667 -77.334 20 -122.001 28c-38 7.33301 -82.333 14 -133 20s-105 9 -163 9h-35c-12 0 -24.333 -0.666992 -37 -2v-55v-95.5c0 -37.667 0.166992 -79.667 0.5 -126s0.833008 -95.5 1.5 -147.5h211v-209z" />
    <glyph glyph-name="Ntilde" unicode="&#xd1;" horiz-adv-x="1655" 
d="M1593 1542c-22.667 -200 -42.665 -396.003 -59.998 -588.003l-22 -255c-7.33301 -88 -14 -175 -20 -261s-11 -169.167 -15 -249.5s-6 -153.5 -6 -219.5c-50 -5.33301 -97.167 -9 -141.5 -11s-89.166 -3 -134.499 -3c-23.333 0 -47.666 0.333008 -72.999 1
s-51.666 1.66699 -78.999 3l-567 1165c0.666992 -46 1.5 -97.667 2.5 -155s2.16699 -117.166 3.5 -179.499s2.83301 -125.833 4.5 -190.5s3.16699 -127 4.5 -187c2.66699 -141.333 6 -286.333 10 -435c-40.667 0 -82.667 -0.666992 -126 -2
c-37.333 -1.33301 -78.833 -3.16602 -124.5 -5.49902s-91.167 -5.83301 -136.5 -10.5c4.66699 66.667 8.66699 142.167 12 226.5s6.16602 173 8.49902 266s4.16602 187.5 5.49902 283.5s2 189 2 279c0 93.333 -0.833008 180.333 -2.5 261s-3.5 149.334 -5.5 206.001
c54 -4 105.667 -6.83301 155 -8.5s98.666 -2.5 147.999 -2.5c50 0 100.167 0.833008 150.5 2.5s103.166 4.5 158.499 8.5c30 -84.667 63.333 -166 100 -244l113.5 -231.5l117.5 -230c39.333 -77 77.333 -156.5 114 -238.5c0 44 0.5 92 1.5 144s2.16699 105.667 3.5 161
l4 167c1.33301 56 3 110 5 162c3.33301 121.333 7.66602 245 12.999 371c36.667 -3.33301 69.167 -5.83301 97.5 -7.5s56.5 -2.5 84.5 -2.5s57 0.833008 87 2.5s65.667 4.16699 107 7.5zM1284 1869c1.33301 -13.333 2.83203 -25.998 4.49902 -37.998s2.5 -23.667 2.5 -35
c0 -34 -4.16699 -63.667 -12.5 -89s-19.333 -47.5 -33 -66.5s-29.167 -34.833 -46.5 -47.5s-35 -23.334 -53 -32.001c-42 -20 -90 -31.333 -144 -34c-35.333 1.33301 -68.666 7.33301 -99.999 18c-26.667 8.66699 -52.667 22.667 -78 42s-43.333 46.666 -54 81.999h-98
c-4 -12.667 -6.66699 -25.167 -8 -37.5s-2 -25.166 -2 -38.499c0 -11.333 0.5 -22.333 1.5 -33s3.16699 -21.667 6.5 -33l-256 21c0 37.333 4.5 70.333 13.5 99s21 53.5 36 74.5s32 38.833 51 53.5s38.5 26.667 58.5 36c46.667 22 100 34.667 160 38
c0.666992 0 6.66699 -0.333008 18 -1s25.666 -2.66699 42.999 -6s35.833 -8.5 55.5 -15.5s38.167 -17.167 55.5 -30.5s31.833 -30.333 43.5 -51s17.834 -46 18.501 -76h92c1.33301 9.33301 2 18.166 2 26.499v24.5c0 24.667 -2.16699 49.5 -6.5 74.5
s-11.833 49.833 -22.5 74.5h252z" />
    <glyph glyph-name="Ograve" unicode="&#xd2;" horiz-adv-x="1589" 
d="M1044 236c4 40 7.66797 83.999 11.001 131.999s6 97 8 147s3.5 99.167 4.5 147.5s1.5 92.5 1.5 132.5c0 76.667 -2 156.5 -6 239.5s-10.333 162.833 -19 239.5c-10 0.666992 -22 1.33398 -36 2.00098s-28.5 1.16699 -43.5 1.5s-29.5 0.5 -43.5 0.5h-36
c-30 0 -61.833 -0.666992 -95.5 -2s-67.834 -3.5 -102.501 -6.5s-68.834 -6.66699 -102.501 -11s-65.5 -9.5 -95.5 -15.5c0 -14.667 -0.166992 -33.5 -0.5 -56.5s-0.5 -46.667 -0.5 -71s-0.166992 -47.666 -0.5 -69.999s-0.5 -40.5 -0.5 -54.5
c0 -124.667 4.16699 -251.334 12.5 -380.001s20.833 -253.667 37.5 -375c16.667 -2.66699 35.5 -5 56.5 -7s42.5 -3.5 64.5 -4.5s43.667 -1.83301 65 -2.5s40.333 -1 57 -1c18.667 0 39.334 0.333008 62.001 1s45.667 1.5 69 2.5s46.5 2.5 69.5 4.5s44.167 4.33301 63.5 7z
M1532 722.999c0 -109.333 -18.335 -211.002 -55.002 -305.002s-88.667 -175.5 -156 -244.5s-148.166 -123.333 -242.499 -163s-199.166 -59.5 -314.499 -59.5c-50 0 -102 5.83301 -156 17.5s-107 30.667 -159 57s-101.5 60.5 -148.5 102.5s-88.167 93.333 -123.5 154
s-63.5 131.334 -84.5 212.001s-31.5 172.667 -31.5 276c0 101.333 11.833 190 35.5 266s54.834 141.167 93.501 195.5s83.167 99.166 133.5 134.499s102.166 63.333 155.499 84s106 35 158 43s99.667 12 143 12c67.333 0 132.5 -6.16699 195.5 -18.5
s122.167 -31.666 177.5 -57.999s106 -60.166 152 -101.499s85.667 -91 119 -149s59.5 -124.667 78.5 -200s28.833 -160.333 29.5 -255zM522.999 1950l258 -381l-136 -35l-360 321z" />
    <glyph glyph-name="Oacute" unicode="&#xd3;" horiz-adv-x="1589" 
d="M1044 236c4 40 7.66797 83.999 11.001 131.999s6 97 8 147s3.5 99.167 4.5 147.5s1.5 92.5 1.5 132.5c0 76.667 -2 156.5 -6 239.5s-10.333 162.833 -19 239.5c-10 0.666992 -22 1.33398 -36 2.00098s-28.5 1.16699 -43.5 1.5s-29.5 0.5 -43.5 0.5h-36
c-30 0 -61.833 -0.666992 -95.5 -2s-67.834 -3.5 -102.501 -6.5s-68.834 -6.66699 -102.501 -11s-65.5 -9.5 -95.5 -15.5c0 -14.667 -0.166992 -33.5 -0.5 -56.5s-0.5 -46.667 -0.5 -71s-0.166992 -47.666 -0.5 -69.999s-0.5 -40.5 -0.5 -54.5
c0 -124.667 4.16699 -251.334 12.5 -380.001s20.833 -253.667 37.5 -375c16.667 -2.66699 35.5 -5 56.5 -7s42.5 -3.5 64.5 -4.5s43.667 -1.83301 65 -2.5s40.333 -1 57 -1c18.667 0 39.334 0.333008 62.001 1s45.667 1.5 69 2.5s46.5 2.5 69.5 4.5s44.167 4.33301 63.5 7z
M1532 722.999c0 -109.333 -18.335 -211.002 -55.002 -305.002s-88.667 -175.5 -156 -244.5s-148.166 -123.333 -242.499 -163s-199.166 -59.5 -314.499 -59.5c-50 0 -102 5.83301 -156 17.5s-107 30.667 -159 57s-101.5 60.5 -148.5 102.5s-88.167 93.333 -123.5 154
s-63.5 131.334 -84.5 212.001s-31.5 172.667 -31.5 276c0 101.333 11.833 190 35.5 266s54.834 141.167 93.501 195.5s83.167 99.166 133.5 134.499s102.166 63.333 155.499 84s106 35 158 43s99.667 12 143 12c67.333 0 132.5 -6.16699 195.5 -18.5
s122.167 -31.666 177.5 -57.999s106 -60.166 152 -101.499s85.667 -91 119 -149s59.5 -124.667 78.5 -200s28.833 -160.333 29.5 -255zM1248 1863l-361 -321l-135 35l258 381z" />
    <glyph glyph-name="Ocircumflex" unicode="&#xd4;" horiz-adv-x="1589" 
d="M1044 236c4 40 7.66797 83.999 11.001 131.999s6 97 8 147s3.5 99.167 4.5 147.5s1.5 92.5 1.5 132.5c0 76.667 -2 156.5 -6 239.5s-10.333 162.833 -19 239.5c-10 0.666992 -22 1.33398 -36 2.00098s-28.5 1.16699 -43.5 1.5s-29.5 0.5 -43.5 0.5h-36
c-30 0 -61.833 -0.666992 -95.5 -2s-67.834 -3.5 -102.501 -6.5s-68.834 -6.66699 -102.501 -11s-65.5 -9.5 -95.5 -15.5c0 -14.667 -0.166992 -33.5 -0.5 -56.5s-0.5 -46.667 -0.5 -71s-0.166992 -47.666 -0.5 -69.999s-0.5 -40.5 -0.5 -54.5
c0 -124.667 4.16699 -251.334 12.5 -380.001s20.833 -253.667 37.5 -375c16.667 -2.66699 35.5 -5 56.5 -7s42.5 -3.5 64.5 -4.5s43.667 -1.83301 65 -2.5s40.333 -1 57 -1c18.667 0 39.334 0.333008 62.001 1s45.667 1.5 69 2.5s46.5 2.5 69.5 4.5s44.167 4.33301 63.5 7z
M1532 722.999c0 -109.333 -18.335 -211.002 -55.002 -305.002s-88.667 -175.5 -156 -244.5s-148.166 -123.333 -242.499 -163s-199.166 -59.5 -314.499 -59.5c-50 0 -102 5.83301 -156 17.5s-107 30.667 -159 57s-101.5 60.5 -148.5 102.5s-88.167 93.333 -123.5 154
s-63.5 131.334 -84.5 212.001s-31.5 172.667 -31.5 276c0 101.333 11.833 190 35.5 266s54.834 141.167 93.501 195.5s83.167 99.166 133.5 134.499s102.166 63.333 155.499 84s106 35 158 43s99.667 12 143 12c67.333 0 132.5 -6.16699 195.5 -18.5
s122.167 -31.666 177.5 -57.999s106 -60.166 152 -101.499s85.667 -91 119 -149s59.5 -124.667 78.5 -200s28.833 -160.333 29.5 -255zM1149 1601l-283 -61l-103 262l-98 -246h-264l231 328l306 26z" />
    <glyph glyph-name="Otilde" unicode="&#xd5;" horiz-adv-x="1589" 
d="M1044 236c4 40 7.66797 83.999 11.001 131.999s6 97 8 147s3.5 99.167 4.5 147.5s1.5 92.5 1.5 132.5c0 76.667 -2 156.5 -6 239.5s-10.333 162.833 -19 239.5c-10 0.666992 -22 1.33398 -36 2.00098s-28.5 1.16699 -43.5 1.5s-29.5 0.5 -43.5 0.5h-36
c-30 0 -61.833 -0.666992 -95.5 -2s-67.834 -3.5 -102.501 -6.5s-68.834 -6.66699 -102.501 -11s-65.5 -9.5 -95.5 -15.5c0 -14.667 -0.166992 -33.5 -0.5 -56.5s-0.5 -46.667 -0.5 -71s-0.166992 -47.666 -0.5 -69.999s-0.5 -40.5 -0.5 -54.5
c0 -124.667 4.16699 -251.334 12.5 -380.001s20.833 -253.667 37.5 -375c16.667 -2.66699 35.5 -5 56.5 -7s42.5 -3.5 64.5 -4.5s43.667 -1.83301 65 -2.5s40.333 -1 57 -1c18.667 0 39.334 0.333008 62.001 1s45.667 1.5 69 2.5s46.5 2.5 69.5 4.5s44.167 4.33301 63.5 7z
M1532 722.999c0 -109.333 -18.335 -211.002 -55.002 -305.002s-88.667 -175.5 -156 -244.5s-148.166 -123.333 -242.499 -163s-199.166 -59.5 -314.499 -59.5c-50 0 -102 5.83301 -156 17.5s-107 30.667 -159 57s-101.5 60.5 -148.5 102.5s-88.167 93.333 -123.5 154
s-63.5 131.334 -84.5 212.001s-31.5 172.667 -31.5 276c0 101.333 11.833 190 35.5 266s54.834 141.167 93.501 195.5s83.167 99.166 133.5 134.499s102.166 63.333 155.499 84s106 35 158 43s99.667 12 143 12c67.333 0 132.5 -6.16699 195.5 -18.5
s122.167 -31.666 177.5 -57.999s106 -60.166 152 -101.499s85.667 -91 119 -149s59.5 -124.667 78.5 -200s28.833 -160.333 29.5 -255zM1198 1888c1.33301 -13.333 2.83203 -25.998 4.49902 -37.998s2.5 -23.667 2.5 -35c0 -34 -4.16699 -63.667 -12.5 -89
s-19.333 -47.5 -33 -66.5s-29.167 -34.833 -46.5 -47.5s-35 -23.334 -53 -32.001c-42 -20 -90 -31.333 -144 -34c-35.333 1.33301 -68.666 7.33301 -99.999 18c-26.667 8.66699 -52.667 22.667 -78 42s-43.333 46.666 -54 81.999h-98c-4 -12.667 -6.66699 -25.167 -8 -37.5
s-2 -25.166 -2 -38.499c0 -11.333 0.5 -22.333 1.5 -33s3.16699 -21.667 6.5 -33l-256 21c0 37.333 4.5 70.333 13.5 99s21 53.5 36 74.5s32 38.833 51 53.5s38.5 26.667 58.5 36c46.667 22 100 34.667 160 38c0.666992 0 6.66699 -0.333008 18 -1
s25.666 -2.66699 42.999 -6s35.833 -8.5 55.5 -15.5s38.167 -17.167 55.5 -30.5s31.833 -30.333 43.5 -51s17.834 -46 18.501 -76h92c1.33301 9.33301 2 18.166 2 26.499v24.5c0 24.667 -2.16699 49.5 -6.5 74.5s-11.833 49.833 -22.5 74.5h252z" />
    <glyph glyph-name="Odieresis" unicode="&#xd6;" horiz-adv-x="1589" 
d="M1044 236c4 40 7.66797 83.999 11.001 131.999s6 97 8 147s3.5 99.167 4.5 147.5s1.5 92.5 1.5 132.5c0 76.667 -2 156.5 -6 239.5s-10.333 162.833 -19 239.5c-10 0.666992 -22 1.33398 -36 2.00098s-28.5 1.16699 -43.5 1.5s-29.5 0.5 -43.5 0.5h-36
c-30 0 -61.833 -0.666992 -95.5 -2s-67.834 -3.5 -102.501 -6.5s-68.834 -6.66699 -102.501 -11s-65.5 -9.5 -95.5 -15.5c0 -14.667 -0.166992 -33.5 -0.5 -56.5s-0.5 -46.667 -0.5 -71s-0.166992 -47.666 -0.5 -69.999s-0.5 -40.5 -0.5 -54.5
c0 -124.667 4.16699 -251.334 12.5 -380.001s20.833 -253.667 37.5 -375c16.667 -2.66699 35.5 -5 56.5 -7s42.5 -3.5 64.5 -4.5s43.667 -1.83301 65 -2.5s40.333 -1 57 -1c18.667 0 39.334 0.333008 62.001 1s45.667 1.5 69 2.5s46.5 2.5 69.5 4.5s44.167 4.33301 63.5 7z
M1532 722.999c0 -109.333 -18.335 -211.002 -55.002 -305.002s-88.667 -175.5 -156 -244.5s-148.166 -123.333 -242.499 -163s-199.166 -59.5 -314.499 -59.5c-50 0 -102 5.83301 -156 17.5s-107 30.667 -159 57s-101.5 60.5 -148.5 102.5s-88.167 93.333 -123.5 154
s-63.5 131.334 -84.5 212.001s-31.5 172.667 -31.5 276c0 101.333 11.833 190 35.5 266s54.834 141.167 93.501 195.5s83.167 99.166 133.5 134.499s102.166 63.333 155.499 84s106 35 158 43s99.667 12 143 12c67.333 0 132.5 -6.16699 195.5 -18.5
s122.167 -31.666 177.5 -57.999s106 -60.166 152 -101.499s85.667 -91 119 -149s59.5 -124.667 78.5 -200s28.833 -160.333 29.5 -255zM728.999 1656c0 -14.667 -3.83301 -28.5 -11.5 -41.5s-18 -24.5 -31 -34.5s-28.167 -17.833 -45.5 -23.5s-36 -8.5 -56 -8.5
c-19.333 0 -37.666 2.83301 -54.999 8.5s-32.333 13.5 -45 23.5s-22.667 21.5 -30 34.5s-11 26.833 -11 41.5c0 15.333 3.66699 29.833 11 43.5s17.333 25.5 30 35.5s27.667 17.833 45 23.5s35.666 8.5 54.999 8.5c20 0 38.667 -2.83301 56 -8.5s32.5 -13.5 45.5 -23.5
s23.333 -21.833 31 -35.5s11.5 -28.167 11.5 -43.5zM1149 1656c0 -14.667 -3.83301 -28.5 -11.5 -41.5s-18 -24.5 -31 -34.5s-28.167 -17.833 -45.5 -23.5s-36 -8.5 -56 -8.5c-19.333 0 -37.5 2.83301 -54.5 8.5s-31.833 13.5 -44.5 23.5s-22.834 21.5 -30.501 34.5
s-11.5 26.833 -11.5 41.5c0 15.333 3.83301 29.833 11.5 43.5s17.834 25.5 30.501 35.5s27.5 17.833 44.5 23.5s35.167 8.5 54.5 8.5c20 0 38.667 -2.83301 56 -8.5s32.5 -13.5 45.5 -23.5s23.333 -21.833 31 -35.5s11.5 -28.167 11.5 -43.5z" />
    <glyph glyph-name="multiply" unicode="&#xd7;" horiz-adv-x="1182" 
d="M1104 1051l-305.001 -289c48 -54 97.333 -106.5 148 -157.5l157 -153.5l-377 -138c-25.333 39.333 -51.666 77.5 -78.999 114.5l-83 111.5l-211 -199l-268 37l350 321c-55.333 66 -112 130.333 -170 193l-180 188l420 54c25.333 -38 51.833 -75.5 79.5 -112.5
s56.5 -73.5 86.5 -109.5l239 222z" />
    <glyph glyph-name="Oslash" unicode="&#xd8;" horiz-adv-x="1589" 
d="M1370 1470l-41.0049 -64.498l-41 -66.5c36.667 -30.667 69.834 -66.167 99.501 -106.5s55 -86 76 -137s37.333 -107.333 49 -169s18.167 -129.5 19.5 -203.5c0 -109.333 -18.333 -211 -55 -305s-88.667 -175.5 -156 -244.5s-148.166 -123.333 -242.499 -163
s-199.166 -59.5 -314.499 -59.5c-42 0 -85.5 4.16699 -130.5 12.5s-90.167 21.166 -135.5 38.499c-7.33301 -12.667 -14.166 -25.5 -20.499 -38.5s-13.166 -26.167 -20.499 -39.5l-234 51l88 142c-36 32 -69.167 69 -99.5 111s-56.666 89.833 -78.999 143.5
s-39.833 113.5 -52.5 179.5s-19 139 -19 219c0 101.333 11.833 190 35.5 266s54.834 141.167 93.501 195.5s83.167 99.166 133.5 134.499s102.166 63.333 155.499 84s106 35 158 43s99.667 12 143 12c56.667 0 112.167 -4.33301 166.5 -13s106.166 -22.667 155.499 -42
l20 39zM486.995 991.002c0 -89.333 2.16797 -180.334 6.50098 -273.001s10.5 -184.667 18.5 -276l255.5 419.5l240.5 414.5c-21.333 1.33301 -43.666 2 -66.999 2h-56c-30 0 -61.833 -0.666992 -95.5 -2s-67.834 -3.5 -102.501 -6.5s-68.834 -6.66699 -102.501 -11
s-65.5 -9.5 -95.5 -15.5c0 -14.667 -0.166992 -33.5 -0.5 -56.5s-0.5 -46.667 -0.5 -71s-0.166992 -47.666 -0.5 -69.999s-0.5 -40.5 -0.5 -54.5zM1044 236.001c4 40 7.66699 84 11 132s6 97 8 147s3.5 99.167 4.5 147.5s1.5 92.5 1.5 132.5c0 30 -0.333008 60.167 -1 90.5
s-1.66699 61.5 -3 93.5l-225.5 -374l-218.5 -380c28 -2 56.167 -3.16699 84.5 -3.5s53.166 -0.5 74.499 -0.5c18.667 0 39.334 0.333008 62.001 1s45.667 1.5 69 2.5s46.5 2.5 69.5 4.5s44.167 4.33301 63.5 7z" />
    <glyph glyph-name="Ugrave" unicode="&#xd9;" horiz-adv-x="1552" 
d="M1460 748c-0.666992 -71.333 -6.00293 -140.333 -16.0029 -207s-26 -129.667 -48 -189s-50.667 -113.5 -86 -162.5s-78.333 -91.167 -129 -126.5s-109.667 -62.833 -177 -82.5s-144 -29.5 -230 -29.5c-101.333 0 -193.666 14.5 -276.999 43.5
s-154.666 75.667 -213.999 140s-105.333 148.166 -138 251.499s-49 229.333 -49 378c0 78 2 152.5 6 223.5s9.66699 136.167 17 195.5s15.833 112.5 25.5 159.5s20.167 85.5 31.5 115.5h393c-2.66699 -16 -6.5 -44 -11.5 -84s-10 -87 -15 -141s-9.33301 -112.5 -13 -175.5
s-5.5 -124.833 -5.5 -185.5c0 -56.667 0.833008 -115 2.5 -175s4.33398 -118.5 8.00098 -175.5s8.33398 -111 14.001 -162s12.5 -95.833 20.5 -134.5c29.333 -4 62 -7 98 -9s73 -3 111 -3s75.667 1 113 3s72 5 104 9c5.33301 38.667 9.66602 83.334 12.999 134.001
s6 104.334 8 161.001s3.5 114.834 4.5 174.501s1.5 117.5 1.5 173.5c0 61.333 -0.666992 119.166 -2 173.499s-3.33301 105.833 -6 154.5s-5.5 94.667 -8.5 138s-6.5 84.666 -10.5 123.999h383c18 -90 32.333 -170.5 43 -241.5s19 -135 25 -192
s9.83301 -107.833 11.5 -152.5s2.5 -86 2.5 -124zM602.997 1901l258 -381l-136 -35l-360 321z" />
    <glyph glyph-name="Uacute" unicode="&#xda;" horiz-adv-x="1552" 
d="M1460 748c-0.666992 -71.333 -6.00293 -140.333 -16.0029 -207s-26 -129.667 -48 -189s-50.667 -113.5 -86 -162.5s-78.333 -91.167 -129 -126.5s-109.667 -62.833 -177 -82.5s-144 -29.5 -230 -29.5c-101.333 0 -193.666 14.5 -276.999 43.5
s-154.666 75.667 -213.999 140s-105.333 148.166 -138 251.499s-49 229.333 -49 378c0 78 2 152.5 6 223.5s9.66699 136.167 17 195.5s15.833 112.5 25.5 159.5s20.167 85.5 31.5 115.5h393c-2.66699 -16 -6.5 -44 -11.5 -84s-10 -87 -15 -141s-9.33301 -112.5 -13 -175.5
s-5.5 -124.833 -5.5 -185.5c0 -56.667 0.833008 -115 2.5 -175s4.33398 -118.5 8.00098 -175.5s8.33398 -111 14.001 -162s12.5 -95.833 20.5 -134.5c29.333 -4 62 -7 98 -9s73 -3 111 -3s75.667 1 113 3s72 5 104 9c5.33301 38.667 9.66602 83.334 12.999 134.001
s6 104.334 8 161.001s3.5 114.834 4.5 174.501s1.5 117.5 1.5 173.5c0 61.333 -0.666992 119.166 -2 173.499s-3.33301 105.833 -6 154.5s-5.5 94.667 -8.5 138s-6.5 84.666 -10.5 123.999h383c18 -90 32.333 -170.5 43 -241.5s19 -135 25 -192
s9.83301 -107.833 11.5 -152.5s2.5 -86 2.5 -124zM1192 1808l-361 -321l-135 35l258 381z" />
    <glyph glyph-name="Ucircumflex" unicode="&#xdb;" horiz-adv-x="1552" 
d="M1460 748c-0.666992 -71.333 -6.00293 -140.333 -16.0029 -207s-26 -129.667 -48 -189s-50.667 -113.5 -86 -162.5s-78.333 -91.167 -129 -126.5s-109.667 -62.833 -177 -82.5s-144 -29.5 -230 -29.5c-101.333 0 -193.666 14.5 -276.999 43.5
s-154.666 75.667 -213.999 140s-105.333 148.166 -138 251.499s-49 229.333 -49 378c0 78 2 152.5 6 223.5s9.66699 136.167 17 195.5s15.833 112.5 25.5 159.5s20.167 85.5 31.5 115.5h393c-2.66699 -16 -6.5 -44 -11.5 -84s-10 -87 -15 -141s-9.33301 -112.5 -13 -175.5
s-5.5 -124.833 -5.5 -185.5c0 -56.667 0.833008 -115 2.5 -175s4.33398 -118.5 8.00098 -175.5s8.33398 -111 14.001 -162s12.5 -95.833 20.5 -134.5c29.333 -4 62 -7 98 -9s73 -3 111 -3s75.667 1 113 3s72 5 104 9c5.33301 38.667 9.66602 83.334 12.999 134.001
s6 104.334 8 161.001s3.5 114.834 4.5 174.501s1.5 117.5 1.5 173.5c0 61.333 -0.666992 119.166 -2 173.499s-3.33301 105.833 -6 154.5s-5.5 94.667 -8.5 138s-6.5 84.666 -10.5 123.999h383c18 -90 32.333 -170.5 43 -241.5s19 -135 25 -192
s9.83301 -107.833 11.5 -152.5s2.5 -86 2.5 -124zM1131 1552l-283 -61l-103 262l-98 -246h-264l231 328l306 26z" />
    <glyph glyph-name="Udieresis" unicode="&#xdc;" horiz-adv-x="1552" 
d="M1460 748c-0.666992 -71.333 -6.00293 -140.333 -16.0029 -207s-26 -129.667 -48 -189s-50.667 -113.5 -86 -162.5s-78.333 -91.167 -129 -126.5s-109.667 -62.833 -177 -82.5s-144 -29.5 -230 -29.5c-101.333 0 -193.666 14.5 -276.999 43.5
s-154.666 75.667 -213.999 140s-105.333 148.166 -138 251.499s-49 229.333 -49 378c0 78 2 152.5 6 223.5s9.66699 136.167 17 195.5s15.833 112.5 25.5 159.5s20.167 85.5 31.5 115.5h393c-2.66699 -16 -6.5 -44 -11.5 -84s-10 -87 -15 -141s-9.33301 -112.5 -13 -175.5
s-5.5 -124.833 -5.5 -185.5c0 -56.667 0.833008 -115 2.5 -175s4.33398 -118.5 8.00098 -175.5s8.33398 -111 14.001 -162s12.5 -95.833 20.5 -134.5c29.333 -4 62 -7 98 -9s73 -3 111 -3s75.667 1 113 3s72 5 104 9c5.33301 38.667 9.66602 83.334 12.999 134.001
s6 104.334 8 161.001s3.5 114.834 4.5 174.501s1.5 117.5 1.5 173.5c0 61.333 -0.666992 119.166 -2 173.499s-3.33301 105.833 -6 154.5s-5.5 94.667 -8.5 138s-6.5 84.666 -10.5 123.999h383c18 -90 32.333 -170.5 43 -241.5s19 -135 25 -192
s9.83301 -107.833 11.5 -152.5s2.5 -86 2.5 -124zM710.997 1630c0 -14.667 -3.83301 -28.5 -11.5 -41.5s-18 -24.5 -31 -34.5s-28.167 -17.833 -45.5 -23.5s-36 -8.5 -56 -8.5c-19.333 0 -37.666 2.83301 -54.999 8.5s-32.333 13.5 -45 23.5s-22.667 21.5 -30 34.5
s-11 26.833 -11 41.5c0 15.333 3.66699 29.833 11 43.5s17.333 25.5 30 35.5s27.667 17.833 45 23.5s35.666 8.5 54.999 8.5c20 0 38.667 -2.83301 56 -8.5s32.5 -13.5 45.5 -23.5s23.333 -21.833 31 -35.5s11.5 -28.167 11.5 -43.5zM1131 1630
c0 -14.667 -3.83301 -28.5 -11.5 -41.5s-18 -24.5 -31 -34.5s-28.167 -17.833 -45.5 -23.5s-36 -8.5 -56 -8.5c-19.333 0 -37.5 2.83301 -54.5 8.5s-31.833 13.5 -44.5 23.5s-22.834 21.5 -30.501 34.5s-11.5 26.833 -11.5 41.5c0 15.333 3.83301 29.833 11.5 43.5
s17.834 25.5 30.501 35.5s27.5 17.833 44.5 23.5s35.167 8.5 54.5 8.5c20 0 38.667 -2.83301 56 -8.5s32.5 -13.5 45.5 -23.5s23.333 -21.833 31 -35.5s11.5 -28.167 11.5 -43.5z" />
    <glyph glyph-name="Yacute" unicode="&#xdd;" horiz-adv-x="1645" 
d="M1634 1479c-76 -174 -147.672 -322.67 -215.005 -446.003s-126.333 -224.333 -177 -303c-59.333 -92 -114.333 -168 -165 -228c-1.33301 -14.667 -2.33301 -31.5 -3 -50.5s-1 -39.833 -1 -62.5c0 -36.667 0.666992 -76 2 -118s3.16602 -82.667 5.49902 -122
s5 -75.166 8 -107.499s6.16699 -57.166 9.5 -74.499l-557 -10c2.66699 11.333 5.83398 29.833 9.50098 55.5s7.33398 54.667 11.001 87s7 66.5 10 102.5l8.5 101.5c2.66699 31.667 4.83398 59.5 6.50098 83.5s2.83398 40.333 3.50098 49l-92 146.5l-102 167l-108 180
l-108 186l-103.5 185.5l-94.5 178l567 -25c14 -45.333 32 -97.333 54 -156s47 -121.167 75 -187.5s58.667 -134.5 92 -204.5s68 -138.667 104 -206c48 88 94 177.333 138 268l58 122c20 42.667 39.333 86.167 58 130.5s36.334 88.333 53.001 132
s31.334 85.834 44.001 126.501h409zM1293 1747l-361 -321l-135 35l258 381z" />
    <glyph glyph-name="Thorn" unicode="&#xde;" horiz-adv-x="1376" 
d="M1337 793c0 -101.333 -18.6699 -189.334 -56.0029 -264.001s-90.166 -137.167 -158.499 -187.5s-150.5 -89.666 -246.5 -117.999s-202.333 -46.833 -319 -55.5l21 -180l-474 -33c4.66699 56.667 8.83398 109.334 12.501 158.001l10.5 140
c3.33301 44.667 6.16602 88.334 8.49902 131.001s4.33301 86.5 6 131.5s3 92 4 141s1.5 101.833 1.5 158.5c0 115.333 -4.16699 229.333 -12.5 342s-16.166 226.667 -23.499 342l409 25l-10 -185c21.333 1.33301 42.833 2.33301 64.5 3s43.167 1 64.5 1
c44.667 0 93 -2.33301 145 -7s103.833 -14 155.5 -28s101.334 -33.5 149.001 -58.5s90 -57.833 127 -98.5s66.5 -90.334 88.5 -149.001s33 -128.334 33 -209.001zM505.997 1133c0 -74 0.333984 -141.334 1.00098 -202.001s2 -119.167 4 -175.5s5 -113.166 9 -170.499
s9 -119.333 15 -186h26c58.667 0 117.667 1.83301 177 5.5s115.666 10.167 168.999 19.5c9.33301 36 16.166 81.333 20.499 136s6.5 113 6.5 175c0 38.667 -0.833008 77.667 -2.5 117s-4.33398 77 -8.00098 113s-8.16699 69.5 -13.5 100.5s-11.666 57.5 -18.999 79.5
c-9.33301 1.33301 -20.166 2.33301 -32.499 3s-26.166 1 -41.499 1c-30.667 0 -63.834 -0.833008 -99.501 -2.5s-69.5 -3.5 -101.5 -5.5z" />
    <glyph glyph-name="germandbls" unicode="&#xdf;" horiz-adv-x="1765" 
d="M1151 1161c0 -45.333 -5.33594 -84.1738 -16.0029 -116.507s-24 -60.666 -40 -84.999s-33.167 -45.666 -51.5 -63.999l-51.5 -53.5c-16 -17.333 -29.333 -35.166 -40 -53.499s-16 -39.5 -16 -63.5c0 -30.667 6.66699 -53 20 -67s36 -25 68 -33
c43.333 -9.33301 91.666 -16.5 144.999 -21.5s107 -11.5 161 -19.5s106.5 -19 157.5 -33s96.333 -34 136 -60s71.5 -59.667 95.5 -101s36 -93.666 36 -156.999c0 -58.667 -15 -107.5 -45 -146.5s-69.333 -70.333 -118 -94s-104 -40.334 -166 -50.001s-125 -14.5 -189 -14.5
c-35.333 0 -73.166 2.16699 -113.499 6.5s-80.833 12 -121.5 23s-80.167 25.667 -118.5 44s-73.166 41.5 -104.499 69.5s-58.166 61 -80.499 99s-37.5 82.333 -45.5 133l406 4l16 -174h311l23 201c-41.333 9.33301 -88.666 17.333 -141.999 24s-108 14.834 -164 24.501
s-111 22.167 -165 37.5s-102 36.333 -144 63s-76 60.334 -102 101.001s-39 91 -39 151c0 37.333 5.5 68.833 16.5 94.5s24.833 48.834 41.5 69.501s34.667 40.5 54 59.5s37.333 40.5 54 64.5s30.5 52.667 41.5 86s16.5 74.666 16.5 123.999c-32 5.33301 -63.833 9 -95.5 11
s-64.167 3 -97.5 3c-24.667 0 -50 -0.666992 -76 -2s-52 -4 -78 -8c-1.33301 -34 -2 -67.833 -2 -101.5v-101.5c0 -172 6.66699 -342.167 20 -510.5s33.333 -337.5 60 -507.5l-372 -36c-7.33301 80 -13.333 157.667 -18 233s-8.5 147 -11.5 215s-5.5 131.5 -7.5 190.5
s-3.33301 112.167 -4 159.5l-162 -6v250c26.667 -2 53.167 -3.83301 79.5 -5.5s53.166 -3.16699 80.499 -4.5c0 4.66699 0.666992 15.334 2 32.001s4.33301 37.334 9 62.001s12 52 22 82s23.667 60.333 41 91s38.833 60.5 64.5 89.5s56.834 54.667 93.501 77
s79.5 40.333 128.5 54s105.5 20.5 169.5 20.5c50 0 100.333 -7 151 -21s96.5 -35.833 137.5 -65.5s74.5 -67 100.5 -112s39 -98.5 39 -160.5z" />
    <glyph glyph-name="agrave" unicode="&#xe0;" 
d="M907 -33c0 19.333 -0.333984 38.8311 -1.00098 58.498s-1 39.167 -1 58.5c-35.333 -32 -72.166 -56.167 -110.499 -72.5s-73.5 -28.5 -105.5 -36.5c-37.333 -9.33301 -74.333 -14.666 -111 -15.999c-66.667 0 -130.834 10.167 -192.501 30.5s-116.5 50.833 -164.5 91.5
s-86.833 91.5 -116.5 152.5s-46.167 131.833 -49.5 212.5c0 81.333 11 155.5 33 222.5s55 124.5 99 172.5s98.667 85.167 164 111.5s141 39.833 227 40.5c2.66699 0 12.834 -0.5 30.501 -1.5s39.5 -4 65.5 -9s54.333 -13 85 -24s61 -26.167 91 -45.5l-16 123l395 27
c-8 -191.333 -12 -381.666 -12 -570.999c0 -46 0.166992 -89.5 0.5 -130.5s1 -81.667 2 -122s2.33301 -81 4 -122l5.5 -129.5zM439.999 208.998c79.333 3.33301 157.333 8.66699 234 16s152.334 18.333 227.001 33c-2 82.667 -5.5 162.667 -10.5 240
s-11.833 156.333 -20.5 237h-57c-64.667 0 -129.5 -2.16699 -194.5 -6.5s-130.5 -11.5 -196.5 -21.5c-8 -70 -12 -140.333 -12 -211c0 -26.667 0.666992 -51.5 2 -74.5s3.16602 -45.833 5.49902 -68.5s5.33301 -45.667 9 -69s8.16699 -48.333 13.5 -75zM378.999 1462
l258 -381l-136 -35l-360 321z" />
    <glyph glyph-name="aacute" unicode="&#xe1;" 
d="M907 -33c0 19.333 -0.333984 38.8311 -1.00098 58.498s-1 39.167 -1 58.5c-35.333 -32 -72.166 -56.167 -110.499 -72.5s-73.5 -28.5 -105.5 -36.5c-37.333 -9.33301 -74.333 -14.666 -111 -15.999c-66.667 0 -130.834 10.167 -192.501 30.5s-116.5 50.833 -164.5 91.5
s-86.833 91.5 -116.5 152.5s-46.167 131.833 -49.5 212.5c0 81.333 11 155.5 33 222.5s55 124.5 99 172.5s98.667 85.167 164 111.5s141 39.833 227 40.5c2.66699 0 12.834 -0.5 30.501 -1.5s39.5 -4 65.5 -9s54.333 -13 85 -24s61 -26.167 91 -45.5l-16 123l395 27
c-8 -191.333 -12 -381.666 -12 -570.999c0 -46 0.166992 -89.5 0.5 -130.5s1 -81.667 2 -122s2.33301 -81 4 -122l5.5 -129.5zM439.999 208.998c79.333 3.33301 157.333 8.66699 234 16s152.334 18.333 227.001 33c-2 82.667 -5.5 162.667 -10.5 240
s-11.833 156.333 -20.5 237h-57c-64.667 0 -129.5 -2.16699 -194.5 -6.5s-130.5 -11.5 -196.5 -21.5c-8 -70 -12 -140.333 -12 -211c0 -26.667 0.666992 -51.5 2 -74.5s3.16602 -45.833 5.49902 -68.5s5.33301 -45.667 9 -69s8.16699 -48.333 13.5 -75zM1008 1375l-361 -321
l-135 35l258 381z" />
    <glyph glyph-name="acircumflex" unicode="&#xe2;" 
d="M907 -33c0 19.333 -0.333984 38.8311 -1.00098 58.498s-1 39.167 -1 58.5c-35.333 -32 -72.166 -56.167 -110.499 -72.5s-73.5 -28.5 -105.5 -36.5c-37.333 -9.33301 -74.333 -14.666 -111 -15.999c-66.667 0 -130.834 10.167 -192.501 30.5s-116.5 50.833 -164.5 91.5
s-86.833 91.5 -116.5 152.5s-46.167 131.833 -49.5 212.5c0 81.333 11 155.5 33 222.5s55 124.5 99 172.5s98.667 85.167 164 111.5s141 39.833 227 40.5c2.66699 0 12.834 -0.5 30.501 -1.5s39.5 -4 65.5 -9s54.333 -13 85 -24s61 -26.167 91 -45.5l-16 123l395 27
c-8 -191.333 -12 -381.666 -12 -570.999c0 -46 0.166992 -89.5 0.5 -130.5s1 -81.667 2 -122s2.33301 -81 4 -122l5.5 -129.5zM439.999 208.998c79.333 3.33301 157.333 8.66699 234 16s152.334 18.333 227.001 33c-2 82.667 -5.5 162.667 -10.5 240
s-11.833 156.333 -20.5 237h-57c-64.667 0 -129.5 -2.16699 -194.5 -6.5s-130.5 -11.5 -196.5 -21.5c-8 -70 -12 -140.333 -12 -211c0 -26.667 0.666992 -51.5 2 -74.5s3.16602 -45.833 5.49902 -68.5s5.33301 -45.667 9 -69s8.16699 -48.333 13.5 -75zM995.999 1144
l-283 -61l-103 262l-98 -246h-264l231 328l306 26z" />
    <glyph glyph-name="atilde" unicode="&#xe3;" 
d="M907 -33c0 19.333 -0.333984 38.8311 -1.00098 58.498s-1 39.167 -1 58.5c-35.333 -32 -72.166 -56.167 -110.499 -72.5s-73.5 -28.5 -105.5 -36.5c-37.333 -9.33301 -74.333 -14.666 -111 -15.999c-66.667 0 -130.834 10.167 -192.501 30.5s-116.5 50.833 -164.5 91.5
s-86.833 91.5 -116.5 152.5s-46.167 131.833 -49.5 212.5c0 81.333 11 155.5 33 222.5s55 124.5 99 172.5s98.667 85.167 164 111.5s141 39.833 227 40.5c2.66699 0 12.834 -0.5 30.501 -1.5s39.5 -4 65.5 -9s54.333 -13 85 -24s61 -26.167 91 -45.5l-16 123l395 27
c-8 -191.333 -12 -381.666 -12 -570.999c0 -46 0.166992 -89.5 0.5 -130.5s1 -81.667 2 -122s2.33301 -81 4 -122l5.5 -129.5zM439.999 208.998c79.333 3.33301 157.333 8.66699 234 16s152.334 18.333 227.001 33c-2 82.667 -5.5 162.667 -10.5 240
s-11.833 156.333 -20.5 237h-57c-64.667 0 -129.5 -2.16699 -194.5 -6.5s-130.5 -11.5 -196.5 -21.5c-8 -70 -12 -140.333 -12 -211c0 -26.667 0.666992 -51.5 2 -74.5s3.16602 -45.833 5.49902 -68.5s5.33301 -45.667 9 -69s8.16699 -48.333 13.5 -75zM1073 1440
c1.33301 -13.333 2.83203 -25.998 4.49902 -37.998s2.5 -23.667 2.5 -35c0 -34 -4.16699 -63.667 -12.5 -89s-19.333 -47.5 -33 -66.5s-29.167 -34.833 -46.5 -47.5s-35 -23.334 -53 -32.001c-42 -20 -90 -31.333 -144 -34c-35.333 1.33301 -68.666 7.33301 -99.999 18
c-26.667 8.66699 -52.667 22.667 -78 42s-43.333 46.666 -54 81.999h-98c-4 -12.667 -6.66699 -25.167 -8 -37.5s-2 -25.166 -2 -38.499c0 -11.333 0.5 -22.333 1.5 -33s3.16699 -21.667 6.5 -33l-256 21c0 37.333 4.5 70.333 13.5 99s21 53.5 36 74.5s32 38.833 51 53.5
s38.5 26.667 58.5 36c46.667 22 100 34.667 160 38c0.666992 0 6.66699 -0.333008 18 -1s25.666 -2.66699 42.999 -6s35.833 -8.5 55.5 -15.5s38.167 -17.167 55.5 -30.5s31.833 -30.333 43.5 -51s17.834 -46 18.501 -76h92c1.33301 9.33301 2 18.166 2 26.499v24.5
c0 24.667 -2.16699 49.5 -6.5 74.5s-11.833 49.833 -22.5 74.5h252z" />
    <glyph glyph-name="adieresis" unicode="&#xe4;" 
d="M907 -33c0 19.333 -0.333984 38.8311 -1.00098 58.498s-1 39.167 -1 58.5c-35.333 -32 -72.166 -56.167 -110.499 -72.5s-73.5 -28.5 -105.5 -36.5c-37.333 -9.33301 -74.333 -14.666 -111 -15.999c-66.667 0 -130.834 10.167 -192.501 30.5s-116.5 50.833 -164.5 91.5
s-86.833 91.5 -116.5 152.5s-46.167 131.833 -49.5 212.5c0 81.333 11 155.5 33 222.5s55 124.5 99 172.5s98.667 85.167 164 111.5s141 39.833 227 40.5c2.66699 0 12.834 -0.5 30.501 -1.5s39.5 -4 65.5 -9s54.333 -13 85 -24s61 -26.167 91 -45.5l-16 123l395 27
c-8 -191.333 -12 -381.666 -12 -570.999c0 -46 0.166992 -89.5 0.5 -130.5s1 -81.667 2 -122s2.33301 -81 4 -122l5.5 -129.5zM439.999 208.998c79.333 3.33301 157.333 8.66699 234 16s152.334 18.333 227.001 33c-2 82.667 -5.5 162.667 -10.5 240
s-11.833 156.333 -20.5 237h-57c-64.667 0 -129.5 -2.16699 -194.5 -6.5s-130.5 -11.5 -196.5 -21.5c-8 -70 -12 -140.333 -12 -211c0 -26.667 0.666992 -51.5 2 -74.5s3.16602 -45.833 5.49902 -68.5s5.33301 -45.667 9 -69s8.16699 -48.333 13.5 -75zM573.999 1219
c0 -14.667 -3.83301 -28.5 -11.5 -41.5s-18 -24.5 -31 -34.5s-28.167 -17.833 -45.5 -23.5s-36 -8.5 -56 -8.5c-19.333 0 -37.666 2.83301 -54.999 8.5s-32.333 13.5 -45 23.5s-22.667 21.5 -30 34.5s-11 26.833 -11 41.5c0 15.333 3.66699 29.833 11 43.5
s17.333 25.5 30 35.5s27.667 17.833 45 23.5s35.666 8.5 54.999 8.5c20 0 38.667 -2.83301 56 -8.5s32.5 -13.5 45.5 -23.5s23.333 -21.833 31 -35.5s11.5 -28.167 11.5 -43.5zM993.999 1219c0 -14.667 -3.83301 -28.5 -11.5 -41.5s-18 -24.5 -31 -34.5
s-28.167 -17.833 -45.5 -23.5s-36 -8.5 -56 -8.5c-19.333 0 -37.5 2.83301 -54.5 8.5s-31.833 13.5 -44.5 23.5s-22.834 21.5 -30.501 34.5s-11.5 26.833 -11.5 41.5c0 15.333 3.83301 29.833 11.5 43.5s17.834 25.5 30.501 35.5s27.5 17.833 44.5 23.5s35.167 8.5 54.5 8.5
c20 0 38.667 -2.83301 56 -8.5s32.5 -13.5 45.5 -23.5s23.333 -21.833 31 -35.5s11.5 -28.167 11.5 -43.5z" />
    <glyph glyph-name="aring" unicode="&#xe5;" 
d="M907 -33c0 19.333 -0.333984 38.8311 -1.00098 58.498s-1 39.167 -1 58.5c-35.333 -32 -72.166 -56.167 -110.499 -72.5s-73.5 -28.5 -105.5 -36.5c-37.333 -9.33301 -74.333 -14.666 -111 -15.999c-66.667 0 -130.834 10.167 -192.501 30.5s-116.5 50.833 -164.5 91.5
s-86.833 91.5 -116.5 152.5s-46.167 131.833 -49.5 212.5c0 81.333 11 155.5 33 222.5s55 124.5 99 172.5s98.667 85.167 164 111.5s141 39.833 227 40.5c2.66699 0 12.834 -0.5 30.501 -1.5s39.5 -4 65.5 -9s54.333 -13 85 -24s61 -26.167 91 -45.5l-16 123l395 27
c-8 -191.333 -12 -381.666 -12 -570.999c0 -46 0.166992 -89.5 0.5 -130.5s1 -81.667 2 -122s2.33301 -81 4 -122l5.5 -129.5zM439.999 208.998c79.333 3.33301 157.333 8.66699 234 16s152.334 18.333 227.001 33c-2 82.667 -5.5 162.667 -10.5 240
s-11.833 156.333 -20.5 237h-57c-64.667 0 -129.5 -2.16699 -194.5 -6.5s-130.5 -11.5 -196.5 -21.5c-8 -70 -12 -140.333 -12 -211c0 -26.667 0.666992 -51.5 2 -74.5s3.16602 -45.833 5.49902 -68.5s5.33301 -45.667 9 -69s8.16699 -48.333 13.5 -75zM736.999 1203
c2 17.333 3.49902 35 4.49902 53s1.5 35.667 1.5 53c0 34 -2 67.667 -6 101c-7.33301 0 -13.666 0.333008 -18.999 1s-10.666 1 -15.999 1c-57.333 0 -113.333 -5.66699 -168 -17c-3.33301 -15.333 -5.5 -31 -6.5 -47s-1.5 -32.333 -1.5 -49c0 -15.333 0.5 -31 1.5 -47
s3.16699 -32.333 6.5 -49c17.333 -2 34.5 -3.5 51.5 -4.5s33.167 -1.5 48.5 -1.5c33.333 0 67.666 2 102.999 6zM924.998 1293c0 -31.333 -7.33301 -60.666 -22 -87.999s-34.667 -51.166 -60 -71.499s-55.166 -36.333 -89.499 -48s-71.166 -17.5 -110.499 -17.5
s-76.333 5.83301 -111 17.5s-64.834 27.667 -90.501 48s-46 44.166 -61 71.499s-22.5 56.666 -22.5 87.999s7.5 60.833 22.5 88.5s35.333 51.667 61 72s55.834 36.5 90.501 48.5s71.667 18 111 18s76.166 -6 110.499 -18s64.166 -28.167 89.499 -48.5s45.333 -44.333 60 -72
s22 -57.167 22 -88.5z" />
    <glyph glyph-name="ae" unicode="&#xe6;" horiz-adv-x="2042" 
d="M2005 469l-781.999 -62.9961c3.33301 -41.333 8 -82.333 14 -123s13.667 -81.667 23 -123c58.667 -4 115.334 -6 170.001 -6c30 0 59 0.5 87 1.5s57 2.5 87 4.5c1.33301 13.333 2.33301 26.666 3 39.999s1 26.666 1 39.999c0 12 -0.166992 23.833 -0.5 35.5
s-1.5 23.5 -3.5 35.5l376 -8c-18 -63.333 -44.5 -117.666 -79.5 -162.999s-76.333 -82.5 -124 -111.5s-100.834 -50.167 -159.501 -63.5s-120.334 -20 -185.001 -20c-106.667 0 -201.667 18.333 -285 55l-6 -55h-312v29c0 9.33301 0.666992 18.666 2 27.999
c-53.333 -28.667 -111.333 -49.167 -174 -61.5s-124 -18.5 -184 -18.5c-52 0 -103.333 4.16699 -154 12.5s-96 23.666 -136 45.999s-72.333 53 -97 92s-37 89.167 -37 150.5c0 47.333 9.83301 91.333 29.5 132s49.334 76 89.001 106s89.5 53.5 149.5 70.5
s130.333 25.5 211 25.5c16 0 35.333 -0.666992 58 -2s47.5 -4.16602 74.5 -8.49902s55.5 -10.333 85.5 -18s60 -17.834 90 -30.501c-2.66699 56.667 -5.66699 113.5 -9 170.5s-8 114.833 -14 173.5c-24.667 4 -52.167 7 -82.5 9s-58.166 3 -83.499 3
c-28 0 -56.167 -1.33301 -84.5 -4s-57.5 -6.66699 -87.5 -12c-19.333 -48.667 -29 -98 -29 -148c0 -10 0.166992 -19.833 0.5 -29.5s1.16602 -19.5 2.49902 -29.5h-398c15.333 68 39.166 126 71.499 174s68.5 88 108.5 120s82 57.167 126 75.5s86 32.166 126 41.499
s75.667 15.166 107 17.499s54.333 3.5 69 3.5c95.333 0 175.333 -9.33301 240 -28s118 -43.334 160 -74.001c51.333 34.667 108.666 60.334 171.999 77.001s130.333 25 201 25c79.333 0 153.833 -10.667 223.5 -32s130.334 -54.666 182.001 -99.999
s92.5 -103.333 122.5 -174s45 -155 45 -253v-35zM414.001 123.004c72 1.33301 142.666 4.33105 211.999 8.99805s139.333 10.667 210 18c0 32.667 0.333008 65.334 1 98.001s1 65.334 1 98.001v60c-82.667 -2.66699 -161.167 -9.16699 -235.5 -19.5
s-149.5 -23.833 -225.5 -40.5c-3.33301 -13.333 -5.5 -25.5 -6.5 -36.5s-1.5 -22.167 -1.5 -33.5c0 -25.333 3.33301 -50 10 -74s18.334 -50.333 35.001 -79zM1212 616.002l402 -0.00292969c0 82.667 -8.33301 161.334 -25 236.001c-57.333 12 -117.333 18 -180 18
c-61.333 0 -123.333 -6 -186 -18c-4.66699 -37.333 -7.66699 -75.166 -9 -113.499s-2 -79.166 -2 -122.499z" />
    <glyph glyph-name="ccedilla" unicode="&#xe7;" horiz-adv-x="1225" 
d="M870 -287c0 -36 -8.83301 -66.3291 -26.5 -90.9961s-39 -44.834 -64 -60.501s-51.333 -27 -79 -34s-51.5 -10.5 -71.5 -10.5c-16.667 -0.666992 -37.334 0 -62.001 2c-21.333 1.33301 -48 3.33301 -80 6s-70.667 6.66699 -116 12v119c42.667 -4 85 -6 127 -6
c20.667 0 41 0.5 61 1.5s40.667 2.5 62 4.5c3.33301 10 5.5 20.5 6.5 31.5s1.5 21.5 1.5 31.5c0 10.667 -0.5 21 -1.5 31s-3.16699 20.333 -6.5 31c-15.333 2 -31.166 3.83301 -47.499 5.5s-32.833 2.5 -49.5 2.5c-15.333 0 -31.5 -0.833008 -48.5 -2.5
s-34.167 -3.5 -51.5 -5.5c2.66699 7.33301 7 17 13 29l21.5 41c8.33301 15.333 17.666 31.666 27.999 48.999l31.5 53c-66 8.66699 -127.167 26.167 -183.5 52.5s-105 63.333 -146 111s-73.167 107.167 -96.5 178.5s-35 156 -35 254c0 90 15.667 167.333 47 232
s73.166 118 125.499 160s113 72.833 182 92.5s141.5 29.5 217.5 29.5c67.333 0 131.333 -7.83301 192 -23.5s115.5 -39.667 164.5 -72s90.833 -73.666 125.5 -123.999s59.667 -110.166 75 -179.499h-400c3.33301 16 5.66602 32.167 6.99902 48.5s2 32.833 2 49.5
c0 15.333 -0.666992 30.333 -2 45s-3.66602 29.667 -6.99902 45c-28.667 5.33301 -57.667 9 -87 11s-59.666 3 -90.999 3c-30.667 0 -61.667 -1 -93 -3s-63 -5.66699 -95 -11c-3.33301 -36 -5.83301 -71.333 -7.5 -106s-2.5 -69.667 -2.5 -105
c0 -81.333 4.16699 -161.833 12.5 -241.5s19.833 -159.5 34.5 -239.5c30 -3.33301 58.833 -5.5 86.5 -6.5s56.167 -1.5 85.5 -1.5c28.667 0 57 0.5 85 1.5s57 3.16699 87 6.5c1.33301 14 2.33301 27.667 3 41s1 26.333 1 39c0 12 -0.333008 24 -1 36s-1.66699 23.667 -3 35
l377 -8c-17.333 -60.667 -42.333 -112.834 -75 -156.501s-71.167 -79.834 -115.5 -108.501s-93.666 -50.334 -147.999 -65.001s-111.5 -23.334 -171.5 -26.001l-33 -80c58.667 -2.66699 104 -12.167 136 -28.5s55.333 -33.833 70 -52.5c17.333 -22 27 -46.333 29 -73z" />
    <glyph glyph-name="egrave" unicode="&#xe8;" horiz-adv-x="1237" 
d="M1200 469l-781.997 -63.001c3.33301 -41.333 8 -82.333 14 -123s13.667 -81.667 23 -123c58.667 -4 115.334 -6 170.001 -6c30 0 59 0.5 87 1.5s57 2.5 87 4.5c1.33301 13.333 2.33301 26.666 3 39.999s1 26.666 1 39.999c0 12 -0.166992 23.833 -0.5 35.5
s-1.5 23.5 -3.5 35.5l377 -8c-18.667 -63.333 -45.5 -117.666 -80.5 -162.999s-76.333 -82.5 -124 -111.5s-100.834 -50.167 -159.501 -63.5s-120.334 -20 -185.001 -20c-79.333 0 -153.833 10.667 -223.5 32s-130.334 55.833 -182.001 103.5
s-92.334 109.834 -122.001 186.501s-44.5 170.667 -44.5 282c0 90 15.667 167.333 47 232s73.166 118 125.499 160s113 72.833 182 92.5s141.5 29.5 217.5 29.5c79.333 0 153.833 -10.667 223.5 -32s130.334 -54.666 182.001 -99.999s92.5 -103.333 122.5 -174
s45 -155 45 -253v-35zM408.003 615.999l401 -0.00292969c0 82.667 -8.33301 161.334 -25 236.001c-57.333 12 -117.333 18 -180 18c-61.333 0 -123.333 -6 -186 -18c-4 -37.333 -6.66699 -75.166 -8 -113.499s-2 -79.166 -2 -122.499zM394.003 1559l258 -381l-136 -35
l-360 321z" />
    <glyph glyph-name="eacute" unicode="&#xe9;" horiz-adv-x="1237" 
d="M1200 469l-781.997 -63.001c3.33301 -41.333 8 -82.333 14 -123s13.667 -81.667 23 -123c58.667 -4 115.334 -6 170.001 -6c30 0 59 0.5 87 1.5s57 2.5 87 4.5c1.33301 13.333 2.33301 26.666 3 39.999s1 26.666 1 39.999c0 12 -0.166992 23.833 -0.5 35.5
s-1.5 23.5 -3.5 35.5l377 -8c-18.667 -63.333 -45.5 -117.666 -80.5 -162.999s-76.333 -82.5 -124 -111.5s-100.834 -50.167 -159.501 -63.5s-120.334 -20 -185.001 -20c-79.333 0 -153.833 10.667 -223.5 32s-130.334 55.833 -182.001 103.5
s-92.334 109.834 -122.001 186.501s-44.5 170.667 -44.5 282c0 90 15.667 167.333 47 232s73.166 118 125.499 160s113 72.833 182 92.5s141.5 29.5 217.5 29.5c79.333 0 153.833 -10.667 223.5 -32s130.334 -54.666 182.001 -99.999s92.5 -103.333 122.5 -174
s45 -155 45 -253v-35zM408.003 615.999l401 -0.00292969c0 82.667 -8.33301 161.334 -25 236.001c-57.333 12 -117.333 18 -180 18c-61.333 0 -123.333 -6 -186 -18c-4 -37.333 -6.66699 -75.166 -8 -113.499s-2 -79.166 -2 -122.499zM1008 1461l-361 -321l-135 35l258 381z
" />
    <glyph glyph-name="ecircumflex" unicode="&#xea;" horiz-adv-x="1237" 
d="M1200 469l-781.997 -63.001c3.33301 -41.333 8 -82.333 14 -123s13.667 -81.667 23 -123c58.667 -4 115.334 -6 170.001 -6c30 0 59 0.5 87 1.5s57 2.5 87 4.5c1.33301 13.333 2.33301 26.666 3 39.999s1 26.666 1 39.999c0 12 -0.166992 23.833 -0.5 35.5
s-1.5 23.5 -3.5 35.5l377 -8c-18.667 -63.333 -45.5 -117.666 -80.5 -162.999s-76.333 -82.5 -124 -111.5s-100.834 -50.167 -159.501 -63.5s-120.334 -20 -185.001 -20c-79.333 0 -153.833 10.667 -223.5 32s-130.334 55.833 -182.001 103.5
s-92.334 109.834 -122.001 186.501s-44.5 170.667 -44.5 282c0 90 15.667 167.333 47 232s73.166 118 125.499 160s113 72.833 182 92.5s141.5 29.5 217.5 29.5c79.333 0 153.833 -10.667 223.5 -32s130.334 -54.666 182.001 -99.999s92.5 -103.333 122.5 -174
s45 -155 45 -253v-35zM408.003 615.999l401 -0.00292969c0 82.667 -8.33301 161.334 -25 236.001c-57.333 12 -117.333 18 -180 18c-61.333 0 -123.333 -6 -186 -18c-4 -37.333 -6.66699 -75.166 -8 -113.499s-2 -79.166 -2 -122.499zM981.003 1183l-283 -61l-103 262
l-98 -246h-264l231 328l306 26z" />
    <glyph glyph-name="edieresis" unicode="&#xeb;" horiz-adv-x="1237" 
d="M1200 469l-781.997 -63.001c3.33301 -41.333 8 -82.333 14 -123s13.667 -81.667 23 -123c58.667 -4 115.334 -6 170.001 -6c30 0 59 0.5 87 1.5s57 2.5 87 4.5c1.33301 13.333 2.33301 26.666 3 39.999s1 26.666 1 39.999c0 12 -0.166992 23.833 -0.5 35.5
s-1.5 23.5 -3.5 35.5l377 -8c-18.667 -63.333 -45.5 -117.666 -80.5 -162.999s-76.333 -82.5 -124 -111.5s-100.834 -50.167 -159.501 -63.5s-120.334 -20 -185.001 -20c-79.333 0 -153.833 10.667 -223.5 32s-130.334 55.833 -182.001 103.5
s-92.334 109.834 -122.001 186.501s-44.5 170.667 -44.5 282c0 90 15.667 167.333 47 232s73.166 118 125.499 160s113 72.833 182 92.5s141.5 29.5 217.5 29.5c79.333 0 153.833 -10.667 223.5 -32s130.334 -54.666 182.001 -99.999s92.5 -103.333 122.5 -174
s45 -155 45 -253v-35zM408.003 615.999l401 -0.00292969c0 82.667 -8.33301 161.334 -25 236.001c-57.333 12 -117.333 18 -180 18c-61.333 0 -123.333 -6 -186 -18c-4 -37.333 -6.66699 -75.166 -8 -113.499s-2 -79.166 -2 -122.499zM559.003 1223
c0 -14.667 -3.83301 -28.5 -11.5 -41.5s-18 -24.5 -31 -34.5s-28.167 -17.833 -45.5 -23.5s-36 -8.5 -56 -8.5c-19.333 0 -37.666 2.83301 -54.999 8.5s-32.333 13.5 -45 23.5s-22.667 21.5 -30 34.5s-11 26.833 -11 41.5c0 15.333 3.66699 29.833 11 43.5
s17.333 25.5 30 35.5s27.667 17.833 45 23.5s35.666 8.5 54.999 8.5c20 0 38.667 -2.83301 56 -8.5s32.5 -13.5 45.5 -23.5s23.333 -21.833 31 -35.5s11.5 -28.167 11.5 -43.5zM979.003 1223c0 -14.667 -3.83301 -28.5 -11.5 -41.5s-18 -24.5 -31 -34.5
s-28.167 -17.833 -45.5 -23.5s-36 -8.5 -56 -8.5c-19.333 0 -37.5 2.83301 -54.5 8.5s-31.833 13.5 -44.5 23.5s-22.834 21.5 -30.501 34.5s-11.5 26.833 -11.5 41.5c0 15.333 3.83301 29.833 11.5 43.5s17.834 25.5 30.501 35.5s27.5 17.833 44.5 23.5s35.167 8.5 54.5 8.5
c20 0 38.667 -2.83301 56 -8.5s32.5 -13.5 45.5 -23.5s23.333 -21.833 31 -35.5s11.5 -28.167 11.5 -43.5z" />
    <glyph glyph-name="igrave" unicode="&#xec;" horiz-adv-x="547" 
d="M463 1044c-14.667 -148.667 -24.501 -295.332 -29.501 -439.999s-7.5 -289.334 -7.5 -434.001v-76.5c0 -25.667 0.666992 -51.5 2 -77.5h-309c0 41.333 0.333008 82.333 1 123s1 81 1 121c0 132.667 -3.16699 264 -9.5 394s-16.166 260 -29.499 390h381zM105.999 1533
l258 -381l-136 -35l-360 321z" />
    <glyph glyph-name="iacute" unicode="&#xed;" horiz-adv-x="547" 
d="M463 1044c-14.667 -148.667 -24.501 -295.332 -29.501 -439.999s-7.5 -289.334 -7.5 -434.001v-76.5c0 -25.667 0.666992 -51.5 2 -77.5h-309c0 41.333 0.333008 82.333 1 123s1 81 1 121c0 132.667 -3.16699 264 -9.5 394s-16.166 260 -29.499 390h381zM681.999 1426
l-361 -321l-135 35l258 381z" />
    <glyph glyph-name="icircumflex" unicode="&#xee;" horiz-adv-x="547" 
d="M463 1044c-14.667 -148.667 -24.501 -295.332 -29.501 -439.999s-7.5 -289.334 -7.5 -434.001v-76.5c0 -25.667 0.666992 -51.5 2 -77.5h-309c0 41.333 0.333008 82.333 1 123s1 81 1 121c0 132.667 -3.16699 264 -9.5 394s-16.166 260 -29.499 390h381zM644.999 1183
l-283 -61l-103 262l-98 -246h-264l231 328l306 26z" />
    <glyph glyph-name="idieresis" unicode="&#xef;" horiz-adv-x="547" 
d="M463 1044c-14.667 -148.667 -24.501 -295.332 -29.501 -439.999s-7.5 -289.334 -7.5 -434.001v-76.5c0 -25.667 0.666992 -51.5 2 -77.5h-309c0 41.333 0.333008 82.333 1 123s1 81 1 121c0 132.667 -3.16699 264 -9.5 394s-16.166 260 -29.499 390h381zM205.999 1227
c0 -14.667 -3.83301 -28.5 -11.5 -41.5s-18 -24.5 -31 -34.5s-28.167 -17.833 -45.5 -23.5s-36 -8.5 -56 -8.5c-19.333 0 -37.666 2.83301 -54.999 8.5s-32.333 13.5 -45 23.5s-22.667 21.5 -30 34.5s-11 26.833 -11 41.5c0 15.333 3.66699 29.833 11 43.5
s17.333 25.5 30 35.5s27.667 17.833 45 23.5s35.666 8.5 54.999 8.5c20 0 38.667 -2.83301 56 -8.5s32.5 -13.5 45.5 -23.5s23.333 -21.833 31 -35.5s11.5 -28.167 11.5 -43.5zM625.999 1227c0 -14.667 -3.83301 -28.5 -11.5 -41.5s-18 -24.5 -31 -34.5
s-28.167 -17.833 -45.5 -23.5s-36 -8.5 -56 -8.5c-19.333 0 -37.5 2.83301 -54.5 8.5s-31.833 13.5 -44.5 23.5s-22.834 21.5 -30.501 34.5s-11.5 26.833 -11.5 41.5c0 15.333 3.83301 29.833 11.5 43.5s17.834 25.5 30.501 35.5s27.5 17.833 44.5 23.5s35.167 8.5 54.5 8.5
c20 0 38.667 -2.83301 56 -8.5s32.5 -13.5 45.5 -23.5s23.333 -21.833 31 -35.5s11.5 -28.167 11.5 -43.5z" />
    <glyph glyph-name="eth" unicode="&#xf0;" horiz-adv-x="1401" 
d="M1382 1194l-148.999 -43.0059c30 -68 52.5 -135 67.5 -201s25.667 -125.5 32 -178.5s9.66602 -96.833 9.99902 -131.5s0.5 -54.667 0.5 -60c-1.33301 -81.333 -9.83301 -153.666 -25.5 -216.999s-36.667 -119.333 -63 -168s-56.5 -90.667 -90.5 -126
s-69.833 -65.166 -107.5 -89.499s-76 -44 -115 -59s-76.667 -26.667 -113 -35s-70 -13.833 -101 -16.5s-57.167 -4 -78.5 -4c-29.333 0 -64.666 2.5 -105.999 7.5s-84.833 14.667 -130.5 29s-91.167 34.333 -136.5 60s-86.166 59 -122.499 100s-66 90.833 -89 149.5
s-34.833 128.334 -35.5 209.001c0 64.667 8 121.834 24 171.501s38.167 92.667 66.5 129s61.833 66.833 100.5 91.5s81 44.5 127 59.5s94.667 25.667 146 32s103.333 9.5 156 9.5c27.333 -1.33301 56 -5 86 -11c25.333 -5.33301 54 -12.666 86 -21.999s64.333 -22 97 -38
c-7.33301 28 -16.833 59.167 -28.5 93.5s-26.834 70.5 -45.501 108.5l-252 -67l-53 201l186 49c-25.333 30.667 -53.5 60.334 -84.5 89.001s-65.5 55.667 -103.5 81l387 143c41.333 -28.667 78.666 -60 111.999 -94s63.333 -69.667 90 -107l97.5 26.5l103.5 29.5z
M856.001 108.994c18 34.667 32.5 74.1689 43.5 118.502s19.5 89.666 25.5 135.999s10 91.666 12 135.999s3 83.833 3 118.5v13c-62 9.33301 -123.5 16.333 -184.5 21s-122.5 7 -184.5 7h-56.5c-19.667 0 -38.834 -0.666992 -57.501 -2c-4 -30.667 -6.83301 -61 -8.5 -91
s-2.5 -61 -2.5 -93c0 -60.667 3.33301 -121.667 10 -183s15.667 -124 27 -188c29.333 -5.33301 57.833 -9.33301 85.5 -12s55.834 -4 84.501 -4c34 0 67.5 2 100.5 6s67.167 9.66699 102.5 17z" />
    <glyph glyph-name="ntilde" unicode="&#xf1;" horiz-adv-x="1264" 
d="M1184 522c0 -88.667 -4.67285 -179.001 -14.0059 -271.001s-25.333 -184 -48 -276h-348c8.66699 99.333 15.334 197.5 20.001 294.5s7 194.833 7 293.5v99.5c0 33 -0.666992 66.167 -2 99.5c-30 3.33301 -59.667 5.5 -89 6.5s-59 1.5 -89 1.5c-56.667 0 -115 -2 -175 -6
c-2 -54.667 -3.5 -105.334 -4.5 -152.001s-1.5 -93 -1.5 -139c0 -34 0.333008 -68.5 1 -103.5s1.83398 -72.5 3.50098 -112.5s3.83398 -83.167 6.50098 -129.5s6 -97.166 10 -152.499h-336c0 80 -0.333008 150.667 -1 212s-1.66699 117.833 -3 169.5
s-3.16602 101 -5.49902 148s-5.16602 96.333 -8.49902 148l-11 169l-14 210.5l379 23l-8 -142c38 26.667 77 47.334 117 62.001s76.667 25.667 110 33c38.667 8 76.334 12.667 113.001 14c48.667 0 92.167 -6.66699 130.5 -20s72 -31.833 101 -55.5s53.5 -51.5 73.5 -83.5
s36.5 -66.5 49.5 -103.5s22.333 -75.833 28 -116.5s8.5 -81 8.5 -121zM1064.99 1461c1.33301 -13.333 2.83203 -25.998 4.49902 -37.998s2.5 -23.667 2.5 -35c0 -34 -4.16699 -63.667 -12.5 -89s-19.333 -47.5 -33 -66.5s-29.167 -34.833 -46.5 -47.5
s-35 -23.334 -53 -32.001c-42 -20 -90 -31.333 -144 -34c-35.333 1.33301 -68.666 7.33301 -99.999 18c-26.667 8.66699 -52.667 22.667 -78 42s-43.333 46.666 -54 81.999h-98c-4 -12.667 -6.66699 -25.167 -8 -37.5s-2 -25.166 -2 -38.499c0 -11.333 0.5 -22.333 1.5 -33
s3.16699 -21.667 6.5 -33l-256 21c0 37.333 4.5 70.333 13.5 99s21 53.5 36 74.5s32 38.833 51 53.5s38.5 26.667 58.5 36c46.667 22 100 34.667 160 38c0.666992 0 6.66699 -0.333008 18 -1s25.666 -2.66699 42.999 -6s35.833 -8.5 55.5 -15.5s38.167 -17.167 55.5 -30.5
s31.833 -30.333 43.5 -51s17.834 -46 18.501 -76h92c1.33301 9.33301 2 18.166 2 26.499v24.5c0 24.667 -2.16699 49.5 -6.5 74.5s-11.833 49.833 -22.5 74.5h252z" />
    <glyph glyph-name="ograve" unicode="&#xf2;" horiz-adv-x="1243" 
d="M823 207c4 56.667 6.83301 111.666 8.5 164.999s2.5 106 2.5 158c0 54 -0.833008 107.167 -2.5 159.5s-4.5 106.5 -8.5 162.5c-22.667 3.33301 -45.167 5.5 -67.5 6.5s-44.833 1.5 -67.5 1.5c-93.333 0 -183.333 -10.333 -270 -31c-2 -36 -3.83301 -71.667 -5.5 -107
s-2.5 -70.666 -2.5 -105.999c0 -70.667 2.83301 -141.167 8.5 -211.5s14.167 -143.833 25.5 -220.5c15.333 -1.33301 30.833 -2 46.5 -2h48.5c46 0 92.833 2 140.5 6s95.5 10.333 143.5 19zM1194 521.999c0 -79.333 -15.5 -153.833 -46.5 -223.5
s-73.167 -130.5 -126.5 -182.5s-115.833 -93.167 -187.5 -123.5s-148.167 -45.5 -229.5 -45.5c-80.667 0 -154.834 15.167 -222.501 45.5s-126 71.5 -175 123.5s-87.167 112.833 -114.5 182.5s-41 144.167 -41 223.5c0 98 13.667 183 41 255s65.5 131.667 114.5 179
s107.333 82.5 175 105.5s141.834 34.5 222.501 34.5c81.333 0 157.833 -13 229.5 -39s134.167 -63.667 187.5 -113s95.5 -109.5 126.5 -180.5s46.5 -151.5 46.5 -241.5zM406 1559l258 -381l-136 -35l-360 321z" />
    <glyph glyph-name="oacute" unicode="&#xf3;" horiz-adv-x="1243" 
d="M823 207c4 56.667 6.83301 111.666 8.5 164.999s2.5 106 2.5 158c0 54 -0.833008 107.167 -2.5 159.5s-4.5 106.5 -8.5 162.5c-22.667 3.33301 -45.167 5.5 -67.5 6.5s-44.833 1.5 -67.5 1.5c-93.333 0 -183.333 -10.333 -270 -31c-2 -36 -3.83301 -71.667 -5.5 -107
s-2.5 -70.666 -2.5 -105.999c0 -70.667 2.83301 -141.167 8.5 -211.5s14.167 -143.833 25.5 -220.5c15.333 -1.33301 30.833 -2 46.5 -2h48.5c46 0 92.833 2 140.5 6s95.5 10.333 143.5 19zM1194 521.999c0 -79.333 -15.5 -153.833 -46.5 -223.5
s-73.167 -130.5 -126.5 -182.5s-115.833 -93.167 -187.5 -123.5s-148.167 -45.5 -229.5 -45.5c-80.667 0 -154.834 15.167 -222.501 45.5s-126 71.5 -175 123.5s-87.167 112.833 -114.5 182.5s-41 144.167 -41 223.5c0 98 13.667 183 41 255s65.5 131.667 114.5 179
s107.333 82.5 175 105.5s141.834 34.5 222.501 34.5c81.333 0 157.833 -13 229.5 -39s134.167 -63.667 187.5 -113s95.5 -109.5 126.5 -180.5s46.5 -151.5 46.5 -241.5zM1053 1464l-361 -321l-135 35l258 381z" />
    <glyph glyph-name="ocircumflex" unicode="&#xf4;" horiz-adv-x="1243" 
d="M823 207c4 56.667 6.83301 111.666 8.5 164.999s2.5 106 2.5 158c0 54 -0.833008 107.167 -2.5 159.5s-4.5 106.5 -8.5 162.5c-22.667 3.33301 -45.167 5.5 -67.5 6.5s-44.833 1.5 -67.5 1.5c-93.333 0 -183.333 -10.333 -270 -31c-2 -36 -3.83301 -71.667 -5.5 -107
s-2.5 -70.666 -2.5 -105.999c0 -70.667 2.83301 -141.167 8.5 -211.5s14.167 -143.833 25.5 -220.5c15.333 -1.33301 30.833 -2 46.5 -2h48.5c46 0 92.833 2 140.5 6s95.5 10.333 143.5 19zM1194 521.999c0 -79.333 -15.5 -153.833 -46.5 -223.5
s-73.167 -130.5 -126.5 -182.5s-115.833 -93.167 -187.5 -123.5s-148.167 -45.5 -229.5 -45.5c-80.667 0 -154.834 15.167 -222.501 45.5s-126 71.5 -175 123.5s-87.167 112.833 -114.5 182.5s-41 144.167 -41 223.5c0 98 13.667 183 41 255s65.5 131.667 114.5 179
s107.333 82.5 175 105.5s141.834 34.5 222.501 34.5c81.333 0 157.833 -13 229.5 -39s134.167 -63.667 187.5 -113s95.5 -109.5 126.5 -180.5s46.5 -151.5 46.5 -241.5zM975 1198l-283 -61l-103 262l-98 -246h-264l231 328l306 26z" />
    <glyph glyph-name="otilde" unicode="&#xf5;" horiz-adv-x="1243" 
d="M823 207c4 56.667 6.83301 111.666 8.5 164.999s2.5 106 2.5 158c0 54 -0.833008 107.167 -2.5 159.5s-4.5 106.5 -8.5 162.5c-22.667 3.33301 -45.167 5.5 -67.5 6.5s-44.833 1.5 -67.5 1.5c-93.333 0 -183.333 -10.333 -270 -31c-2 -36 -3.83301 -71.667 -5.5 -107
s-2.5 -70.666 -2.5 -105.999c0 -70.667 2.83301 -141.167 8.5 -211.5s14.167 -143.833 25.5 -220.5c15.333 -1.33301 30.833 -2 46.5 -2h48.5c46 0 92.833 2 140.5 6s95.5 10.333 143.5 19zM1194 521.999c0 -79.333 -15.5 -153.833 -46.5 -223.5
s-73.167 -130.5 -126.5 -182.5s-115.833 -93.167 -187.5 -123.5s-148.167 -45.5 -229.5 -45.5c-80.667 0 -154.834 15.167 -222.501 45.5s-126 71.5 -175 123.5s-87.167 112.833 -114.5 182.5s-41 144.167 -41 223.5c0 98 13.667 183 41 255s65.5 131.667 114.5 179
s107.333 82.5 175 105.5s141.834 34.5 222.501 34.5c81.333 0 157.833 -13 229.5 -39s134.167 -63.667 187.5 -113s95.5 -109.5 126.5 -180.5s46.5 -151.5 46.5 -241.5zM1054 1483c1.33301 -13.333 2.83203 -25.998 4.49902 -37.998s2.5 -23.667 2.5 -35
c0 -34 -4.16699 -63.667 -12.5 -89s-19.333 -47.5 -33 -66.5s-29.167 -34.833 -46.5 -47.5s-35 -23.334 -53 -32.001c-42 -20 -90 -31.333 -144 -34c-35.333 1.33301 -68.666 7.33301 -99.999 18c-26.667 8.66699 -52.667 22.667 -78 42s-43.333 46.666 -54 81.999h-98
c-4 -12.667 -6.66699 -25.167 -8 -37.5s-2 -25.166 -2 -38.499c0 -11.333 0.5 -22.333 1.5 -33s3.16699 -21.667 6.5 -33l-256 21c0 37.333 4.5 70.333 13.5 99s21 53.5 36 74.5s32 38.833 51 53.5s38.5 26.667 58.5 36c46.667 22 100 34.667 160 38
c0.666992 0 6.66699 -0.333008 18 -1s25.666 -2.66699 42.999 -6s35.833 -8.5 55.5 -15.5s38.167 -17.167 55.5 -30.5s31.833 -30.333 43.5 -51s17.834 -46 18.501 -76h92c1.33301 9.33301 2 18.166 2 26.499v24.5c0 24.667 -2.16699 49.5 -6.5 74.5
s-11.833 49.833 -22.5 74.5h252z" />
    <glyph glyph-name="odieresis" unicode="&#xf6;" horiz-adv-x="1243" 
d="M823 207c4 56.667 6.83301 111.666 8.5 164.999s2.5 106 2.5 158c0 54 -0.833008 107.167 -2.5 159.5s-4.5 106.5 -8.5 162.5c-22.667 3.33301 -45.167 5.5 -67.5 6.5s-44.833 1.5 -67.5 1.5c-93.333 0 -183.333 -10.333 -270 -31c-2 -36 -3.83301 -71.667 -5.5 -107
s-2.5 -70.666 -2.5 -105.999c0 -70.667 2.83301 -141.167 8.5 -211.5s14.167 -143.833 25.5 -220.5c15.333 -1.33301 30.833 -2 46.5 -2h48.5c46 0 92.833 2 140.5 6s95.5 10.333 143.5 19zM1194 521.999c0 -79.333 -15.5 -153.833 -46.5 -223.5
s-73.167 -130.5 -126.5 -182.5s-115.833 -93.167 -187.5 -123.5s-148.167 -45.5 -229.5 -45.5c-80.667 0 -154.834 15.167 -222.501 45.5s-126 71.5 -175 123.5s-87.167 112.833 -114.5 182.5s-41 144.167 -41 223.5c0 98 13.667 183 41 255s65.5 131.667 114.5 179
s107.333 82.5 175 105.5s141.834 34.5 222.501 34.5c81.333 0 157.833 -13 229.5 -39s134.167 -63.667 187.5 -113s95.5 -109.5 126.5 -180.5s46.5 -151.5 46.5 -241.5zM555 1256c0 -14.667 -3.83301 -28.5 -11.5 -41.5s-18 -24.5 -31 -34.5s-28.167 -17.833 -45.5 -23.5
s-36 -8.5 -56 -8.5c-19.333 0 -37.666 2.83301 -54.999 8.5s-32.333 13.5 -45 23.5s-22.667 21.5 -30 34.5s-11 26.833 -11 41.5c0 15.333 3.66699 29.833 11 43.5s17.333 25.5 30 35.5s27.667 17.833 45 23.5s35.666 8.5 54.999 8.5c20 0 38.667 -2.83301 56 -8.5
s32.5 -13.5 45.5 -23.5s23.333 -21.833 31 -35.5s11.5 -28.167 11.5 -43.5zM975 1256c0 -14.667 -3.83301 -28.5 -11.5 -41.5s-18 -24.5 -31 -34.5s-28.167 -17.833 -45.5 -23.5s-36 -8.5 -56 -8.5c-19.333 0 -37.5 2.83301 -54.5 8.5s-31.833 13.5 -44.5 23.5
s-22.834 21.5 -30.501 34.5s-11.5 26.833 -11.5 41.5c0 15.333 3.83301 29.833 11.5 43.5s17.834 25.5 30.501 35.5s27.5 17.833 44.5 23.5s35.167 8.5 54.5 8.5c20 0 38.667 -2.83301 56 -8.5s32.5 -13.5 45.5 -23.5s23.333 -21.833 31 -35.5s11.5 -28.167 11.5 -43.5z" />
    <glyph glyph-name="divide" unicode="&#xf7;" horiz-adv-x="1090" 
d="M1016 643c-158 0 -315.167 -3.5 -471.5 -10.5s-313.833 -17.833 -472.5 -32.5v291c157.333 3.33301 314.5 7.5 471.5 12.5s314.5 15.167 472.5 30.5v-291zM727 406c0 -19.333 -4.83301 -37.666 -14.5 -54.999s-23 -32.5 -40 -45.5s-36.667 -23.167 -59 -30.5
s-45.833 -11 -70.5 -11c-26 0 -50.5 3.66699 -73.5 11s-42.833 17.5 -59.5 30.5s-29.834 28.167 -39.501 45.5s-14.5 35.666 -14.5 54.999c0 20 4.83301 38.667 14.5 56s22.834 32.5 39.501 45.5s36.5 23.167 59.5 30.5s47.5 11 73.5 11c24.667 0 48.167 -3.66699 70.5 -11
s42 -17.5 59 -30.5s30.333 -28.167 40 -45.5s14.5 -36 14.5 -56zM727 1102c0 -19.333 -4.83301 -37.666 -14.5 -54.999s-23 -32.333 -40 -45s-36.667 -22.667 -59 -30s-45.833 -11 -70.5 -11c-26 0 -50.5 3.66699 -73.5 11s-42.833 17.333 -59.5 30
s-29.834 27.667 -39.501 45s-14.5 35.666 -14.5 54.999c0 20 4.83301 38.667 14.5 56s22.834 32.5 39.501 45.5s36.5 23.167 59.5 30.5s47.5 11 73.5 11c24.667 0 48.167 -3.66699 70.5 -11s42 -17.5 59 -30.5s30.333 -28.167 40 -45.5s14.5 -36 14.5 -56z" />
    </font>
</defs>
</svg>
